<svg width="84" height="52" viewBox="0 0 84 52" fill="none" xmlns="http://www.w3.org/2000/svg">
<g clip-path="url(#clip0_6_25298)">
<path d="M9.48087 0.913963C26.1312 -8.69911 47.4168 -2.99565 57.0299 13.6547C66.643 30.305 60.9395 51.5906 44.2892 61.2037C27.6388 70.8168 6.35322 65.1133 -3.25985 48.463C-12.8729 31.8127 -7.16946 10.527 9.48087 0.913963Z" fill="#0052FF"/>
<path d="M33.0205 41.5842C27.1836 44.9541 19.7265 42.9681 16.3593 37.1359C12.9921 31.3037 15.0007 23.8527 20.8376 20.4828C26.0697 17.462 32.6147 18.7632 36.3251 23.2641L46.9712 17.1175C39.8189 6.80418 25.821 3.53801 14.7403 9.93544C3.06654 16.6753 -0.944057 31.5891 5.78362 43.2418C12.5113 54.8945 27.4324 58.8781 39.1061 52.1383C50.1868 45.7408 54.3571 31.9852 49.0017 20.6344L38.3497 26.7844C40.3865 32.2515 38.2526 38.5634 33.0205 41.5842Z" fill="white"/>
</g>
<defs>
<clipPath id="clip0_6_25298">
<rect width="83.5399" height="83.5399" fill="white" transform="translate(-30.1738 15.77) rotate(-30)"/>
</clipPath>
</defs>
</svg>
