<svg width="145" height="28" viewBox="0 0 145 28" fill="none" xmlns="http://www.w3.org/2000/svg">
<g clip-path="url(#clip0_42_7374)">
<path d="M8.87719 27.6184H3.41517V13.9789H-0.305664V9.53818H3.41502V6.37827C3.41502 2.63377 5.06069 -0.0517578 10.5079 -0.0517578C11.66 -0.0517578 13.4688 0.180858 13.4688 0.180858V4.30434H11.569C9.63327 4.30434 8.87748 4.89415 8.87748 6.52478V9.53818H13.3963L12.9939 13.9789H8.87733L8.87719 27.6184ZM21.4099 9.18331C21.3304 9.18331 21.2485 9.18621 21.1674 9.18824C16.1027 9.18824 13.7855 13.0045 13.7855 18.4217C13.7855 25.246 16.7913 27.9772 21.207 27.9772C23.7334 27.9772 25.3933 26.912 26.4022 24.9242V27.6203H31.5973V9.54007H26.4022V12.3206C25.5784 10.5317 23.8721 9.2045 21.4099 9.18331ZM22.7309 13.4556C24.8581 13.4556 26.1349 14.9419 26.1349 17.47L26.1398 20.0522C26.1398 21.7562 25.0853 23.7496 22.7309 23.7496C19.1114 23.7496 19.2081 19.8347 19.2081 18.5308C19.2081 14.1446 21.1366 13.4556 22.7309 13.4556ZM33.6954 18.5811C33.6954 16.3841 33.5904 9.19507 42.9406 9.19507C46.6939 9.19507 48.2611 10.3905 48.2611 10.3905L47.0015 14.3042C47.0015 14.3042 45.4363 13.4408 43.3967 13.4408C40.7845 13.4408 39.1177 14.9577 39.1177 17.6267L39.1206 19.5405C39.1206 22.1051 40.7289 23.817 43.4021 23.817C45.2601 23.817 46.9726 22.9455 46.9726 22.9455L48.2291 26.7774C48.2291 26.7774 46.7961 27.9804 42.9668 27.9804C34.064 27.9804 33.6955 21.5305 33.6955 18.5811H33.6954ZM78.7223 9.18824C83.7871 9.18824 86.1409 13.0045 86.1409 18.4217C86.1409 25.246 83.1349 27.9772 78.7192 27.9772C76.1928 27.9772 74.3252 26.9122 73.3163 24.9242V27.6203L68.1865 27.6183V0.497981L73.633 0.0221506V12.0756C74.4191 9.96682 77.0024 9.18824 78.7223 9.18824ZM77.1953 13.4556C75.0681 13.4556 73.633 14.9419 73.633 17.47L73.628 20.0522C73.6248 21.7562 74.6218 23.7496 77.1953 23.7496C80.8148 23.7496 80.7181 19.8347 80.7181 18.5308C80.7181 14.1446 78.7898 13.4556 77.1953 13.4556ZM57.7113 9.2032C51.9667 9.2032 48.934 12.3406 48.934 17.9161V18.952C48.934 26.1885 53.1929 28.0516 58.2704 28.0516C63.2056 28.0516 65.4395 26.6688 65.4395 26.6688L64.4203 22.9865C64.4203 22.9865 61.7926 24.1064 58.9234 24.1064C55.9489 24.1064 54.6697 23.347 54.3418 20.4836H65.875V17.5294C65.875 11.4814 62.4713 9.20305 57.7111 9.20305L57.7113 9.2032ZM57.8497 12.8905C59.8382 12.8905 61.1267 14.1119 61.0559 16.9447H54.3518C54.4681 13.9632 55.8576 12.8905 57.8497 12.8905ZM97.001 9.17837C91.1018 9.17837 87.9961 12.5085 87.9961 18.4762C87.9961 26.6642 93.3496 27.9822 97.0108 27.9822C102.371 27.9822 105.937 25.0916 105.937 18.5505C105.937 11.7424 101.927 9.17837 97.001 9.17837ZM96.9268 13.4704C99.5207 13.4704 100.549 15.4151 100.549 17.6288V19.5319C100.549 22.2135 99.1104 23.7646 96.9169 23.7646C94.8655 23.7646 93.4238 22.3137 93.4238 19.5319V17.6288C93.4238 14.662 95.1393 13.4704 96.9268 13.4704ZM116.787 9.17837C110.888 9.17837 107.782 12.5085 107.782 18.4762C107.782 26.6642 113.136 27.9822 116.797 27.9822C122.156 27.9822 125.723 25.0916 125.723 18.5505C125.723 11.7424 121.713 9.17837 116.787 9.17837ZM116.713 13.4704C119.307 13.4704 120.334 15.4151 120.334 17.6288V19.5319C120.334 22.2135 118.896 23.7646 116.703 23.7646C114.651 23.7646 113.21 22.3137 113.21 19.5319V17.6288C113.21 14.662 114.925 13.4704 116.713 13.4704ZM127.781 27.6184V0.497981L133.243 0.0222958V18.2001L138.662 9.53833H144.431L138.778 18.5094L144.649 27.6184H138.864L133.243 18.7735V27.6184H127.781Z" fill="#AFAFAF"/>
</g>
<defs>
<clipPath id="clip0_42_7374">
<rect width="144" height="28" fill="white" transform="translate(0.25)"/>
</clipPath>
</defs>
</svg>
