<svg width="145" height="32" viewBox="0 0 145 32" fill="none" xmlns="http://www.w3.org/2000/svg">
<g clip-path="url(#clip0_42_7376)">
<path d="M45.462 4.99742C44.9329 3.02941 43.3791 1.48284 41.402 0.956028C37.8223 0.000244427 23.4611 0.000244141 23.4611 0.000244141C23.4611 0.000244141 9.10002 0.000244427 5.52014 0.956028C3.54309 1.48284 1.98941 3.02941 1.46018 4.99742C0.5 8.5609 0.5 16.0002 0.5 16.0002C0.5 16.0002 0.5 23.4396 1.46018 27.0031C1.98941 28.9711 3.54309 30.5176 5.52014 31.0443C9.10002 32.0002 23.4611 32.0002 23.4611 32.0002C23.4611 32.0002 37.8223 32.0002 41.402 31.0443C43.3791 30.5176 44.9329 28.9711 45.462 27.0031C46.4223 23.4396 46.4223 16.0002 46.4223 16.0002C46.4223 16.0002 46.4184 8.5609 45.462 4.99742Z" fill="#AFAFAF"/>
<path d="M18.8643 22.8566L30.7947 16.0006L18.8643 9.14453V22.8566Z" fill="#F6F6F6"/>
<path d="M56.1181 20.8057L50.9619 2.26953H55.4604L57.2674 10.6721C57.7286 12.7417 58.065 14.5066 58.2842 15.9666H58.4165C58.5678 14.9205 58.908 13.167 59.4335 10.7022L61.3046 2.26953H65.8031L60.5826 20.8057V29.6975H56.1145V20.8057H56.1181Z" fill="#AFAFAF"/>
<path d="M67.1563 29.11C66.2491 28.5004 65.6026 27.5521 65.217 26.2652C64.8353 24.9783 64.6426 23.27 64.6426 21.1326V18.2238C64.6426 16.0676 64.8618 14.333 65.3003 13.0272C65.7388 11.7215 66.423 10.7657 67.3529 10.1674C68.2829 9.56911 69.5039 9.26807 71.0161 9.26807C72.5054 9.26807 73.6962 9.57287 74.5958 10.1825C75.4917 10.792 76.1495 11.7478 76.5653 13.0423C76.9811 14.3405 77.1891 16.0676 77.1891 18.2238V21.1326C77.1891 23.27 76.985 24.9858 76.5806 26.2802C76.176 27.5785 75.5183 28.5268 74.6109 29.125C73.7037 29.7234 72.4714 30.0244 70.9177 30.0244C69.3148 30.0281 68.0637 29.7196 67.1563 29.11ZM72.2446 25.9717C72.494 25.317 72.6226 24.2521 72.6226 22.7695V16.5268C72.6226 15.0893 72.4979 14.0357 72.2446 13.3734C71.9912 12.7074 71.5491 12.3763 70.9138 12.3763C70.3016 12.3763 69.8668 12.7074 69.6173 13.3734C69.364 14.0395 69.2393 15.0893 69.2393 16.5268V22.7695C69.2393 24.2521 69.3602 25.3207 69.6022 25.9717C69.8441 26.6265 70.2788 26.9538 70.9138 26.9538C71.5491 26.9538 71.9912 26.6265 72.2446 25.9717Z" fill="#AFAFAF"/>
<path d="M91.822 29.7014H88.2762L87.883 27.248H87.7848C86.8207 29.0993 85.3767 30.0249 83.4488 30.0249C82.1144 30.0249 81.1278 29.5884 80.4927 28.7193C79.8576 27.8462 79.54 26.4841 79.54 24.6328V9.66001H84.0726V24.3692C84.0726 25.2649 84.1708 25.9008 84.3674 26.2809C84.564 26.6609 84.8929 26.8528 85.354 26.8528C85.7472 26.8528 86.1252 26.7324 86.4882 26.4916C86.8511 26.2507 87.1157 25.9459 87.2933 25.5772V9.65625H91.822V29.7014Z" fill="#AFAFAF"/>
<path d="M104.134 5.90017H99.6358V29.7006H95.2016V5.90017H90.7031V2.27271H104.134V5.90017Z" fill="#AFAFAF"/>
<path d="M115.067 29.7014H111.521L111.128 27.248H111.03C110.066 29.0993 108.622 30.0249 106.694 30.0249C105.359 30.0249 104.373 29.5884 103.738 28.7193C103.103 27.8462 102.785 26.4841 102.785 24.6328V9.66001H107.318V24.3692C107.318 25.2649 107.416 25.9008 107.613 26.2809C107.809 26.6609 108.138 26.8528 108.599 26.8528C108.992 26.8528 109.37 26.7324 109.733 26.4916C110.096 26.2507 110.361 25.9459 110.538 25.5772V9.65625H115.067V29.7014Z" fill="#AFAFAF"/>
<path d="M130.067 12.8619C129.791 11.5976 129.348 10.6832 128.736 10.115C128.124 9.54681 127.281 9.26459 126.207 9.26459C125.375 9.26459 124.597 9.49789 123.875 9.96825C123.153 10.4386 122.593 11.052 122.2 11.8158H122.166V1.25708H117.8V29.6973H121.542L122.003 27.8008H122.102C122.453 28.4781 122.979 29.0086 123.678 29.4038C124.377 29.7952 125.156 29.9909 126.01 29.9909C127.541 29.9909 128.672 29.2872 129.394 27.8835C130.116 26.4762 130.479 24.2824 130.479 21.2947V18.1226C130.479 15.8836 130.339 14.1263 130.067 12.8619ZM125.912 21.0387C125.912 22.4987 125.852 23.6427 125.731 24.4706C125.61 25.2984 125.409 25.8893 125.122 26.2354C124.839 26.5853 124.453 26.7584 123.973 26.7584C123.599 26.7584 123.255 26.6718 122.937 26.495C122.62 26.3219 122.363 26.0586 122.166 25.7123V14.337C122.317 13.7914 122.582 13.3474 122.956 12.9974C123.327 12.6475 123.735 12.4744 124.169 12.4744C124.631 12.4744 124.986 12.655 125.236 13.0125C125.489 13.3737 125.663 13.9758 125.761 14.8262C125.859 15.6766 125.908 16.8845 125.908 18.4536V21.0387H125.912Z" fill="#AFAFAF"/>
<path d="M136.909 22.194C136.909 23.4809 136.947 24.4442 137.022 25.0878C137.098 25.7311 137.257 26.1978 137.499 26.4951C137.741 26.7885 138.111 26.9353 138.614 26.9353C139.29 26.9353 139.759 26.6719 140.009 26.1489C140.262 25.6258 140.398 24.7529 140.421 23.5337L144.33 23.7631C144.352 23.9362 144.363 24.177 144.363 24.4818C144.363 26.3332 143.853 27.718 142.836 28.6324C141.819 29.5468 140.379 30.0058 138.519 30.0058C136.285 30.0058 134.72 29.3097 133.824 27.9137C132.925 26.5177 132.479 24.3615 132.479 21.4414V17.9418C132.479 14.9353 132.944 12.7378 133.873 11.353C134.803 9.96826 136.395 9.27588 138.652 9.27588C140.205 9.27588 141.4 9.5581 142.231 10.1263C143.063 10.6945 143.649 11.575 143.989 12.7754C144.33 13.9758 144.5 15.6315 144.5 17.7462V21.178H136.909V22.194ZM137.483 12.7491C137.253 13.0313 137.102 13.4941 137.022 14.1376C136.947 14.7811 136.909 15.7556 136.909 17.0652V18.5026H140.224V17.0652C140.224 15.7782 140.179 14.8036 140.092 14.1376C140.005 13.4715 139.846 13.0049 139.615 12.7303C139.385 12.4593 139.03 12.3201 138.549 12.3201C138.066 12.3239 137.71 12.4668 137.483 12.7491Z" fill="#AFAFAF"/>
</g>
<defs>
<clipPath id="clip0_42_7376">
<rect width="144" height="32" fill="white" transform="translate(0.5)"/>
</clipPath>
</defs>
</svg>
