<svg width="143" height="42" viewBox="0 0 143 42" fill="none" xmlns="http://www.w3.org/2000/svg">
<path d="M30.777 9.4631C30.5181 9.32245 30.266 9.16826 30.0217 9.00112C29.3112 8.50761 28.6599 7.9261 28.0817 7.26913C26.6349 5.52957 26.0945 3.76482 25.8955 2.52924H25.9035C25.7372 1.50365 25.8059 0.840088 25.8163 0.840088H19.2266V27.6163C19.2266 27.9758 19.2266 28.3311 19.2122 28.6822C19.2122 28.7259 19.2082 28.7662 19.2058 28.8132C19.2058 28.8325 19.2058 28.8527 19.2018 28.8728C19.2018 28.8779 19.2018 28.8829 19.2018 28.888C19.1323 29.8487 18.8393 30.7768 18.3484 31.5905C17.8574 32.4043 17.1837 33.0788 16.3865 33.5548C15.5556 34.0515 14.6159 34.312 13.66 34.3107C10.5897 34.3107 8.10137 31.68 8.10137 28.431C8.10137 25.1821 10.5897 22.5513 13.66 22.5513C14.2412 22.5508 14.8188 22.6469 15.3714 22.8361L15.3794 15.7855C13.7018 15.5578 11.9976 15.6979 10.3742 16.1969C8.75077 16.696 7.24339 17.5431 5.94715 18.685C4.81134 19.722 3.85646 20.9594 3.12548 22.3413C2.84731 22.8453 1.79778 24.8704 1.67068 28.1572C1.59075 30.0228 2.12391 31.9555 2.3781 32.7543V32.7711C2.53796 33.2415 3.15745 34.8466 4.16702 36.1998C4.9811 37.2852 5.9429 38.2388 7.02146 39.0296V39.0128L7.03745 39.0296C10.2276 41.3076 13.7647 41.1581 13.7647 41.1581C14.377 41.132 16.4281 41.1581 18.7574 39.9981C21.3408 38.7121 22.8116 36.7962 22.8116 36.7962C23.7512 35.6514 24.4984 34.3467 25.021 32.9382C25.6173 31.2911 25.8163 29.3155 25.8163 28.5259V14.3206C25.8963 14.371 26.961 15.111 26.961 15.111C26.961 15.111 28.4949 16.1441 30.8881 16.8169C32.6051 17.2957 34.9184 17.3965 34.9184 17.3965V10.5223C34.1079 10.6147 32.462 10.3459 30.777 9.4631Z" fill="#AFAFAF"/>
<path d="M44.3389 12.3347V16.9261H49.6743V34.4212H55.012V17.05H59.3552L60.8444 12.3349L44.3389 12.3347ZM88.0228 12.3347V16.9261H93.3583V34.4212H98.6959V17.05H103.039L104.528 12.3349L88.0228 12.3347ZM61.8381 14.9402C61.8381 13.5015 63.0029 12.3347 64.4421 12.3347C65.8825 12.3347 67.0487 13.5015 67.0487 14.9402C67.0487 16.3791 65.8832 17.5459 64.4421 17.5459C63.0029 17.5452 61.8381 16.3791 61.8381 14.9402ZM61.8381 19.4076H67.0487V34.4212H61.8381V19.4076ZM69.2829 12.3347V34.421H74.4956V28.7139L76.109 27.2236L81.1965 34.545H86.7807L79.4581 23.8742L86.0357 17.4212H79.7068L74.4956 22.6324V12.3347H69.2829ZM125.5 12.3347V34.421H130.713V28.7139L132.326 27.2236L137.415 34.545H143L135.677 23.8742L142.255 17.4212H135.926L130.713 22.6324V12.3347H125.5Z" fill="#AFAFAF"/>
<path d="M113.339 34.5451C118.342 34.5451 122.399 30.4895 122.399 25.4872C122.399 20.485 118.342 16.4287 113.339 16.4287H113.215C108.211 16.4287 104.155 20.4849 104.155 25.4872C104.155 30.4895 108.211 34.5451 113.215 34.5451H113.339ZM108.871 25.4872C108.871 23.0539 110.845 21.0829 113.278 21.0829C115.71 21.0829 117.683 23.0539 117.683 25.4872C117.683 27.9204 115.71 29.8926 113.278 29.8926C110.845 29.8922 108.871 27.9204 108.871 25.4872Z" fill="#AFAFAF"/>
</svg>
