<svg width="144" height="42" viewBox="0 0 144 42" fill="none" xmlns="http://www.w3.org/2000/svg">
<g clip-path="url(#clip0_42_7371)">
<path d="M7.4067 0.641038C4.46529 1.87598 1.2192 5.38085 0.199664 9.76783C-1.10112 15.3309 4.30123 17.6832 4.73482 16.907C5.25045 16.0013 3.76216 15.6955 3.45748 12.8023C3.07076 9.08567 4.80513 4.92216 6.9731 3.09916C7.37154 2.75808 7.35982 3.22853 7.35982 4.11063C7.35982 5.67489 7.27779 19.7062 7.27779 22.6347C7.27779 26.5983 7.11373 27.845 6.82076 29.0917C6.52779 30.3502 6.04732 31.197 6.4106 31.5145C6.80904 31.8791 8.54341 31.0088 9.53951 29.6092C10.7348 27.9273 11.1567 25.9161 11.227 23.7285C11.3208 21.094 11.309 16.907 11.3208 14.5194C11.3208 12.3318 11.3559 5.92188 11.2856 2.06416C11.2622 1.11149 8.64888 0.123539 7.4067 0.641038ZM112.067 19.1887C111.973 21.2469 111.516 22.8582 110.954 23.999C109.864 26.1984 107.59 26.8806 106.629 23.7168C106.102 21.9996 106.079 19.1181 106.454 16.707C106.84 14.2607 107.907 12.4024 109.688 12.5788C111.446 12.7434 112.254 15.0016 112.067 19.1887ZM82.5708 31.9732C82.5473 35.3958 82.0083 38.3949 80.8598 39.2653C79.2309 40.5002 77.0278 39.571 77.4848 37.0776C77.8833 34.8665 79.7934 32.6083 82.5708 29.8562C82.5708 29.8562 82.5825 30.4795 82.5708 31.9732ZM82.1254 19.1769C82.0317 21.0587 81.5395 22.9405 81.0122 23.999C79.9223 26.1984 77.6372 26.8806 76.6879 23.7168C76.0434 21.5527 76.1958 18.7535 76.5122 16.9893C76.9223 14.6958 77.9301 12.5788 79.7465 12.5788C81.5044 12.5788 82.3715 14.5194 82.1254 19.1769ZM65.0395 19.1416C64.934 21.1293 64.5473 22.7876 63.9262 23.999C62.8012 26.1866 60.5864 26.8806 59.602 23.7168C58.8989 21.4468 59.1333 18.3418 59.4262 16.66C59.8598 14.1666 60.9497 12.4141 62.6606 12.5788C64.4067 12.7552 65.2622 15.0016 65.0395 19.1416ZM143.344 21.4586C142.911 21.4586 142.723 21.9055 142.559 22.6465C141.997 25.234 141.411 25.822 140.649 25.822C139.805 25.822 139.043 24.5401 138.844 21.9761C138.692 19.9531 138.715 16.2483 138.915 12.5435C138.95 11.779 138.75 11.0381 136.711 10.2971C135.832 9.97953 134.567 9.50908 133.934 11.0381C132.153 15.3662 131.45 18.8005 131.286 20.1884C131.274 20.2589 131.192 20.2707 131.168 20.106C131.063 18.9887 130.829 16.954 130.805 12.6964C130.805 11.8613 130.629 11.1557 129.704 10.5794C129.106 10.203 127.313 9.5326 126.657 10.3324C126.094 10.9792 125.438 12.7199 124.77 14.7899C124.219 16.4718 123.832 17.6009 123.832 17.6009C123.832 17.6009 123.844 13.0728 123.844 11.3556C123.844 10.7087 123.399 10.497 123.27 10.45C122.672 10.2736 121.489 9.97954 120.985 9.97954C120.364 9.97954 120.211 10.3324 120.211 10.8381C120.211 10.9087 120.118 16.8011 120.118 20.9293C120.118 21.1058 120.118 21.3057 120.118 21.5174C119.778 23.411 118.665 25.9867 117.446 25.9867C116.239 25.9867 115.665 24.9047 115.665 20.0002C115.665 17.1304 115.747 15.8837 115.793 13.8137C115.817 12.6141 115.864 11.6967 115.864 11.4967C115.852 10.8616 114.75 10.5323 114.247 10.4147C113.731 10.2971 113.286 10.25 112.934 10.2736C112.442 10.2971 112.09 10.6264 112.09 11.0733C112.09 11.3086 112.09 11.7673 112.09 11.7673C111.457 10.7675 110.426 10.0619 109.747 9.86192C107.918 9.30914 105.997 9.80311 104.555 11.8261C103.407 13.4374 102.715 15.2604 102.446 17.8831C102.247 19.8002 102.317 21.7409 102.668 23.3875C102.247 25.2457 101.45 25.9985 100.582 25.9985C99.3168 25.9985 98.4028 23.9285 98.5083 20.3648C98.5786 18.0125 99.0473 16.3659 99.5629 13.9784C99.7856 12.9669 99.5981 12.4259 99.1645 11.9202C98.7543 11.4497 97.8872 11.2145 96.6333 11.5085C95.7426 11.7202 94.4653 11.9437 93.3051 12.1201C93.3051 12.1201 93.3755 11.8378 93.434 11.3438C93.7387 8.74459 90.9145 8.9563 90.0239 9.77959C89.4848 10.2736 89.1215 10.8616 88.9809 11.9084C88.7583 13.5785 90.1176 14.3665 90.1176 14.3665C89.6723 16.413 88.5825 19.0828 87.4575 21.0117C86.8598 22.0467 86.3911 22.8111 85.7934 23.6344C85.7934 23.3286 85.7934 23.0229 85.7934 22.7288C85.7817 18.4242 85.8403 15.0487 85.8637 13.8255C85.8872 12.6258 85.934 11.732 85.934 11.532C85.9223 11.0616 85.6528 10.8852 85.0903 10.6617C84.5864 10.4618 84.0005 10.3324 83.3911 10.2853C82.6176 10.1912 82.1489 10.6029 82.1606 11.0851C82.1606 11.1792 82.1606 11.7437 82.1606 11.7437C81.5278 10.744 80.4965 10.0383 79.8168 9.8384C77.9887 9.29738 76.0669 9.77959 74.6255 11.8025C73.477 13.4138 72.727 15.672 72.5161 17.8361C72.3169 19.8591 72.352 21.5644 72.6215 23.0111C72.3286 24.4577 71.4965 25.9749 70.5473 25.9749C69.3403 25.9749 68.6489 24.8929 68.6489 19.9884C68.6489 17.1187 68.7309 15.872 68.7778 13.802C68.8012 12.6023 68.8481 11.6849 68.8481 11.485C68.8364 10.8499 67.7348 10.5206 67.2309 10.4029C66.6918 10.2736 66.2348 10.2383 65.8833 10.2618C65.4145 10.2971 65.0864 10.7205 65.0864 11.0263V11.7555C64.4536 10.7558 63.4223 10.0501 62.7426 9.85016C60.9145 9.30914 59.0044 9.79135 57.5512 11.8143C56.602 13.1316 55.8403 14.59 55.4419 17.8243C55.3247 18.7535 55.2778 19.6356 55.2895 20.4471C54.9145 22.7641 53.2387 25.4457 51.8794 25.4457C51.0825 25.4457 50.3208 23.8932 50.3208 20.5765C50.3208 16.1542 50.5903 9.87368 50.6372 9.26209C50.6372 9.26209 52.3598 9.23857 52.6997 9.22681C53.5551 9.21505 54.3403 9.23857 55.4887 9.17976C56.0629 9.15624 56.6137 7.07449 56.0278 6.8275C55.7583 6.70989 53.8598 6.60403 53.0981 6.59227C52.4653 6.58051 50.6958 6.45114 50.6958 6.45114C50.6958 6.45114 50.8598 2.27586 50.895 1.84069C50.9301 1.47609 50.4497 1.28791 50.1801 1.1703C49.5239 0.888026 48.9262 0.758651 48.2231 0.605754C47.2505 0.405811 46.8169 0.605754 46.7348 1.41729C46.6059 2.66399 46.5356 6.31 46.5356 6.31C45.8208 6.31 43.395 6.16886 42.6919 6.16886C42.0356 6.16886 41.3208 9.01511 42.2348 9.05039C43.2895 9.08567 45.1176 9.12096 46.3247 9.168C46.3247 9.168 46.2661 15.5662 46.2661 17.5303C46.2661 17.742 46.2661 17.942 46.2661 18.1419C45.5981 21.635 43.2426 23.5168 43.2426 23.5168C43.7465 21.2116 42.7153 19.4709 40.852 18.0008C40.1723 17.4597 38.8129 16.4365 37.3012 15.3074C37.3012 15.3074 38.1801 14.4371 38.9536 12.6964C39.5044 11.4615 39.5278 10.0501 38.1801 9.73255C35.9536 9.21505 34.102 10.8616 33.5629 12.6141C33.1411 13.9784 33.3637 14.9899 34.1958 16.0366C34.2544 16.1072 34.3247 16.1895 34.395 16.2718C33.8911 17.248 33.1997 18.5535 32.6137 19.5768C30.9848 22.3995 29.7544 24.6342 28.8286 24.6342C28.0903 24.6342 28.0903 22.3642 28.0903 20.2354C28.0903 18.4006 28.2192 15.6485 28.3364 12.8023C28.3715 11.8613 27.9028 11.3203 27.1176 10.8381C26.6372 10.5441 25.6176 9.95601 25.0317 9.95601C24.1411 9.95601 21.5981 10.0736 19.184 17.0834C18.8794 17.9655 18.2817 19.5768 18.2817 19.5768L18.3286 11.1557C18.3286 10.9557 18.2231 10.7675 17.9887 10.6382C17.5786 10.4147 16.5004 9.96777 15.5278 9.96777C15.0708 9.96777 14.8364 10.1795 14.8364 10.6146L14.7309 23.7873C14.7309 24.7871 14.7544 25.9514 14.8598 26.4689C14.9536 26.9747 15.1176 27.3981 15.3169 27.6451C15.5161 27.892 15.7387 28.0802 16.1137 28.1626C16.4653 28.2331 18.3754 28.4801 18.4809 27.7509C18.5981 26.8688 18.6098 25.9161 19.6059 22.3642C21.1645 16.8364 23.2153 14.143 24.1645 13.1904C24.3286 13.0257 24.5278 13.014 24.5161 13.2845C24.4692 14.4959 24.3286 17.5185 24.2348 20.0943C23.977 26.9747 25.2192 28.2566 27.0004 28.2566C28.3598 28.2566 30.2817 26.8923 32.3442 23.458C33.6333 21.3175 34.8754 19.2122 35.7778 17.695C36.3989 18.2713 37.102 18.8946 37.8051 19.565C39.434 21.1175 39.9731 22.5877 39.6098 23.9873C39.3403 25.0576 38.3208 26.1514 36.5044 25.0811C35.977 24.7635 35.7426 24.5283 35.2153 24.1755C34.934 23.9873 34.4887 23.9285 34.2309 24.1284C33.5512 24.6459 33.1645 25.3046 32.9419 26.1043C32.7309 26.8923 33.5161 27.3157 34.3247 27.6803C35.0278 27.9979 36.5395 28.2802 37.5004 28.3155C41.2504 28.4448 44.2622 26.4924 46.3598 21.4821C46.7348 25.8103 48.3286 28.2684 51.1059 28.2684C52.9575 28.2684 54.8208 25.8691 55.6294 23.5051C55.8637 24.4695 56.2036 25.3046 56.6489 26.0102C58.7817 29.4093 62.9301 28.6801 65.0044 25.7868C65.6489 24.8929 65.7426 24.5753 65.7426 24.5753C66.0473 27.2922 68.227 28.2449 69.4809 28.2449C70.8872 28.2449 72.3286 27.5862 73.3364 25.2928C73.4536 25.5398 73.5825 25.775 73.7231 25.9985C75.8559 29.3975 80.0043 28.6565 82.0786 25.775C82.1723 25.6456 82.2661 25.5163 82.3364 25.4104L82.395 27.1981C82.395 27.1981 81.2114 28.2919 80.4848 28.9623C77.2739 31.9144 74.8364 34.1608 74.6606 36.7601C74.4262 40.0885 77.1215 41.3235 79.1489 41.4881C81.3051 41.6646 83.1567 40.4649 84.2934 38.783C85.2895 37.3129 85.9458 34.1373 85.8989 30.997C85.8755 29.7386 85.852 28.1508 85.8286 26.4336C86.9536 25.1164 88.2192 23.458 89.3911 21.5174C90.6684 19.4004 92.0278 16.5541 92.7309 14.343C92.7309 14.343 93.9145 14.3547 95.1801 14.2724C95.5903 14.2489 95.7075 14.3312 95.6254 14.6253C95.5317 14.9899 94.0317 20.8235 95.4028 24.7165C96.3403 27.3745 98.4731 28.2331 99.727 28.2331C101.204 28.2331 102.61 27.1158 103.372 25.4574C103.465 25.6456 103.559 25.822 103.665 25.9867C105.797 29.3857 109.922 28.6448 112.02 25.7632C112.489 25.1164 112.758 24.5518 112.758 24.5518C113.204 27.3745 115.395 28.2449 116.637 28.2449C117.938 28.2449 119.18 27.7039 120.176 25.3281C120.223 26.3748 120.282 27.2334 120.387 27.5039C120.446 27.6686 120.821 27.8803 121.09 27.9744C122.286 28.4213 123.493 28.2096 123.95 28.1155C124.266 28.0567 124.5 27.798 124.536 27.1511C124.618 25.4457 124.571 22.5877 125.086 20.4706C125.954 16.907 126.75 15.5191 127.137 14.837C127.348 14.4488 127.594 14.39 127.606 14.7899C127.629 15.6132 127.665 18.0243 127.993 21.2587C128.239 23.6462 128.567 25.0458 128.813 25.4927C129.528 26.763 130.418 26.8218 131.145 26.8218C131.602 26.8218 132.563 26.6924 132.481 25.8809C132.434 25.481 132.516 23.0464 133.36 19.5297C133.911 17.2363 134.836 15.1663 135.176 14.4136C135.305 14.1313 135.352 14.3547 135.352 14.4018C135.282 15.9778 135.129 21.141 135.762 23.9638C136.629 27.7862 139.149 28.2214 140.016 28.2214C141.879 28.2214 143.415 26.7982 143.93 23.0346C144.082 22.1643 143.895 21.4586 143.344 21.4586Z" fill="#AFAFAF"/>
</g>
<defs>
<clipPath id="clip0_42_7371">
<rect width="144" height="41" fill="white" transform="translate(0 0.5)"/>
</clipPath>
</defs>
</svg>
