<svg width="145" height="48" viewBox="0 0 145 48" fill="none" xmlns="http://www.w3.org/2000/svg">
<g clip-path="url(#clip0_42_7390)">
<path d="M22.2237 21.475H13.3816V24.0001H22.2237V34.1066H8.329L3.27637 29.0539V2.52637H13.3816V11.3685H22.2237V21.475Z" fill="#F6F6F6"/>
<path d="M60.1184 34.1065H29.8026L24.75 29.0539V11.3684H34.8553V24H37.3816V11.3684H47.4868V24H50.0132V11.3684H60.1184V34.1065Z" fill="#F6F6F6"/>
<path d="M72.7498 11.3684H62.6445V34.1052H72.7498V11.3684Z" fill="#F6F6F6"/>
<path d="M72.7498 2.52637H62.6445V8.84216H72.7498V2.52637Z" fill="#F6F6F6"/>
<path d="M94.2237 21.475H85.3816V24.0001H94.2237V34.1066H80.329L75.2764 29.0539V2.52637H85.3816V11.3685H94.2237V21.475Z" fill="#F6F6F6"/>
<path d="M116.961 21.4749H106.855V24H116.961V34.1065H101.803L96.75 29.0539V16.4223L101.803 11.3684H116.961V21.4749Z" fill="#F6F6F6"/>
<path d="M142.224 34.1066H132.118V21.475H129.592V34.1066H119.487V2.52637H129.592V11.3685H137.171L142.224 16.4224V34.1066Z" fill="#F6F6F6"/>
<path d="M138.434 8.8421H132.118V0H118.25L111.873 8.8421H100.539L96.75 12.6316V8.8421H87.9079V0H60.1184V8.8421H21.0237L14.6447 0H0.75V30.3158L18.4342 48H36.1184V42.9474L41.1711 48H75.2763V42.9474L80.3289 48H96.75V42.9474L101.803 48H133.382L144.75 36.6316V15.1579L138.434 8.8421ZM22.2237 21.4737H13.3816V24H22.2237V34.1053H8.32895L3.27632 29.0526V2.52632H13.3816V11.3684H22.2237V21.4737ZM60.1184 34.1053H29.8026L24.75 29.0526V11.3684H34.8553V24H37.3816V11.3684H47.4868V24H50.0132V11.3684H60.1184V34.1053ZM72.75 34.1053H62.6447V11.3684H72.75V34.1053ZM72.75 8.8421H62.6447V2.52632H72.75V8.8421ZM94.2237 21.4737H85.3816V24H94.2237V34.1053H80.3289L75.2763 29.0526V2.52632H85.3816V11.3684H94.2237V21.4737ZM116.961 21.4737H106.855V24H116.961V34.1053H101.803L96.75 29.0526V16.4211L101.803 11.3684H116.961V21.4737ZM142.224 34.1053H132.118V21.4737H129.592V34.1053H119.487V2.52632H129.592V11.3684H137.171L142.224 16.4211V34.1053Z" fill="#AFAFAF"/>
</g>
<defs>
<clipPath id="clip0_42_7390">
<rect width="144" height="48" fill="white" transform="translate(0.75)"/>
</clipPath>
</defs>
</svg>
