<svg width="24" height="24" viewBox="0 0 24 24" fill="none" xmlns="http://www.w3.org/2000/svg">
<path d="M12 2C17.5234 2 22 6.47656 22 12C22 17.5234 17.5234 22 12 22C6.47656 22 2 17.5234 2 12C2 6.47656 6.47656 2 12 2Z" fill="#0052FF"/>
<path d="M12.0146 15.5C10.0783 15.5 8.50828 13.9347 8.50828 12C8.50828 10.0653 10.0783 8.5 12.0146 8.5C13.7502 8.5 15.1917 9.76389 15.4683 11.4167H19C18.702 7.82333 15.6885 5 12.0127 5C8.14011 5 5 8.13444 5 12C5 15.8656 8.14011 19 12.0127 19C15.6885 19 18.702 16.1767 19 12.5833H15.4664C15.1878 14.2361 13.7502 15.5 12.0146 15.5Z" fill="white"/>
</svg>
