<svg width="32" height="32" viewBox="0 0 32 32" fill="none" xmlns="http://www.w3.org/2000/svg">
<rect width="32" height="32" rx="16" fill="black"/>
<path d="M22.4806 12.007C22.3485 12.1208 22.2115 12.2291 22.0698 12.3316L21.8513 12.4896L21.8633 12.7589C21.8692 12.892 21.8722 13.0284 21.8722 13.1617C21.8722 17.2833 18.7361 22.0005 13.0334 22.0005H13.0332C11.9982 22.001 10.9766 21.8193 10.0134 21.4686C11.1596 21.2685 12.2455 20.7877 13.1704 20.0612L14.2716 19.1962L12.8716 19.1681C12.2909 19.1564 11.7283 18.9637 11.2624 18.6169C11.0091 18.4284 10.7912 18.1994 10.6165 17.9408C10.8838 17.9266 11.1496 17.8838 11.4095 17.8128L11.3762 16.8403C10.7461 16.7135 10.1795 16.3724 9.77251 15.875C9.5245 15.5719 9.34512 15.2222 9.24291 14.8498C9.52657 14.9268 9.81922 14.9708 10.1151 14.9802L11.8602 15.0356L10.4089 14.0649C9.82032 13.6712 9.40371 13.0681 9.24377 12.3783C9.13952 11.9287 9.1494 11.4642 9.26728 11.0256C10.0301 11.8188 10.9223 12.4795 11.9073 12.9786C13.1351 13.6006 14.48 13.9577 15.8546 14.0267L16.516 14.0599L16.3668 13.4147C16.2289 12.818 16.2913 12.1924 16.5445 11.6347C16.7977 11.0771 17.2276 10.6183 17.7677 10.3294C18.3077 10.0406 18.9279 9.93766 19.5323 10.0366C20.1368 10.1356 20.6918 10.4309 21.1115 10.8769L21.3012 11.0784L21.5726 11.0247C21.7924 10.9813 22.0096 10.9275 22.2236 10.8637C22.1098 10.9596 21.988 11.0467 21.8589 11.1241L22.1736 12.0496C22.2764 12.0377 22.3787 12.0235 22.4806 12.007ZM22.4806 12.007C22.6456 11.8649 22.8029 11.7142 22.9518 11.5557C22.7739 11.7147 22.5803 11.8576 22.373 11.9818L22.1159 11.553L22.0582 11.0563C22.3435 11.0232 22.6257 10.9695 22.9025 10.896M22.8579 10.0986C22.4153 10.2938 21.9518 10.44 21.4756 10.5342L22.8579 10.0986Z" fill="white" stroke="white"/>
</svg>
