<svg width="28" height="28" viewBox="0 0 28 28" fill="none" xmlns="http://www.w3.org/2000/svg">
<g clip-path="url(#clip0_6_25800)">
<path fill-rule="evenodd" clip-rule="evenodd" d="M14 0C6.26801 0 0 6.26801 0 14C0 21.732 6.26801 28 14 28C21.732 28 28 21.732 28 14C28 6.26801 21.732 0 14 0ZM8.76029 9.53812C8.76029 12.1291 11.1322 14.3187 13.9859 14.3187L14.0031 14.3196C15.38 14.3234 16.7022 13.8218 17.679 12.9252C18.6558 12.0286 19.2074 10.8103 19.2125 9.53812C19.2125 6.85662 16.9386 4.66699 13.9869 4.66699C11.1322 4.66699 8.76029 6.85755 8.76029 9.53812ZM11.8585 9.53905C11.8585 8.42091 12.7777 7.48289 13.9859 7.48289C15.2446 7.48289 16.1163 8.41997 16.1153 9.53905C16.1153 10.6553 15.2446 11.5047 13.9869 11.5047C12.7777 11.5047 11.8585 10.6553 11.8585 9.53905ZM19.0196 20.9333L16.0678 18.2976C17.1811 17.9849 18.2458 17.5826 19.164 17.0459C19.8418 16.6875 20.0368 15.7953 19.6004 15.1242C19.165 14.454 18.2468 14.2758 17.472 14.7228C16.4228 15.3144 15.2175 15.6274 13.9884 15.6274C12.7593 15.6274 11.554 15.3144 10.5048 14.7228C9.73005 14.2758 8.85928 14.454 8.37541 15.1242C7.98852 15.7953 8.13297 16.6885 8.85928 17.0459C9.8306 17.5794 10.87 17.9993 11.9534 18.2957L8.95323 20.9324C8.37238 21.5129 8.37238 22.3623 8.95323 22.899C9.29265 23.1659 9.67954 23.3003 10.0179 23.3003C10.4543 23.3003 10.8422 23.1668 11.1322 22.899L13.9869 20.2174L16.9386 22.899C17.4225 23.4786 18.3912 23.4786 19.0196 22.899C19.6004 22.3623 19.6004 21.5129 19.0196 20.9333Z" fill="black"/>
</g>
<defs>
<clipPath id="clip0_6_25800">
<rect width="28" height="28" fill="white"/>
</clipPath>
</defs>
</svg>
