<svg width="25" height="24" viewBox="0 0 25 24" fill="none" xmlns="http://www.w3.org/2000/svg">
<g clip-path="url(#clip0_4001_165)">
<path d="M24.2666 9.6498H23.3V9.6H12.5V14.4H19.2818C18.2924 17.1942 15.6338 19.2 12.5 19.2C8.5238 19.2 5.3 15.9762 5.3 12C5.3 8.0238 8.5238 4.8 12.5 4.8C14.3354 4.8 16.0052 5.4924 17.2766 6.6234L20.6708 3.2292C18.5276 1.2318 15.6608 0 12.5 0C5.873 0 0.5 5.373 0.5 12C0.5 18.627 5.873 24 12.5 24C19.127 24 24.5 18.627 24.5 12C24.5 11.1954 24.4172 10.41 24.2666 9.6498Z" fill="#FFC107"/>
<path d="M2 6.20367L5.93479 9C6.99948 6.44565 9.57797 4.64217 12.5954 4.64217C14.4271 4.64217 16.0936 5.3118 17.3625 6.40561L20.75 3.12302C18.611 1.1913 15.7499 0 12.5954 0C7.99531 0 4.00602 2.51663 2 6.20367Z" fill="#FF3D00"/>
<path d="M12.6953 24C15.7985 24 18.6181 22.7912 20.75 20.8254L17.0317 17.6227C15.785 18.5878 14.2616 19.1098 12.6953 19.1085C9.57052 19.1085 6.91726 17.0803 5.91771 14.25L2 17.3225C3.98829 21.2828 8.02614 24 12.6953 24Z" fill="#4CAF50"/>
<path d="M24.2666 9.79959H23.3V9.75H12.5V14.5301H19.2818C18.8085 15.8544 17.956 17.0116 16.8296 17.8588L16.8314 17.8576L20.5454 20.9873C20.2826 21.2251 24.5 18.1151 24.5 12.14C24.5 11.3388 24.4172 10.5566 24.2666 9.79959Z" fill="#1976D2"/>
</g>
<defs>
<clipPath id="clip0_4001_165">
<rect width="24" height="24" fill="white" transform="translate(0.5)"/>
</clipPath>
</defs>
</svg>
