<svg width="24" height="24" viewBox="0 0 24 24" fill="none" xmlns="http://www.w3.org/2000/svg">
<path d="M7.5 7.68707C7.5 7.68707 7.5675 6.1402 9.07219 4.89989C9.96562 4.16348 11.0386 3.9502 12 3.93707C12.878 3.92629 13.6627 4.07489 14.1319 4.30364C14.9339 4.69645 16.5 5.6527 16.5 7.68707C16.5 9.82785 15.1322 10.7982 13.5773 11.8674C12.0225 12.9366 11.625 13.9852 11.625 15.1871" stroke="#1F1F1F" stroke-width="1.875" stroke-miterlimit="10" stroke-linecap="round"/>
<path d="M11.625 20.25C12.4534 20.25 13.125 19.5784 13.125 18.75C13.125 17.9216 12.4534 17.25 11.625 17.25C10.7966 17.25 10.125 17.9216 10.125 18.75C10.125 19.5784 10.7966 20.25 11.625 20.25Z" fill="#1F1F1F"/>
</svg>
