<svg width="104" height="48" viewBox="0 0 104 48" fill="none" xmlns="http://www.w3.org/2000/svg">
<path d="M95.7372 0.0736313C95.6943 0.105211 95.6621 5.38942 95.6621 11.8105V23.4736H99.8446H104.027V11.7368V-5.14984e-05H99.9197C97.6569 -5.14984e-05 95.7694 0.0315266 95.7372 0.0736313Z" fill="black"/>
<path d="M8.68677 0.179111C4.32194 0.600164 1.64084 2.16858 0.611292 4.91595C0.139417 6.17911 0.0536221 6.6949 0.0536221 8.47385C0.0536221 9.90543 0.0965197 10.2844 0.300284 10.9791C0.589843 11.9896 1.02954 12.8423 1.59794 13.5581L2.03764 14.1054H3.32457C4.51498 14.1054 4.6115 14.1265 4.76164 14.337C4.84743 14.4633 4.90106 14.6002 4.86888 14.6423C4.84743 14.6844 4.16107 14.7265 3.34602 14.7265C2.54169 14.7265 1.45852 14.7265 0.943748 14.737H0V19.116V23.4844L7.96824 23.4423C14.6924 23.4002 16.0866 23.3686 16.9446 23.2212C20.3871 22.6423 22.532 21.2738 23.5294 19.0212C24.2801 17.3265 24.3873 14.7475 23.7653 12.9475C23.4007 11.8949 22.9073 11.1265 22.0387 10.2423L21.2772 9.47385H17.3199C13.6415 9.48437 13.3733 9.4949 13.6736 9.6528C14.6067 10.1265 15.1321 10.9581 15.1965 12.0528C15.2394 12.7054 15.2072 12.8528 14.9391 13.3686C14.5745 14.0738 14.0275 14.4528 13.1589 14.6423C12.4296 14.7896 11.4001 14.6528 10.7351 14.316C9.06213 13.4738 8.83692 11.0423 10.3062 9.74753C11.2392 8.92648 11.0461 8.94753 17.9312 8.94753H24.0227V4.52648V0.105427L16.5478 0.12648C12.4296 0.12648 8.89054 0.158058 8.68677 0.179111Z" fill="black"/>
<path d="M33.6635 4.22088C31.4221 4.43141 29.052 5.57878 27.4862 7.19983C26.2851 8.43141 25.5344 9.70509 25.0196 11.3367C24.7622 12.1683 24.7301 12.4314 24.7301 13.9472C24.7193 15.2735 24.7622 15.7998 24.9231 16.4209C26.0277 20.684 29.7705 23.7261 34.2212 23.9683C37.5994 24.1577 40.9776 22.5577 42.9616 19.8419C44.8276 17.2946 45.3317 13.8735 44.2914 10.863C43.2297 7.81035 40.7416 5.48404 37.5994 4.5893C37.106 4.44193 36.3875 4.30509 36.0121 4.26299C35.6475 4.23141 35.1649 4.1893 34.9612 4.16825C34.7574 4.1472 34.1675 4.17878 33.6635 4.22088ZM35.7226 12.6735C36.7307 13.3472 36.6985 14.7683 35.669 15.5156C35.2507 15.8209 34.2426 15.8209 33.8136 15.5156C32.7841 14.7683 32.7627 13.3367 33.7815 12.6525C34.2855 12.3156 35.1971 12.3261 35.7226 12.6735Z" fill="black"/>
<path d="M84.2184 4.221C79.7892 4.61047 76.1322 8.01047 75.4888 12.3368C75.3386 13.3894 75.4244 15.3789 75.6603 16.2631C75.9177 17.1894 76.7113 18.7578 77.3119 19.5684C79.2101 22.0736 82.1379 23.4736 85.441 23.4736H86.3311V19.4736V15.4736H85.559C84.2613 15.4736 83.5213 14.8736 83.5213 13.8526C83.5213 12.4421 85.0657 11.6526 86.181 12.4842C86.8781 12.9894 86.8674 12.9263 86.8674 18.4631V23.4736H90.9426H95.0286L94.9857 17.8105C94.9536 12.5052 94.9428 12.1157 94.7284 11.421C94.1707 9.50521 93.495 8.38942 92.0794 6.98942C89.9453 4.89468 87.2856 3.95784 84.2184 4.221Z" fill="black"/>
<path d="M53.7512 4.32603C50.491 4.89445 47.5096 7.21025 46.2119 10.2102C45.3754 12.1471 45.1931 14.5471 45.7293 16.5787C46.909 21.0313 50.8985 24.105 55.4993 24.105C60.7435 24.105 64.9797 20.2418 65.5802 14.9155L65.6446 14.3155H61.4728H57.2903L57.0436 14.8102C56.679 15.5366 56.1964 15.8208 55.4349 15.7681C54.4161 15.6945 53.8048 15.0629 53.7941 14.0945C53.7941 13.5471 54.0622 13.0313 54.5126 12.6945C54.7486 12.526 54.9738 12.4734 55.4993 12.4734C56.3251 12.4734 56.6682 12.6839 57.0436 13.3997L57.2903 13.8945H61.4728H65.6446L65.5802 13.2839C65.2799 10.7997 64.3791 8.88393 62.7061 7.18919C61.462 5.92603 59.789 4.96814 58.0731 4.51551C57.0972 4.26288 54.7057 4.15761 53.7512 4.32603Z" fill="black"/>
<path d="M66.2773 14.1052V23.4736H70.4599H74.6424V14.1052V4.73679H70.4599H66.2773V14.1052Z" fill="black"/>
<path d="M55.4453 36.8947V48H59.6278H63.8104V44.3158V40.6316H66.2233H68.6363V44.3158V48H72.8189H77.0014V36.8947V25.7895H72.8189H68.6363V29.5263V33.2632H66.2233H63.8104V29.5263V25.7895H59.6278H55.4453V36.8947Z" fill="black"/>
<path d="M86.2246 32.6526C86.2246 39.6631 86.289 41.3473 86.6 42.5368C87.1255 44.5578 88.4767 46.221 90.3106 47.0842C92.0265 47.8947 92.241 47.9263 96.2305 47.9684L99.7374 48.021V44.3263V40.6315H97.067C95.587 40.6315 94.3644 40.5999 94.3323 40.5473C94.2894 40.4842 94.2357 38.2947 94.2572 37.7578C94.2679 37.5894 94.4717 37.5789 97.0026 37.5789H99.7374V33.8947V30.2105H96.9812H94.2143L94.2357 27.9999L94.2465 25.7894H90.2355H86.2246V32.6526Z" fill="black"/>
<path d="M77.7196 30.2842C77.6767 30.3158 77.6445 34.3263 77.6445 39.1789V48L81.6447 47.9789L85.6342 47.9474V39.1053V30.2632L81.7091 30.2316C79.5535 30.2211 77.7625 30.2421 77.7196 30.2842Z" fill="black"/>
</svg>
