<svg width="24" height="24" viewBox="0 0 24 24" fill="none" xmlns="http://www.w3.org/2000/svg">
<path d="M17.8042 3.54962C16.8958 2.49644 15.2538 2.04492 13.1532 2.04492H7.05671C6.62694 2.04492 6.26174 2.36286 6.19446 2.79396L3.656 19.1706C3.60554 19.4936 3.85135 19.7861 4.17314 19.7861H7.93686L8.88213 13.6873L8.85283 13.8783C8.92012 13.4472 9.2826 13.1292 9.71183 13.1292H11.5004C15.0139 13.1292 17.7651 11.6775 18.5687 7.47806C18.5926 7.35386 18.6132 7.23298 18.6311 7.11486C18.5297 7.06021 18.5297 7.06021 18.6311 7.11486C18.8704 5.56269 18.6295 4.5062 17.8042 3.54962Z" fill="#27346A"/>
<path d="M10.3223 6.5557C10.4227 6.50713 10.5345 6.48008 10.6517 6.48008H15.4312C15.9972 6.48008 16.5252 6.51761 17.0076 6.59655C17.1459 6.61918 17.28 6.64512 17.4102 6.67493C17.5404 6.70418 17.6669 6.7373 17.7895 6.77373C17.8508 6.79195 17.9111 6.81072 17.9702 6.83059C18.2073 6.91118 18.4282 7.00501 18.6311 7.11486C18.8704 5.56214 18.6295 4.5062 17.8042 3.54962C16.8952 2.49644 15.2538 2.04492 13.1532 2.04492H7.05616C6.62694 2.04492 6.26174 2.36286 6.19446 2.79396L3.656 19.1701C3.60554 19.4936 3.85135 19.7856 4.17259 19.7856H7.93686L9.89795 7.13528C9.9381 6.87585 10.102 6.66334 10.3223 6.5557Z" fill="#27346A"/>
<path d="M18.5688 7.47795C17.7651 11.6769 15.014 13.1291 11.5004 13.1291H9.71133C9.2821 13.1291 8.91962 13.4471 8.85288 13.8782L7.67699 21.4613C7.63303 21.7439 7.84792 22 8.129 22H11.3018C11.6773 22 11.9969 21.7218 12.0555 21.3448L12.0864 21.1803L12.6844 17.3253L12.723 17.1122C12.7816 16.7352 13.1012 16.457 13.4767 16.457H13.9515C17.025 16.457 19.4316 15.1869 20.1348 11.5135C20.4284 9.97842 20.2765 8.69672 19.4999 7.79644C19.2644 7.52376 18.972 7.29856 18.6312 7.11475C18.6127 7.23342 18.5927 7.35375 18.5688 7.47795Z" fill="#2790C3"/>
<path d="M17.7901 6.77363C17.6674 6.7372 17.541 6.70408 17.4108 6.67483C17.2805 6.64557 17.146 6.61963 17.0081 6.597C16.5252 6.51752 15.9977 6.47998 15.4312 6.47998H10.6522C10.5345 6.47998 10.4227 6.50703 10.3229 6.55615C10.102 6.66379 9.93867 6.87575 9.89851 7.13573L8.8827 13.6872L8.85339 13.8782C8.92014 13.4471 9.28262 13.1291 9.71184 13.1291H11.5009C15.0145 13.1291 17.7657 11.6774 18.5693 7.47796C18.5932 7.35376 18.6133 7.23343 18.6317 7.11476C18.4282 7.00547 18.2079 6.91108 17.9708 6.83104C17.9116 6.81117 17.8514 6.79185 17.7901 6.77363Z" fill="#1F264F"/>
</svg>
