<svg width="48" height="48" viewBox="0 0 48 48" fill="none" xmlns="http://www.w3.org/2000/svg">
<path d="M42 24C42 14.0625 33.9375 6 24 6C14.0625 6 6 14.0625 6 24C6 33.9375 14.0625 42 24 42C33.9375 42 42 33.9375 42 24Z" stroke="#717BBC" stroke-width="2" stroke-miterlimit="10"/>
<path d="M37.0097 23.1282L26.28 16.6464C26.1262 16.5542 25.9507 16.5047 25.7714 16.5027C25.5921 16.5008 25.4156 16.5466 25.2599 16.6355C25.1041 16.7243 24.9748 16.853 24.8852 17.0083C24.7956 17.1636 24.749 17.3399 24.75 17.5192V22.5179L15.03 16.6464C14.8762 16.5542 14.7007 16.5047 14.5214 16.5027C14.3421 16.5008 14.1656 16.5466 14.0099 16.6355C13.8541 16.7243 13.7248 16.853 13.6352 17.0083C13.5456 17.1636 13.499 17.3399 13.5 17.5192V30.4811C13.499 30.6603 13.5456 30.8367 13.6352 30.992C13.7248 31.1473 13.8541 31.2759 14.0099 31.3648C14.1656 31.4536 14.3421 31.4994 14.5214 31.4975C14.7007 31.4956 14.8762 31.446 15.03 31.3539L24.75 25.4823V30.4811C24.749 30.6603 24.7956 30.8367 24.8852 30.992C24.9748 31.1473 25.1041 31.2759 25.2599 31.3648C25.4156 31.4536 25.5921 31.4994 25.7714 31.4975C25.9507 31.4956 26.1262 31.446 26.28 31.3539L37.0097 24.872C37.1593 24.7809 37.2829 24.6528 37.3686 24.5001C37.4544 24.3474 37.4995 24.1752 37.4995 24.0001C37.4995 23.825 37.4544 23.6528 37.3686 23.5001C37.2829 23.3474 37.1593 23.2194 37.0097 23.1282Z" fill="#717BBC"/>
</svg>
