<svg width="48" height="48" viewBox="0 0 48 48" fill="none" xmlns="http://www.w3.org/2000/svg">
<g clip-path="url(#clip0_4001_3542)">
<path d="M24.3675 24.6478L20.2875 14.0409C20.2263 13.8818 20.1182 13.7449 19.9777 13.6483C19.8371 13.5518 19.6705 13.5001 19.5 13.5001C19.3295 13.5001 19.1629 13.5518 19.0223 13.6483C18.8818 13.7449 18.7737 13.8818 18.7125 14.0409L14.6325 24.6478C14.5901 24.758 14.5251 24.8581 14.4416 24.9416C14.3581 25.0251 14.258 25.0901 14.1478 25.1325L3.54094 29.2125C3.38176 29.2737 3.24488 29.3818 3.14833 29.5223C3.05178 29.6629 3.0001 29.8295 3.0001 30C3.0001 30.1705 3.05178 30.3371 3.14833 30.4777C3.24488 30.6182 3.38176 30.7263 3.54094 30.7875L14.1478 34.8675C14.258 34.9099 14.3581 34.9749 14.4416 35.0584C14.5251 35.1419 14.5901 35.242 14.6325 35.3522L18.7125 45.9591C18.7737 46.1182 18.8818 46.2551 19.0223 46.3517C19.1629 46.4482 19.3295 46.4999 19.5 46.4999C19.6705 46.4999 19.8371 46.4482 19.9777 46.3517C20.1182 46.2551 20.2263 46.1182 20.2875 45.9591L24.3675 35.3522C24.4099 35.242 24.4749 35.1419 24.5584 35.0584C24.6419 34.9749 24.742 34.9099 24.8522 34.8675L35.4591 30.7875C35.6182 30.7263 35.7551 30.6182 35.8517 30.4777C35.9482 30.3371 35.9999 30.1705 35.9999 30C35.9999 29.8295 35.9482 29.6629 35.8517 29.5223C35.7551 29.3818 35.6182 29.2737 35.4591 29.2125L24.8522 25.1325C24.742 25.0901 24.6419 25.0251 24.5584 24.9416C24.4749 24.8581 24.4099 24.758 24.3675 24.6478ZM10.125 6.375L8.25 1.5L6.375 6.375L1.5 8.25L6.375 10.125L8.25 15L10.125 10.125L15 8.25L10.125 6.375ZM40.0003 10.9997L37.5 4.5L34.9997 10.9997L28.5 13.5L34.9997 16.0003L37.5 22.5L40.0003 16.0003L46.5 13.5L40.0003 10.9997Z" stroke="#717BBC" stroke-width="2" stroke-linecap="round" stroke-linejoin="round"/>
</g>
<defs>
<clipPath id="clip0_4001_3542">
<rect width="48" height="48" fill="white"/>
</clipPath>
</defs>
</svg>
