<svg width="659" height="338" viewBox="0 0 659 338" fill="none" xmlns="http://www.w3.org/2000/svg">
<path d="M135.615 142.639C135.015 146.839 134.415 151.339 132.815 155.239C132.415 156.139 131.615 159.239 130.515 159.739C129.415 160.239 127.615 157.939 126.815 157.139C124.315 155.039 121.615 153.339 119.115 151.239C116.015 148.539 112.415 145.939 108.915 143.839C108.615 143.639 108.215 143.439 107.815 143.239C106.515 142.539 105.015 142.039 103.615 141.839C101.815 141.639 100.015 142.139 98.6152 144.039C96.3152 147.039 97.5152 153.339 98.0152 156.739C98.0152 157.039 98.1152 157.339 98.1152 157.539C98.7152 161.839 99.4152 166.439 98.3152 170.739C97.7152 172.839 96.5152 174.739 94.8152 176.039C93.9152 176.839 92.9152 177.439 91.7152 177.839C90.6152 178.239 89.6152 178.439 88.6152 178.539C86.4152 178.739 84.4152 178.239 82.4152 177.239C81.4152 176.739 80.3152 176.039 79.3152 175.339C78.8152 174.939 78.3152 174.639 77.9152 174.239C76.0152 172.639 74.4152 170.639 73.0152 168.539C72.5152 167.839 72.0152 167.039 71.6152 166.339C70.6152 164.639 69.7152 162.839 68.7152 161.139C68.0152 159.839 67.3152 158.439 66.7152 157.139C65.8152 155.139 64.9152 153.139 64.1152 151.039C63.2152 148.739 62.4152 146.439 61.6152 144.139C60.4152 140.339 59.4152 136.439 58.5152 132.539C58.2152 131.539 58.0152 130.439 57.8152 129.439C61.1152 130.739 64.4152 131.739 67.9152 132.539C72.0152 133.539 77.3152 133.739 75.4152 127.939C74.3152 124.639 70.9152 122.139 68.2152 120.139C64.2152 117.239 60.0152 114.439 55.6152 112.339C55.1152 112.139 54.6152 111.839 54.1152 111.639C53.9152 110.639 53.8152 109.539 53.7152 108.539C53.2152 104.139 53.0152 99.8392 52.9152 95.5392C55.8152 96.4392 58.7152 97.9393 60.1152 99.1393C62.3152 101.039 65.6152 104.939 68.7152 104.239C73.1152 103.139 70.9152 99.1393 69.2152 96.6393C66.8152 93.2393 63.2152 91.4393 60.0152 89.1393C58.8152 88.3393 57.7152 87.5392 56.5152 86.8392C54.3152 85.4392 53.0152 83.1392 53.0152 80.5392C53.1152 74.9392 53.2152 67.7392 49.8152 62.8392C49.4152 62.3392 49.0152 61.8392 48.6152 61.3392C46.9152 59.6392 45.1152 58.3393 43.1152 57.2393C44.3152 57.3393 45.4152 57.5393 46.6152 57.6393C56.6152 59.2393 66.6152 63.2393 75.4152 67.9393C75.4152 67.9393 75.5152 67.9392 75.5152 68.0392C77.8152 69.2392 79.1152 71.7392 79.0152 74.3392C79.0152 75.1392 78.9152 75.8393 79.0152 76.6393C79.0152 79.9393 78.3152 85.5392 80.8152 88.0392C83.7152 90.9392 86.7152 85.2392 87.5152 82.8392C88.2152 80.7392 87.9152 78.6393 87.8152 76.4393C91.5152 79.1393 95.5152 81.5393 99.1152 84.4393C102.915 87.4393 106.615 90.6393 110.315 93.7393C109.615 97.6393 108.115 101.439 107.015 105.139C105.215 111.239 101.415 117.939 103.715 124.439C104.915 127.839 106.715 129.739 110.415 128.439C113.815 127.239 115.415 124.539 116.615 121.339C118.315 116.639 118.215 112.039 118.415 107.139C118.515 105.439 118.415 103.739 118.315 102.039C119.915 103.139 121.415 104.339 122.915 105.539C126.315 108.239 131.115 110.239 133.515 113.839C135.215 116.439 135.815 120.639 136.215 123.639C137.215 130.139 136.515 136.139 135.615 142.639Z" fill="#717BBC"/>
<path d="M117.115 165.439C113.915 160.539 108.515 167.039 107.215 170.339C104.715 176.739 104.315 191.239 105.015 195.239C104.115 194.139 103.115 193.139 102.115 192.139C100.215 190.239 98.4149 188.339 96.5149 186.439C98.8149 183.039 104.015 176.039 102.915 163.639C102.715 161.539 102.315 158.839 100.215 157.739C97.3149 156.339 96.7149 159.639 96.4149 161.839C95.9149 165.439 94.9149 178.139 94.1149 183.939C90.4149 180.139 86.7149 176.339 82.9149 172.639C86.0149 165.339 89.8149 156.539 87.3149 148.439C85.6149 143.139 81.2149 146.939 80.0149 150.139C77.8149 155.939 78.2149 162.939 79.6149 169.239C77.8149 167.439 76.1149 165.739 74.3149 163.939C74.0149 163.639 73.7149 163.339 73.3149 163.039C75.1149 159.639 77.3149 156.439 77.9149 152.439C78.5149 148.539 77.1149 144.739 74.9149 141.439C73.9149 140.039 72.9149 138.139 71.1149 137.739C68.5149 137.139 69.3149 140.039 69.6149 141.839C70.2149 145.639 70.7149 149.539 70.9149 153.339C71.0149 155.439 71.2149 157.439 71.5149 159.439C71.6149 159.939 71.6149 160.639 71.6149 161.439C69.1149 158.939 66.4149 156.539 63.8149 154.239C64.7149 147.639 65.8149 139.539 61.9149 133.639C59.4149 129.739 56.6149 133.739 56.3149 136.639C55.8149 141.139 57.2149 146.039 59.3149 150.339C58.1149 149.339 56.9149 148.339 55.7149 147.339C54.3149 139.639 52.8149 130.039 46.3149 124.739C42.2149 121.439 40.6149 126.839 41.3149 130.139C42.0149 133.339 43.5149 136.439 45.5149 139.339C44.9149 138.939 44.4149 138.539 43.8149 138.139C42.5149 137.139 41.1149 136.239 39.7149 135.339C39.4149 128.639 39.1149 120.439 34.2149 115.239C31.0149 111.839 29.0149 116.239 29.2149 119.239C29.5149 123.839 31.9149 128.539 34.7149 132.539C32.5149 131.339 30.3149 130.239 28.0149 129.139C27.0149 123.739 25.6149 117.239 21.1149 113.639C18.1149 111.239 17.0149 115.139 17.6149 117.439C18.4149 120.839 20.5149 124.039 23.0149 126.739C20.5149 125.539 18.0149 124.439 15.5149 123.239C14.2149 121.139 12.7149 119.039 11.4149 117.139C9.8149 114.939 7.7149 112.839 4.8149 112.739C1.0149 112.639 0.0149008 115.239 1.8149 118.439C2.6149 119.839 3.8149 120.939 5.2149 121.739C3.7149 121.839 2.3149 122.239 1.3149 123.039C0.314901 123.839 -0.0850985 124.639 0.0149015 125.339C0.114901 126.639 1.5149 127.839 3.2149 128.339C6.1149 129.239 9.3149 128.439 12.3149 128.239C13.2149 128.139 14.2149 128.239 15.1149 128.239C16.4149 128.339 17.7149 128.539 18.9149 128.539C20.5149 129.339 22.2149 130.039 23.8149 130.839C19.4149 130.039 14.4149 130.039 10.5149 131.839C8.3149 132.839 5.9149 136.039 9.6149 136.939C15.5149 138.439 21.8149 135.139 26.9149 132.639L27.0149 132.339C27.7149 132.739 28.5149 133.039 29.2149 133.439C29.2149 133.439 29.3149 133.439 29.3149 133.539C33.1149 135.439 36.8149 137.539 40.4149 139.939C38.9149 139.739 37.3149 139.739 35.8149 139.939C33.1149 140.339 29.4149 143.039 33.2149 145.239C38.0149 148.139 44.0149 147.639 49.5149 146.739C53.9149 150.239 58.3149 153.939 62.5149 157.739C57.7149 155.439 52.1149 153.839 47.1149 154.539C44.2149 154.939 40.3149 157.839 44.3149 160.239C50.7149 164.039 59.2149 162.339 66.0149 161.139L66.1149 160.939C68.1149 162.739 70.0149 164.539 71.9149 166.439C72.8149 167.339 73.8149 168.239 74.7149 169.139C68.1149 165.839 60.5149 163.339 53.8149 164.039C50.0149 164.439 44.9149 168.039 50.3149 171.439C59.0149 176.839 70.3149 175.039 79.3149 173.839C81.9149 176.439 84.5149 179.139 87.0149 181.739C80.2149 180.739 66.4149 177.839 61.8149 177.339C59.7149 177.039 54.6149 177.039 55.4149 180.639C55.9149 182.639 59.5149 184.639 61.3149 185.339C65.3149 186.739 80.7149 187.039 90.9149 185.939C92.7149 187.839 94.6149 189.639 96.5149 191.539C97.2149 192.239 97.9149 192.939 98.5149 193.639C88.6149 191.339 69.1149 188.039 64.1149 189.039C61.6149 189.539 57.6149 191.039 57.9149 194.239C58.2149 197.539 63.1149 197.839 65.5149 198.639C71.1149 200.439 89.7149 199.339 93.1149 198.639C95.7149 198.139 98.4149 196.939 100.915 196.339L101.015 196.439C102.415 198.039 103.815 199.739 105.115 201.339C104.915 201.339 104.815 201.339 104.615 201.339C96.3149 202.039 78.6149 202.539 73.0149 203.139C70.4149 203.439 64.3149 204.839 66.3149 208.839C67.4149 211.039 72.4149 212.439 74.7149 212.739C79.6149 213.339 96.0149 209.839 107.815 205.939C108.015 205.839 108.215 205.839 108.415 205.739C112.515 211.339 116.315 217.139 120.615 222.839C121.915 224.539 124.715 222.739 123.415 220.939C117.215 212.639 112.115 203.939 105.415 196.139C113.715 187.039 118.515 167.639 117.115 165.439Z" fill="#4E8879"/>
<path d="M154.115 236.739C153.415 237.839 150.315 236.839 149.015 236.639C145.415 236.239 141.815 236.339 138.315 235.939C133.815 235.439 128.915 235.239 124.415 235.439C123.915 235.439 123.515 235.539 123.015 235.539C121.415 235.739 119.715 236.139 118.315 236.839C116.515 237.839 115.215 239.439 115.015 241.939C114.815 246.139 119.815 251.139 122.415 254.039C125.915 257.839 129.715 261.839 131.415 266.739C132.615 270.239 132.015 274.239 129.715 277.339C126.315 281.939 122.115 282.839 116.715 282.739C109.915 282.639 103.915 279.239 98.1148 276.139C92.3148 273.039 86.3148 268.839 81.1148 264.839C76.7148 261.439 72.5148 257.439 68.4148 253.639C72.2148 252.739 75.9148 251.639 79.7148 250.239C84.0148 248.639 89.1149 245.539 83.8148 241.339C80.8148 238.939 76.1148 238.839 72.3148 238.639C66.8148 238.439 61.2148 238.439 55.8148 239.239C55.2148 239.339 54.6148 239.439 54.0148 239.439C53.2148 238.639 52.4148 237.739 51.7148 236.839C48.6148 233.139 45.7148 229.239 43.0148 225.339C46.2148 224.339 49.8148 223.939 51.9148 224.239C55.1148 224.639 60.6148 226.239 63.0148 223.539C66.4148 219.739 61.8148 217.439 58.7148 216.239C54.4148 214.539 50.0148 215.139 45.5148 215.039C43.9148 214.939 42.4148 214.939 40.9148 215.039C38.0148 215.139 35.3148 213.839 33.8148 211.439C30.5148 206.239 26.0148 199.539 19.9148 197.039C19.2148 196.739 18.6148 196.539 17.9148 196.439C15.3148 195.839 12.8148 195.839 10.2148 196.039C11.3148 195.439 12.5148 194.839 13.7148 194.239C23.9148 189.539 35.6148 187.039 46.6148 185.839H46.7148C49.6148 185.539 52.4148 187.039 53.9148 189.439C54.3148 190.139 54.8148 190.839 55.3148 191.639C57.3148 194.639 60.2148 200.239 64.1148 201.039C66.0148 201.439 66.9148 200.439 67.4148 198.839C68.0148 196.739 67.5148 193.639 67.1148 192.039C66.8148 190.839 66.2148 189.839 65.5148 188.839C64.8148 187.839 64.1148 186.939 63.4148 186.039C64.0148 186.039 64.7148 186.039 65.3148 186.139C69.8148 186.239 74.2149 186.039 78.8148 186.439C79.6149 186.539 80.3148 186.539 81.1148 186.639C85.2148 187.039 89.3148 187.439 93.4148 187.939C93.9148 188.039 94.4148 188.039 94.9148 188.139C95.2148 188.839 95.5148 189.539 95.7148 190.239C96.1148 191.139 96.4148 192.139 96.7148 193.139C97.2148 194.639 97.6148 196.039 98.0148 197.539C98.3148 198.639 98.6148 199.739 99.0148 200.739C99.1148 201.139 99.2149 201.539 99.3148 201.839C99.9148 203.939 100.415 206.139 101.015 208.339C102.315 213.039 104.015 217.539 107.915 220.539C111.115 222.939 114.015 223.539 116.515 220.139C117.015 219.439 117.415 218.739 117.715 217.939C118.415 216.339 118.515 214.539 118.315 212.839C118.215 211.839 118.015 210.839 117.715 209.739C116.315 204.339 113.415 200.139 110.615 195.539C110.015 194.539 109.415 193.639 108.815 192.739C108.315 192.139 107.915 191.439 107.415 190.839C108.215 190.839 109.015 190.939 109.815 190.939C111.115 191.039 112.415 191.039 113.815 191.139C114.715 191.239 115.615 191.239 116.615 191.239C117.715 191.239 118.815 191.239 120.015 191.139C123.115 191.039 126.115 191.139 128.815 192.239C132.015 193.539 135.115 197.039 137.415 199.639C142.215 205.139 145.315 211.139 148.515 217.739C150.615 222.039 152.715 226.539 153.715 231.139C153.715 232.339 154.815 235.639 154.115 236.739Z" fill="#8D90FF"/>
<path d="M236.815 134.039C237.415 138.239 238.015 142.739 239.615 146.639C240.015 147.539 240.815 150.639 241.915 151.139C243.015 151.639 244.815 149.339 245.615 148.539C248.115 146.439 250.815 144.739 253.315 142.639C256.415 139.939 260.015 137.339 263.515 135.239C263.815 135.039 264.215 134.839 264.615 134.639C265.915 133.939 267.415 133.439 268.815 133.239C270.615 133.039 272.415 133.539 273.815 135.439C276.115 138.439 274.915 144.739 274.415 148.139C274.415 148.439 274.315 148.739 274.315 148.939C273.715 153.239 273.015 157.839 274.115 162.139C274.715 164.239 275.915 166.139 277.615 167.439C278.515 168.239 279.515 168.839 280.715 169.239C281.815 169.639 282.815 169.839 283.815 169.939C286.015 170.139 288.015 169.639 290.015 168.639C291.015 168.139 292.115 167.439 293.115 166.739C293.615 166.339 294.115 166.039 294.515 165.639C296.415 164.039 298.015 162.039 299.415 159.939C299.915 159.239 300.415 158.439 300.815 157.739C301.815 156.039 302.715 154.239 303.715 152.539C304.415 151.239 305.115 149.839 305.715 148.539C306.615 146.539 307.515 144.539 308.315 142.439C309.215 140.139 310.015 137.839 310.815 135.539C312.015 131.739 313.015 127.839 313.915 123.939C314.215 122.939 314.415 121.839 314.615 120.839C311.315 122.139 308.015 123.139 304.515 123.939C300.415 124.939 295.115 125.139 297.015 119.339C298.115 116.039 301.515 113.539 304.215 111.539C308.215 108.639 312.415 105.839 316.815 103.739C317.315 103.539 317.815 103.239 318.315 103.039C318.515 102.039 318.615 100.939 318.715 99.9392C319.215 95.5392 319.415 91.2392 319.515 86.9392C316.615 87.8392 313.715 89.3392 312.315 90.5392C310.115 92.4392 306.815 96.3392 303.715 95.6392C299.315 94.5392 301.515 90.5392 303.215 88.0392C305.615 84.6392 309.215 82.8392 312.415 80.5392C313.615 79.7392 314.715 78.9392 315.915 78.2392C318.115 76.8392 319.415 74.5392 319.415 71.9392C319.315 66.3392 319.215 59.1392 322.615 54.2392C323.015 53.7392 323.415 53.2392 323.815 52.7392C325.515 51.0392 327.315 49.7392 329.315 48.6392C328.115 48.7392 327.015 48.9392 325.815 49.0392C315.815 50.6392 305.815 54.6392 297.015 59.3392C297.015 59.3392 296.915 59.3392 296.915 59.4392C294.615 60.6392 293.315 63.1392 293.415 65.7392C293.415 66.5392 293.515 67.2392 293.415 68.0392C293.415 71.3392 294.115 76.9392 291.615 79.4392C288.715 82.3392 285.715 76.6392 284.915 74.2392C284.215 72.1392 284.515 70.0392 284.615 67.8392C280.915 70.5392 276.915 72.9392 273.315 75.8392C269.515 78.8392 265.815 82.0392 262.115 85.1392C262.815 89.0392 264.315 92.8392 265.415 96.5392C267.215 102.639 271.015 109.339 268.715 115.839C267.515 119.239 265.715 121.139 262.015 119.839C258.615 118.639 257.015 115.939 255.815 112.739C254.115 108.039 254.215 103.439 254.015 98.5392C253.915 96.8392 254.015 95.1392 254.115 93.4392C252.515 94.5392 251.015 95.7392 249.515 96.9392C246.115 99.6392 241.315 101.639 238.915 105.239C237.215 107.839 236.615 112.039 236.215 115.039C235.215 121.539 235.915 127.539 236.815 134.039Z" fill="#717BBC"/>
<path d="M255.415 156.839C258.615 151.939 264.015 158.439 265.315 161.739C267.815 168.139 268.215 182.639 267.515 186.639C268.415 185.539 269.415 184.539 270.415 183.539C272.315 181.639 274.115 179.739 276.015 177.839C273.715 174.439 268.515 167.439 269.615 155.039C269.815 152.939 270.215 150.239 272.315 149.139C275.215 147.739 275.815 151.039 276.115 153.239C276.615 156.839 277.615 169.539 278.415 175.339C282.115 171.539 285.815 167.739 289.615 164.039C286.515 156.739 282.715 147.939 285.215 139.839C286.915 134.539 291.315 138.339 292.515 141.539C294.715 147.339 294.315 154.339 292.915 160.639C294.715 158.839 296.415 157.139 298.215 155.339C298.515 155.039 298.815 154.739 299.215 154.439C297.415 151.039 295.215 147.839 294.615 143.839C294.015 139.939 295.415 136.139 297.615 132.839C298.615 131.439 299.615 129.539 301.415 129.139C304.015 128.539 303.215 131.439 302.915 133.239C302.315 137.039 301.815 140.939 301.615 144.739C301.515 146.839 301.315 148.839 301.015 150.839C300.915 151.339 300.915 152.039 300.915 152.839C303.415 150.339 306.115 147.939 308.715 145.639C307.815 139.039 306.715 130.939 310.615 125.039C313.115 121.139 315.915 125.139 316.215 128.039C316.715 132.539 315.315 137.439 313.215 141.739C314.415 140.739 315.615 139.739 316.815 138.739C318.215 131.039 319.715 121.439 326.215 116.139C330.315 112.839 331.915 118.239 331.215 121.539C330.515 124.739 329.015 127.839 327.015 130.739C327.615 130.339 328.115 129.939 328.715 129.539C330.015 128.539 331.415 127.639 332.815 126.739C333.115 120.039 333.415 111.839 338.315 106.639C341.515 103.239 343.515 107.639 343.315 110.639C343.015 115.239 340.615 119.939 337.815 123.939C340.015 122.739 342.215 121.639 344.515 120.539C345.515 115.139 346.915 108.639 351.415 105.039C354.415 102.639 355.515 106.539 354.915 108.839C354.115 112.239 352.015 115.439 349.515 118.139C352.015 116.939 354.515 115.839 357.015 114.639C358.315 112.539 359.815 110.439 361.115 108.539C362.715 106.439 364.815 104.239 367.715 104.139C371.515 104.039 372.515 106.639 370.715 109.839C369.915 111.239 368.715 112.339 367.315 113.139C368.815 113.239 370.215 113.639 371.215 114.439C372.215 115.239 372.615 116.039 372.515 116.739C372.415 118.039 371.015 119.239 369.315 119.739C366.415 120.639 363.215 119.839 360.215 119.639C359.315 119.539 358.315 119.639 357.415 119.639C356.115 119.739 354.815 119.939 353.615 119.939C352.015 120.739 350.315 121.439 348.715 122.239C353.115 121.439 358.115 121.439 362.015 123.239C364.215 124.239 366.615 127.439 362.915 128.339C357.015 129.839 350.715 126.539 345.615 124.039L345.515 123.739C344.815 124.139 344.015 124.439 343.315 124.839C343.315 124.839 343.215 124.839 343.215 124.939C339.415 126.839 335.715 128.939 332.115 131.339C333.615 131.139 335.215 131.139 336.715 131.339C339.415 131.739 343.115 134.439 339.315 136.639C334.515 139.539 328.515 139.039 323.015 138.139C318.615 141.639 314.215 145.339 310.015 149.139C314.815 146.839 320.415 145.239 325.415 145.939C328.315 146.339 332.215 149.239 328.215 151.639C321.815 155.439 313.315 153.739 306.515 152.539L306.415 152.339C304.415 154.139 302.515 155.939 300.615 157.839C299.715 158.739 298.715 159.639 297.815 160.539C304.415 157.239 312.015 154.739 318.715 155.439C322.515 155.839 327.615 159.439 322.215 162.839C313.515 168.239 302.215 166.439 293.215 165.239C290.615 167.839 288.015 170.539 285.515 173.139C292.315 172.139 306.115 169.239 310.715 168.739C312.815 168.439 317.915 168.439 317.115 172.039C316.615 174.039 313.015 176.039 311.215 176.739C307.215 178.139 291.815 178.439 281.615 177.339C279.815 179.239 277.915 181.039 276.015 182.939C275.315 183.639 274.615 184.339 274.015 185.039C283.915 182.739 303.415 179.439 308.415 180.439C310.915 180.939 314.915 182.439 314.615 185.639C314.315 188.939 309.415 189.239 307.015 190.039C301.415 191.839 282.815 190.739 279.415 190.039C276.815 189.539 274.115 188.339 271.615 187.739L271.515 187.839C270.115 189.439 268.715 191.139 267.415 192.739C267.615 192.739 267.715 192.739 267.915 192.739C276.215 193.439 293.915 193.939 299.515 194.539C302.115 194.839 308.215 196.239 306.215 200.239C305.115 202.439 300.115 203.839 297.815 204.139C292.915 204.739 276.515 201.239 264.715 197.339C264.515 197.239 264.315 197.239 264.115 197.139C260.015 202.739 256.215 208.539 251.915 214.239C250.615 215.939 247.815 214.139 249.115 212.339C255.315 204.039 260.415 195.339 267.115 187.539C258.715 178.439 253.915 159.039 255.415 156.839Z" fill="#4E8879"/>
<path d="M218.315 228.139C219.015 229.239 222.115 228.239 223.415 228.039C227.015 227.639 230.615 227.739 234.115 227.339C238.615 226.839 243.515 226.639 248.015 226.839C248.515 226.839 248.915 226.939 249.415 226.939C251.015 227.139 252.715 227.539 254.115 228.239C255.915 229.239 257.215 230.839 257.415 233.339C257.615 237.539 252.615 242.539 250.015 245.439C246.515 249.239 242.715 253.239 241.015 258.139C239.815 261.639 240.415 265.639 242.715 268.739C246.115 273.339 250.315 274.239 255.715 274.139C262.515 274.039 268.515 270.639 274.315 267.539C280.115 264.439 286.115 260.239 291.315 256.239C295.715 252.839 299.915 248.839 304.015 245.039C300.215 244.139 296.515 243.039 292.715 241.639C288.415 240.039 283.315 236.939 288.615 232.739C291.615 230.339 296.315 230.239 300.115 230.039C305.615 229.839 311.215 229.839 316.615 230.639C317.215 230.739 317.815 230.839 318.415 230.839C319.215 230.039 320.015 229.139 320.715 228.239C323.815 224.539 326.715 220.639 329.415 216.739C326.215 215.739 322.615 215.339 320.515 215.639C317.315 216.039 311.815 217.639 309.415 214.939C306.015 211.139 310.615 208.839 313.715 207.639C318.015 205.939 322.415 206.539 326.915 206.439C328.515 206.339 330.015 206.339 331.515 206.439C334.415 206.539 337.115 205.239 338.615 202.839C341.915 197.639 346.415 190.939 352.515 188.439C353.215 188.139 353.815 187.939 354.515 187.839C357.115 187.239 359.615 187.239 362.215 187.439C361.115 186.839 359.915 186.239 358.715 185.639C348.515 180.939 336.815 178.439 325.815 177.239H325.715C322.815 176.939 320.015 178.439 318.515 180.839C318.115 181.539 317.615 182.239 317.115 183.039C315.115 186.039 312.215 191.639 308.315 192.439C306.415 192.839 305.515 191.839 305.015 190.239C304.415 188.139 304.915 185.039 305.315 183.439C305.615 182.239 306.215 181.239 306.915 180.239C307.615 179.239 308.315 178.339 309.015 177.439C308.415 177.439 307.715 177.439 307.115 177.539C302.615 177.639 298.215 177.439 293.615 177.839C292.815 177.939 292.115 177.939 291.315 178.039C287.215 178.439 283.115 178.839 279.015 179.339C278.515 179.439 278.015 179.439 277.515 179.539C277.215 180.239 276.915 180.939 276.715 181.639C276.315 182.539 276.015 183.539 275.715 184.539C275.215 186.039 274.815 187.439 274.415 188.939C274.115 190.039 273.815 191.139 273.415 192.139C273.315 192.539 273.215 192.939 273.115 193.239C272.515 195.339 272.015 197.539 271.415 199.739C270.115 204.439 268.415 208.939 264.515 211.939C261.315 214.339 258.415 214.939 255.915 211.539C255.415 210.839 255.015 210.139 254.715 209.339C254.015 207.739 253.915 205.939 254.115 204.239C254.215 203.239 254.415 202.239 254.715 201.139C256.115 195.739 259.015 191.539 261.815 186.939C262.415 185.939 263.015 185.039 263.615 184.139C264.115 183.539 264.515 182.839 265.015 182.239C264.215 182.239 263.415 182.339 262.615 182.339C261.315 182.439 260.015 182.439 258.615 182.539C257.715 182.639 256.815 182.639 255.815 182.639C254.715 182.639 253.615 182.639 252.415 182.539C249.315 182.439 246.315 182.539 243.615 183.639C240.415 184.939 237.315 188.439 235.015 191.039C230.215 196.539 227.115 202.539 223.915 209.139C221.815 213.439 219.715 217.939 218.715 222.539C218.715 223.739 217.615 227.039 218.315 228.139Z" fill="#8D90FF"/>
<path d="M238.715 337.239C289.581 337.239 330.815 334.016 330.815 330.039C330.815 326.063 289.581 322.839 238.715 322.839C187.85 322.839 146.615 326.063 146.615 330.039C146.615 334.016 187.85 337.239 238.715 337.239Z" fill="#E6E6E6"/>
<path d="M274.215 331.939H146.115C137.315 331.939 129.115 324.339 128.015 314.939L93.8146 42.1392C92.6146 32.7392 98.8146 25.1392 107.715 25.1392H234.415C246.015 25.1392 256.715 35.1392 258.315 47.5392L291.415 310.939C292.715 322.539 285.115 331.939 274.215 331.939Z" fill="#473251"/>
<path d="M282.915 331.939H157.215C149.715 331.939 142.815 325.839 141.815 318.439L104.515 38.6392C103.515 31.1392 108.815 25.1392 116.215 25.1392H241.915C249.415 25.1392 256.315 31.2392 257.315 38.6392L294.615 318.339C295.715 325.839 290.415 331.939 282.915 331.939Z" fill="#341D3F"/>
<path d="M284.015 316.039H151.915L145.515 268.039L139.915 225.839L130.415 154.639L115.215 41.0391H247.315L256.415 109.339L261.315 146.239L271.615 223.439L284.015 316.039Z" fill="#D6E5FF"/>
<path d="M256.415 109.339L139.915 225.839L130.415 154.639L238.415 41.0391H247.315L256.415 109.339Z" fill="#99ACE3"/>
<path d="M271.615 223.439L179.115 316.039H151.915L145.515 268.039L261.315 146.239L271.615 223.439Z" fill="#99ACE3"/>
<path d="M250.515 36.1391C235.715 35.5391 221.015 35.5391 206.215 36.0391C205.615 36.0391 205.615 36.9391 206.215 36.9391C221.015 36.4391 235.715 36.4391 250.515 37.0391C251.015 37.0391 251.015 36.1391 250.515 36.1391Z" fill="#341D3F"/>
<path d="M252.914 44.6393C252.814 44.0393 252.014 44.3393 252.114 44.8393C261.814 107.939 269.914 171.239 276.414 234.739C276.514 235.339 277.314 235.339 277.314 234.739C270.714 171.239 262.614 107.839 252.914 44.6393Z" fill="#341D3F"/>
<path d="M130.415 83.5391C130.315 83.0391 129.515 82.9391 129.515 83.5391C134.915 138.139 141.615 192.639 149.615 246.939C149.715 247.539 150.515 247.239 150.415 246.739C142.615 192.539 135.915 138.139 130.415 83.5391Z" fill="#341D3F"/>
<path d="M291.215 148.839C290.815 146.839 289.715 145.039 289.315 143.039C288.515 138.739 289.115 134.239 289.115 129.839C289.115 125.039 289.815 120.439 290.115 115.639C290.515 109.039 290.615 102.039 290.215 95.3393C289.715 88.6393 289.215 81.2393 285.515 75.4393C280.215 67.0393 266.815 66.6393 261.715 77.1393C256.515 87.9393 259.715 99.1393 260.015 110.739C260.215 118.939 260.215 127.239 259.315 135.439C258.815 139.639 257.715 143.639 257.015 147.839C255.915 155.039 285.515 150.639 289.715 150.239C291.015 150.139 291.415 150.239 291.215 148.839Z" fill="#8D90FF"/>
<path d="M267.815 74.3393C263.515 80.6393 264.215 88.9393 264.315 96.2393C264.315 105.839 264.715 115.539 265.415 125.139C265.415 125.639 266.215 125.639 266.115 125.139C265.515 116.539 265.115 107.839 265.015 99.2393C264.915 91.3393 263.815 81.6393 268.415 74.7393C268.715 74.3393 268.015 73.9393 267.815 74.3393Z" fill="#341D3F"/>
<path d="M270.015 100.039C270.015 99.5393 269.215 99.5393 269.315 100.039C269.815 115.039 269.215 130.039 267.515 145.039C267.415 145.539 268.215 145.539 268.215 145.039C269.815 130.139 270.415 115.039 270.015 100.039Z" fill="#341D3F"/>
<path d="M262.715 116.239C262.715 115.739 261.915 115.739 262.015 116.239C262.815 125.839 262.615 135.339 261.515 144.839C261.415 145.339 262.215 145.339 262.215 144.839C263.315 135.339 263.515 125.739 262.715 116.239Z" fill="#341D3F"/>
<path d="M274.916 74.4392C274.916 73.9392 274.116 73.9392 274.216 74.4392C275.316 95.9392 275.416 117.539 274.516 139.139C274.516 139.639 275.216 139.639 275.216 139.139C276.116 117.539 276.016 95.9392 274.916 74.4392Z" fill="#341D3F"/>
<path d="M278.415 72.7392C278.015 72.4392 277.615 73.1392 278.015 73.3392C286.515 79.8392 286.515 90.9392 285.515 100.639C285.515 101.139 286.215 101.139 286.215 100.639C287.315 90.6392 287.115 79.4392 278.415 72.7392Z" fill="#341D3F"/>
<path d="M281.115 86.2393C281.115 85.7393 280.315 85.7393 280.415 86.2393C282.415 105.939 276.215 125.339 277.715 145.039C277.715 145.539 278.515 145.539 278.415 145.039C276.915 125.339 283.115 105.939 281.115 86.2393Z" fill="#341D3F"/>
<path d="M286.015 144.639C282.815 133.339 283.815 121.639 284.915 110.039C284.915 109.539 284.215 109.539 284.215 110.039C283.115 121.639 282.115 133.439 285.315 144.839C285.415 145.339 286.115 145.139 286.015 144.639Z" fill="#341D3F"/>
<path d="M299.715 182.539C299.715 181.339 299.615 180.139 299.515 178.939C299.515 178.139 299.415 177.239 299.315 176.439L298.915 170.139C298.815 168.039 298.615 165.839 298.515 163.739L291.515 163.039L272.915 161.239C272.515 162.639 271.915 163.939 271.115 165.139C270.915 165.439 270.715 165.739 270.515 166.039C269.015 168.239 266.815 171.539 265.415 173.739C264.515 175.139 263.815 176.139 263.815 176.139C263.815 176.139 278.715 179.239 280.815 199.139C280.915 198.539 280.915 198.239 280.915 198.239C280.915 198.239 281.415 198.839 281.015 199.639C278.815 203.639 278.515 213.539 279.415 223.639C279.915 228.739 280.715 233.839 281.815 238.239C283.015 243.139 284.515 247.139 286.115 249.339C286.415 249.739 286.415 250.239 286.015 250.539C282.415 254.039 280.915 262.839 280.515 272.639C279.815 288.739 281.915 307.839 282.315 311.339H288.815C288.615 309.339 288.715 307.339 289.015 305.439L296.515 263.439C297.815 256.039 298.615 248.639 298.715 241.139C298.715 240.639 298.715 240.139 298.715 239.639L299.015 210.339C299.915 201.239 300.115 191.839 299.715 182.539Z" fill="#96BDFF"/>
<path d="M282.915 196.539C281.615 206.239 281.015 215.439 279.615 223.639C278.815 228.639 277.715 233.139 276.015 237.239C273.515 243.339 269.715 248.239 263.515 251.539C259.315 253.939 255.115 256.339 251.115 258.739C246.215 261.739 241.415 264.739 237.015 267.839C228.215 273.939 220.815 280.339 215.915 287.339C214.915 284.439 213.715 281.139 212.715 278.339C215.215 277.239 217.415 275.439 219.215 273.339C223.515 267.839 227.615 263.239 231.315 259.339C238.315 251.939 244.315 247.239 249.015 244.139C257.215 238.739 261.615 238.439 261.615 238.439C261.515 237.239 261.415 235.939 261.315 234.639C259.415 209.039 257.215 182.939 265.615 173.739C270.315 175.039 273.815 177.539 276.315 180.239C280.315 184.639 283.715 190.639 282.915 196.539Z" fill="#96BDFF"/>
<path d="M340.215 184.639L336.515 183.339L338.815 185.239C340.115 186.339 341.315 187.539 342.515 188.839L344.315 190.839C344.715 191.539 343.915 192.339 343.115 191.839L337.915 187.239L340.915 190.339L343.915 193.839C344.515 194.739 343.415 195.439 342.815 194.839L340.115 192.039L336.515 188.839L338.615 191.839C339.015 192.539 339.415 193.239 339.715 193.939L340.615 196.539C340.515 197.839 339.815 197.639 339.015 197.139L338.115 194.939C337.815 194.139 337.315 193.339 336.715 192.639L334.315 189.939L336.415 196.339C336.515 197.339 335.015 197.539 334.815 196.639C334.115 194.039 332.115 190.539 332.115 190.539C329.315 189.539 326.915 187.839 325.115 185.539L322.715 182.439L321.615 181.539L326.215 176.339C327.115 177.439 327.915 178.539 328.715 179.639L330.115 179.739C332.215 179.839 334.315 180.339 336.215 181.239L340.715 183.439C341.515 183.739 341.315 184.839 340.215 184.639Z" fill="#E38C89"/>
<path d="M205.915 194.539L209.215 192.439L207.415 194.839C206.415 196.239 205.515 197.639 204.715 199.139L203.515 201.439C203.315 202.239 204.215 202.839 204.915 202.139L208.915 196.439L206.715 200.139L204.615 204.239C204.215 205.239 205.515 205.639 205.915 205.039L207.915 201.639L210.715 197.639L209.415 201.039C209.115 201.739 208.915 202.539 208.815 203.339L208.615 206.039C209.015 207.239 209.615 206.939 210.315 206.339L210.615 203.939C210.715 203.039 211.015 202.139 211.415 201.439L213.115 198.239L212.515 204.939C212.615 205.939 214.115 205.739 214.115 204.839C214.115 202.139 215.315 198.239 215.315 198.239C217.815 196.639 219.715 194.439 220.915 191.739L222.615 188.139L223.515 186.939L217.815 182.939C217.215 184.139 216.715 185.439 216.115 186.739L214.715 187.139C212.615 187.739 210.715 188.739 209.115 190.039L205.215 193.139C204.515 193.939 204.915 194.939 205.915 194.539Z" fill="#EBADAB"/>
<path d="M288.215 112.339L304.015 144.239C305.515 147.239 307.315 150.139 309.315 152.839L328.915 179.039C328.515 179.739 322.315 181.939 322.315 181.939L300.215 159.639C297.215 156.439 294.515 152.939 292.315 149.139L275.115 119.439C272.915 115.639 274.415 110.739 278.515 108.839C282.115 107.239 286.415 108.739 288.215 112.339Z" fill="#D1634B"/>
<path d="M210.915 305.739C211.115 307.339 209.015 308.039 208.115 306.739L206.315 304.039C203.815 300.339 202.715 295.939 202.715 291.439C202.715 289.239 202.515 287.339 202.215 286.039C202.215 285.939 202.115 285.839 202.115 285.739C202.115 285.639 202.115 285.639 202.115 285.639C201.815 284.439 201.915 283.139 202.515 282.039C202.615 281.939 202.615 281.839 202.715 281.739C203.615 280.439 204.915 279.939 205.815 279.839C206.515 279.739 206.915 279.839 206.915 279.839C207.615 279.839 208.315 279.739 208.915 279.639C209.215 279.639 209.515 279.539 209.815 279.439C210.815 279.239 211.715 278.939 212.615 278.539C213.715 281.239 214.815 284.639 215.815 287.539C213.015 291.539 211.115 295.639 210.215 300.039V300.439L210.915 305.739Z" fill="#341D3F"/>
<path d="M304.015 331.239C300.615 331.539 295.415 331.439 291.815 329.139C289.815 327.839 285.115 326.339 281.415 324.439C278.515 323.039 277.615 319.339 279.415 316.739L280.115 315.639L282.615 312.039C282.615 312.039 282.615 311.839 282.515 311.439H289.015C289.215 313.339 289.815 315.239 290.615 317.039C292.315 320.539 294.715 323.539 298.015 325.939C299.815 327.339 301.915 328.539 304.315 329.539C305.115 329.939 304.915 331.139 304.015 331.239Z" fill="#341D3F"/>
<path d="M257.615 127.239C258.815 130.739 259.715 134.439 262.015 137.439C262.815 138.439 263.615 139.439 264.415 140.439C265.315 141.639 266.315 142.839 267.215 144.139C267.915 145.139 268.615 146.039 269.215 147.039C271.315 150.239 273.415 154.139 273.515 158.039C273.515 159.139 268.215 168.839 267.915 169.839C279.615 168.039 291.115 175.139 299.215 172.739L298.615 163.739C298.115 154.939 297.815 146.139 297.415 137.339C297.415 137.239 297.415 137.039 297.415 136.939C297.415 136.539 297.215 135.239 297.315 135.139C299.515 133.239 301.615 125.139 290.915 116.539C287.815 114.039 284.615 111.639 281.515 109.239C280.115 108.239 278.915 108.239 277.415 108.439C277.115 108.439 276.715 108.539 276.315 108.539C273.115 108.939 269.815 109.239 266.715 110.039C266.215 110.139 265.715 110.339 265.115 110.439C264.415 110.639 263.715 110.839 263.015 111.139C262.415 111.339 261.915 111.639 261.415 112.039C256.815 115.839 255.815 121.739 257.615 127.239Z" fill="#D1634B"/>
<path d="M277.415 140.639C281.415 140.639 287.115 140.739 289.615 136.939C289.815 136.639 290.415 136.939 290.215 137.239C287.515 141.239 281.715 141.339 277.415 141.239C276.915 141.239 276.915 140.639 277.415 140.639Z" fill="#341D3F"/>
<path d="M273.715 96.8392C275.615 96.1392 277.615 97.6392 277.515 99.7392L277.015 108.639V109.239V109.739C276.915 111.139 275.815 112.339 274.415 112.439L271.515 112.739C269.815 112.939 268.315 111.539 268.415 109.839L268.515 103.839L268.615 98.7392L269.415 98.4392L273.715 96.8392Z" fill="#EBADAB"/>
<path d="M277.715 94.4392L277.015 107.639V108.239C272.615 107.839 269.215 103.339 269.215 97.8392C269.215 97.7392 269.215 97.6392 269.215 97.5392L277.715 94.4392Z" fill="#E38C89"/>
<path d="M260.415 93.1392C259.515 90.9392 259.815 87.8392 261.715 87.3392C262.315 87.2392 263.015 87.3392 263.715 87.6392C264.215 80.9392 268.215 72.9392 273.015 71.8392C279.315 70.4392 285.315 72.7392 288.615 88.8392C289.915 95.2392 286.415 102.539 280.315 104.439C275.715 105.839 269.515 101.639 266.115 96.7392C263.915 96.6392 261.515 96.0392 260.415 93.1392Z" fill="#EBADAB"/>
<path d="M281.915 97.639C282.315 97.539 282.515 97.539 282.615 97.539C282.815 97.439 282.915 97.239 282.915 97.039C282.815 96.839 282.615 96.739 282.415 96.739C282.215 96.839 277.515 97.939 275.715 93.539C275.615 93.339 275.415 93.239 275.215 93.339C275.015 93.439 274.915 93.639 275.015 93.839C276.615 97.839 280.415 97.839 281.915 97.639Z" fill="#341D3F"/>
<path d="M275.314 88.8392C275.414 89.5392 275.915 90.0392 276.615 90.0392C277.215 89.9392 277.714 89.3392 277.714 88.6392C277.614 87.9392 277.115 87.4392 276.415 87.4392C275.715 87.5392 275.214 88.1392 275.314 88.8392Z" fill="#341D3F"/>
<path d="M283.114 88.0392C283.214 88.7392 283.714 89.2392 284.414 89.2392C285.014 89.1392 285.514 88.5392 285.514 87.8392C285.414 87.1392 284.914 86.6392 284.214 86.6392C283.514 86.7392 283.114 87.3392 283.114 88.0392Z" fill="#341D3F"/>
<path d="M273.014 86.839C273.214 86.839 273.314 86.739 273.414 86.639C274.414 84.339 276.514 85.039 276.614 85.139C276.814 85.239 277.014 85.139 277.114 84.939C277.214 84.739 277.114 84.539 276.914 84.439C275.914 84.039 273.714 84.039 272.614 86.439C272.514 86.639 272.614 86.839 272.814 86.939C272.914 86.839 273.014 86.839 273.014 86.839Z" fill="#341D3F"/>
<path d="M282.414 84.5391C282.514 84.6391 282.614 84.6391 282.814 84.5391C284.714 83.6391 285.714 85.2391 285.714 85.3391C285.814 85.5391 286.014 85.5391 286.214 85.4391C286.414 85.3391 286.414 85.1391 286.314 84.9391C285.914 84.1391 284.514 82.9391 282.514 83.9391C282.314 84.0391 282.314 84.2391 282.314 84.3391C282.314 84.4391 282.314 84.5391 282.414 84.5391Z" fill="#341D3F"/>
<path d="M281.714 94.1392C281.514 94.1392 281.314 93.9392 281.314 93.7392C281.314 93.5392 281.514 93.3392 281.714 93.3392C281.714 93.3392 282.414 93.3392 282.614 92.9392C282.714 92.7392 282.814 92.2392 281.714 90.9392C281.614 90.7392 281.614 90.5392 281.814 90.4392C282.014 90.3392 282.214 90.3392 282.314 90.5392C283.314 91.7392 283.614 92.6392 283.314 93.2392C282.914 94.1392 281.814 94.1392 281.714 94.1392Z" fill="#341D3F"/>
<path d="M258.615 115.739L242.815 147.639C241.315 150.639 239.515 153.539 237.515 156.239L214.615 187.039C215.015 187.739 221.215 189.939 221.215 189.939L246.715 163.139C249.715 159.939 252.415 156.439 254.615 152.639L271.815 122.939C274.015 119.139 272.515 114.239 268.415 112.339C264.815 110.539 260.415 112.039 258.615 115.739Z" fill="#D1634B"/>
<path d="M293.715 171.239C285.815 171.639 278.915 166.939 270.815 168.239C270.515 168.239 270.615 168.739 270.915 168.639C279.015 167.339 285.715 172.139 293.615 171.639C294.015 171.639 294.015 171.239 293.715 171.239Z" fill="#341D3F"/>
<path d="M296.215 169.739C294.215 169.839 292.215 169.839 290.215 169.639C289.915 169.639 289.915 170.039 290.215 170.039C292.215 170.239 294.215 170.239 296.215 170.139C296.515 170.139 296.515 169.639 296.215 169.739Z" fill="#341D3F"/>
<path d="M298.415 178.039C294.415 178.339 290.715 177.939 287.115 177.039C286.915 175.839 286.915 174.539 287.415 173.339C287.515 173.039 287.115 172.939 287.015 173.239C286.615 174.439 286.515 175.639 286.715 176.939C286.215 176.839 285.815 176.639 285.315 176.539C284.815 175.439 285.015 174.339 285.615 173.339C285.815 173.139 285.415 172.939 285.215 173.139C284.515 174.139 284.315 175.239 284.715 176.339C283.115 175.839 281.415 175.239 279.715 174.539C278.315 173.939 277.015 173.539 275.715 173.239C275.715 172.639 275.815 172.039 276.115 171.539C276.215 171.339 275.915 171.039 275.715 171.339C275.415 171.939 275.215 172.539 275.315 173.239C274.715 173.139 274.215 173.039 273.615 173.039C273.615 172.439 273.715 171.939 273.915 171.339C274.015 171.039 273.615 170.939 273.515 171.239C273.315 171.839 273.215 172.439 273.215 173.039C271.915 172.939 270.515 173.139 269.115 173.439C268.815 173.539 268.915 173.939 269.215 173.839C275.215 172.339 279.715 175.539 285.115 177.239C285.715 177.439 286.215 177.539 286.815 177.739C286.915 177.839 286.915 177.839 287.015 177.739C290.715 178.639 294.515 178.839 298.315 178.539C298.715 178.439 298.715 177.939 298.415 178.039Z" fill="#341D3F"/>
<path d="M294.815 175.139C294.815 175.039 294.715 175.039 294.615 175.039C293.815 174.939 292.515 174.939 292.015 175.739C291.615 176.539 292.415 177.039 293.115 177.139C293.915 177.239 295.015 177.039 295.315 176.139C295.515 175.639 295.215 175.239 294.815 175.139ZM294.715 176.339C294.315 176.639 293.515 176.739 293.115 176.639C292.715 176.539 292.215 176.239 292.515 175.839C292.615 175.639 292.815 175.639 293.015 175.539C293.315 175.439 293.615 175.439 293.915 175.439C294.515 175.439 295.315 175.739 294.715 176.339Z" fill="#341D3F"/>
<path d="M286.715 189.339C286.615 200.939 282.815 212.039 279.715 223.139C279.615 223.439 280.015 223.539 280.115 223.239C283.315 212.139 287.015 201.039 287.215 189.339C287.115 189.139 286.715 189.139 286.715 189.339Z" fill="#341D3F"/>
<path d="M269.415 243.839C268.815 244.939 267.815 245.739 266.615 246.139C266.315 246.239 266.515 246.639 266.715 246.539C268.015 246.139 269.015 245.239 269.815 244.039C269.915 243.839 269.515 243.539 269.415 243.839Z" fill="#341D3F"/>
<path d="M266.715 242.739C266.415 243.739 265.915 244.639 265.215 245.439C265.015 245.639 265.315 245.939 265.515 245.739C266.215 244.939 266.815 243.939 267.115 242.839C267.215 242.639 266.815 242.539 266.715 242.739Z" fill="#341D3F"/>
<path d="M294.415 250.239C294.415 249.939 294.015 249.939 294.015 250.239C293.915 251.439 294.115 252.639 294.515 253.839C294.615 254.139 295.015 253.939 294.915 253.739C294.515 252.539 294.315 251.439 294.415 250.239Z" fill="#341D3F"/>
<path d="M296.615 251.139C296.615 250.839 296.115 250.839 296.215 251.139C296.315 252.139 296.215 253.139 295.815 254.139C295.715 254.439 296.115 254.539 296.215 254.239C296.615 253.239 296.815 252.139 296.615 251.139Z" fill="#341D3F"/>
<path d="M269.215 117.439C269.215 117.139 268.815 117.139 268.815 117.439C269.215 124.439 266.415 132.139 262.915 138.139C262.815 138.339 263.115 138.639 263.315 138.339C266.815 132.239 269.615 124.639 269.215 117.439Z" fill="#341D3F"/>
<path d="M274.415 113.039C271.715 114.039 268.915 113.639 266.615 111.939C266.415 111.739 266.215 112.139 266.415 112.339C268.815 114.039 271.715 114.439 274.515 113.539C274.815 113.339 274.615 112.939 274.415 113.039Z" fill="#341D3F"/>
<path d="M278.415 109.639C278.315 109.339 277.915 109.439 278.015 109.739C278.215 110.639 277.815 111.439 277.215 112.039C277.015 112.239 277.315 112.539 277.515 112.339C278.315 111.739 278.615 110.739 278.415 109.639Z" fill="#341D3F"/>
<path d="M298.915 132.839C299.015 132.539 298.615 132.439 298.515 132.739C298.115 134.339 297.515 135.839 296.915 137.339C296.815 137.339 296.815 137.439 296.815 137.539C296.415 138.339 296.015 139.239 295.615 140.039C295.515 140.239 295.815 140.539 296.015 140.239C296.315 139.639 296.615 139.139 296.915 138.539C297.215 145.039 297.515 151.639 297.915 158.139C297.915 158.439 298.315 158.439 298.315 158.139C297.915 151.339 297.615 144.439 297.315 137.639C297.915 136.039 298.415 134.439 298.915 132.839Z" fill="#341D3F"/>
<path d="M286.815 76.8393C284.315 71.7393 277.615 69.5393 274.315 70.4393C270.215 71.5393 266.415 73.6393 264.615 77.6393C263.315 80.5393 262.615 84.4393 263.015 87.5393C263.315 89.9393 265.015 96.8393 268.215 96.6393C268.815 93.6393 270.015 85.1393 270.315 83.9393L270.415 84.0393C270.415 84.0393 274.915 82.5393 275.115 82.4393C276.615 82.0393 278.115 81.8393 279.715 81.7393C281.415 81.7393 287.815 83.2393 288.515 85.1393C289.015 81.0393 287.715 78.6393 286.815 76.8393Z" fill="#8D90FF"/>
<path d="M272.015 76.0392C272.015 75.7392 271.515 75.7392 271.615 76.0392C271.915 78.3392 272.015 80.6392 272.015 82.9392C272.015 83.2392 272.415 83.2392 272.415 82.9392C272.415 80.6392 272.215 78.3392 272.015 76.0392Z" fill="#341D3F"/>
<path d="M275.815 73.6391C275.715 73.3391 275.315 73.4392 275.415 73.7392C276.215 76.3392 277.015 78.9391 277.115 81.7392C277.115 82.0392 277.515 82.0392 277.515 81.7392C277.515 78.9391 276.615 76.2391 275.815 73.6391Z" fill="#341D3F"/>
<path d="M279.515 73.6392C279.315 73.4392 279.015 73.6392 279.115 73.8392C280.815 76.2392 282.015 78.7392 282.715 81.6392C282.815 81.9392 283.215 81.8392 283.115 81.5392C282.415 78.7392 281.215 76.0392 279.515 73.6392Z" fill="#341D3F"/>
<path d="M283.015 73.5393C282.815 73.3393 282.515 73.6393 282.715 73.8393C285.115 75.7393 286.015 79.8394 286.715 82.6394C286.815 82.9394 287.215 82.8393 287.115 82.5393C286.415 79.7393 285.415 75.5393 283.015 73.5393Z" fill="#341D3F"/>
<path d="M271.515 72.9393C264.915 76.2393 262.715 87.5393 266.415 93.7393C266.515 93.9393 266.915 93.7392 266.815 93.5392C263.315 87.6392 265.615 76.5392 271.815 73.3392C271.915 73.2392 271.715 72.8393 271.515 72.9393Z" fill="#341D3F"/>
<path d="M268.915 78.6393C269.015 78.3393 268.515 78.2393 268.515 78.5393C267.715 82.3393 267.615 86.1393 268.115 89.9393C268.115 90.2393 268.615 90.1393 268.515 89.8393C268.015 86.1393 268.115 82.4393 268.915 78.6393Z" fill="#341D3F"/>
<path d="M566.215 78.739C566.115 80.239 567.115 81.939 567.315 83.339C567.715 85.439 568.115 87.339 568.815 89.339C569.615 91.739 571.015 94.539 572.615 96.539C574.315 98.739 576.415 101.039 577.315 103.639C578.015 105.839 578.515 108.039 578.515 110.339C578.515 112.539 578.515 115.239 576.715 116.739C576.615 115.639 577.015 114.539 576.615 113.539C576.315 112.539 575.315 111.439 574.515 110.739C572.915 109.339 572.015 111.339 570.415 111.339C569.215 111.339 568.215 110.039 567.515 109.139C566.815 108.139 566.015 106.539 565.015 105.939C563.915 105.339 562.915 106.439 561.915 106.839C558.515 108.039 554.515 107.039 552.115 104.239C550.115 101.839 549.915 98.039 550.015 95.039C550.215 90.539 553.515 86.139 556.115 82.739" fill="#DF6F22"/>
<path d="M557.615 102.339C554.815 96.9391 554.715 91.0391 557.315 85.5391C557.415 85.2391 557.015 85.0391 556.915 85.3391C554.315 90.9391 554.415 97.0391 557.215 102.539C557.415 102.839 557.715 102.539 557.615 102.339Z" fill="#341D3F"/>
<path d="M560.015 88.939C560.015 88.639 559.515 88.7389 559.615 89.0389C560.415 94.0389 562.915 98.6389 562.515 103.839C562.515 104.139 562.915 104.139 562.915 103.839C563.315 98.6389 560.815 93.939 560.015 88.939Z" fill="#341D3F"/>
<path d="M569.515 100.539C567.615 96.339 564.115 92.939 563.715 88.039C563.715 87.739 563.215 87.739 563.315 88.039C563.515 91.139 564.815 93.439 566.415 96.039C569.115 100.239 570.915 104.439 571.215 109.439C571.215 109.739 571.715 109.739 571.615 109.439C571.515 106.339 570.815 103.339 569.515 100.539Z" fill="#341D3F"/>
<path d="M574.215 102.539C572.815 99.739 570.415 97.639 569.115 94.739C569.015 94.439 568.615 94.739 568.715 94.939C569.715 97.239 571.515 98.939 572.915 101.039C574.615 103.739 575.415 106.639 575.415 109.739C575.415 110.039 575.815 110.039 575.815 109.739C575.815 107.139 575.315 104.739 574.215 102.539Z" fill="#341D3F"/>
<path d="M417.216 337.239C459.3 337.239 493.416 334.016 493.416 330.039C493.416 326.063 459.3 322.839 417.216 322.839C375.132 322.839 341.016 326.063 341.016 330.039C341.016 334.016 375.132 337.239 417.216 337.239Z" fill="#E6E6E6"/>
<path d="M488.415 187.639L484.715 186.339L487.015 188.239C488.315 189.339 489.515 190.539 490.715 191.839L492.515 193.839C492.915 194.539 492.115 195.339 491.315 194.839L486.115 190.239L489.115 193.339L492.115 196.839C492.715 197.739 491.615 198.439 491.015 197.839L488.315 195.039L484.715 191.839L486.815 194.839C487.215 195.539 487.615 196.239 487.915 196.939L488.815 199.539C488.715 200.839 488.015 200.639 487.215 200.139L486.315 197.939C486.015 197.139 485.515 196.339 484.915 195.639L482.515 192.939L484.615 199.339C484.715 200.339 483.215 200.539 483.015 199.639C482.315 197.039 480.315 193.539 480.315 193.539C477.515 192.539 475.115 190.839 473.315 188.539L470.915 185.439L469.815 184.539L474.415 179.339C475.315 180.439 476.115 181.539 476.915 182.639L478.315 182.739C480.415 182.839 482.515 183.339 484.415 184.239L488.915 186.439C489.615 186.739 489.515 187.739 488.415 187.639Z" fill="#E38C89"/>
<path d="M334.515 181.139L338.315 180.339L335.715 181.939C334.315 182.839 332.915 183.839 331.615 185.039L329.615 186.739C329.115 187.339 329.815 188.339 330.615 187.939L336.415 184.039L333.015 186.739L329.615 189.739C328.915 190.539 329.915 191.339 330.515 190.939L333.615 188.539L337.615 185.839L335.215 188.539C334.715 189.139 334.215 189.839 333.915 190.539L332.715 192.939C332.615 194.239 333.315 194.139 334.215 193.739L335.315 191.639C335.715 190.839 336.315 190.139 337.015 189.539L339.715 187.139L336.815 193.139C336.615 194.039 338.015 194.539 338.315 193.639C339.315 191.139 341.715 187.939 341.715 187.939C344.615 187.339 347.215 185.939 349.315 183.839L352.115 181.039L353.315 180.239L349.415 174.539C348.415 175.539 347.415 176.439 346.515 177.539L345.115 177.439C343.015 177.239 340.815 177.539 338.815 178.139L334.115 179.739C333.415 180.039 333.415 181.139 334.515 181.139Z" fill="#EBADAB"/>
<path d="M427.716 110.239L449.116 151.839L476.716 181.039L471.316 186.239L439.716 162.139C435.716 158.739 432.516 154.539 430.116 149.939L413.616 117.439C412.016 114.339 412.716 110.639 415.116 108.239C419.016 104.439 425.316 105.539 427.716 110.239Z" fill="#96BDFF"/>
<path d="M421.215 96.839L419.915 101.439L419.415 103.239C418.715 105.839 415.415 108.939 410.815 104.339C409.915 103.439 410.015 101.939 410.415 100.739L413.315 90.239L413.615 90.439L421.215 96.839Z" fill="#EBADAB"/>
<path d="M421.216 96.8391L419.916 101.439C416.216 100.339 413.516 96.4391 413.516 91.6391C413.516 91.2391 413.516 90.7391 413.616 90.3391L421.216 96.8391Z" fill="#E38C89"/>
<path d="M466.815 318.839L456.115 270.339L437.715 204.939L430.615 170.039H400.915L385.415 252.239L357.615 315.839L362.915 319.439L389.915 278.039C393.315 272.739 395.515 269.639 398.115 263.739L398.215 263.539C399.415 260.839 418.515 219.639 418.515 219.639C418.515 219.639 445.915 278.239 449.215 287.739L460.515 320.139L466.815 318.839Z" fill="#717BBC"/>
<path d="M373.316 326.839L366.916 325.139L363.516 318.339L362.516 317.839C360.916 316.739 359.416 315.739 358.116 314.939L358.016 315.139C351.716 318.939 354.116 322.639 362.016 329.339C363.216 330.339 369.716 331.039 373.316 330.439C373.316 330.439 373.316 330.439 373.416 330.439C375.116 329.939 375.116 327.339 373.316 326.839Z" fill="#341D3F"/>
<path d="M460.216 319.639C459.116 329.039 466.716 327.439 483.516 323.139C485.816 322.539 486.816 319.639 482.616 319.439L466.316 317.539C464.016 318.239 460.216 319.639 460.216 319.639Z" fill="#341D3F"/>
<path d="M439.916 204.639C439.916 204.639 438.216 204.939 435.316 205.339C425.516 206.639 408.516 208.539 394.516 204.139C398.216 179.939 399.216 155.439 397.616 131.039C397.316 126.839 397.316 123.339 397.516 121.639C398.716 114.739 404.116 106.839 406.016 105.239C406.916 104.439 407.916 103.339 408.716 102.339C409.616 101.239 410.216 100.439 410.216 100.439C410.216 100.439 418.116 101.539 422.816 107.039C423.816 108.139 426.416 111.639 427.516 113.439C428.716 115.339 429.916 117.539 431.016 119.739C434.916 127.239 436.516 135.639 435.516 144.039L435.316 145.539C435.116 147.239 433.916 163.639 433.916 163.639L439.916 204.639Z" fill="#96BDFF"/>
<path d="M406.315 90.7391C405.215 88.7391 405.015 85.7391 406.715 85.0391C407.215 84.8391 407.915 84.8391 408.515 85.0391C408.115 78.5391 410.715 70.3391 415.015 68.7391C420.615 66.5391 426.415 67.9391 431.415 82.9391C433.415 88.8391 431.115 96.3391 425.815 99.0391C421.815 101.039 415.615 97.8391 411.915 93.6391C409.915 93.6391 407.715 93.3391 406.315 90.7391Z" fill="#EBADAB"/>
<path d="M426.415 90.039C427.015 90.239 427.615 90.239 428.115 90.039C428.415 89.939 428.615 89.739 428.715 89.539C428.915 89.239 429.015 88.939 428.915 88.639C428.915 88.039 428.615 87.339 428.015 86.539L425.315 82.639C425.215 82.539 425.015 82.439 424.915 82.539C424.815 82.639 424.715 82.839 424.815 83.039L427.515 86.939C428.115 87.739 428.315 88.339 428.315 88.739C428.315 88.839 428.215 89.039 428.215 89.139C428.015 89.539 427.415 89.639 426.815 89.439H426.715C426.515 89.339 426.315 89.439 426.315 89.639C426.215 89.839 426.215 90.039 426.415 90.039Z" fill="#341D3F"/>
<path d="M417.615 82.7391C417.715 82.7391 417.915 82.6391 417.915 82.4391C418.515 80.1391 420.615 80.5391 420.715 80.5391C420.915 80.5391 421.115 80.4391 421.115 80.2391C421.115 80.0391 421.015 79.8391 420.815 79.8391C419.815 79.6391 417.815 79.8391 417.215 82.3391C417.115 82.5391 417.315 82.7391 417.515 82.8391C417.515 82.7391 417.515 82.7391 417.615 82.7391Z" fill="#341D3F"/>
<path d="M425.415 92.139C425.315 92.039 425.215 91.939 425.015 92.039C422.615 92.639 422.015 90.639 422.015 90.539C421.915 90.339 421.715 90.239 421.515 90.339C421.315 90.439 421.215 90.639 421.215 90.839C421.515 91.839 422.715 93.439 425.115 92.839C425.315 92.839 425.415 92.539 425.415 92.339C425.515 92.239 425.415 92.139 425.415 92.139Z" fill="#341D3F"/>
<path d="M425.915 78.8391C426.015 78.9391 426.115 78.9391 426.215 78.8391C427.815 77.6391 428.915 79.1391 429.015 79.1391C429.115 79.2391 429.315 79.3391 429.415 79.2391C429.515 79.1391 429.615 78.9391 429.515 78.8391C429.015 78.1391 427.615 77.1391 425.915 78.3391C425.815 78.4391 425.715 78.6391 425.915 78.8391Z" fill="#341D3F"/>
<path d="M422.115 84.539C421.915 84.539 421.715 84.3391 421.715 84.1391C421.715 83.9391 421.615 83.7391 421.515 83.6391C421.415 83.5391 421.215 83.4391 421.015 83.4391C420.815 83.4391 420.615 83.5391 420.515 83.6391C420.415 83.7391 420.315 83.9391 420.315 84.1391C420.315 84.3391 420.115 84.539 419.915 84.539C419.715 84.539 419.515 84.3391 419.515 84.1391C419.515 83.7391 419.715 83.339 420.015 83.039C420.315 82.739 420.715 82.5391 421.115 82.6391C421.515 82.6391 421.915 82.8391 422.215 83.1391C422.515 83.4391 422.615 83.8391 422.615 84.2391C422.515 84.3391 422.315 84.539 422.115 84.539Z" fill="#341D3F"/>
<path d="M429.515 82.7391C429.315 82.7391 429.115 82.5391 429.115 82.3391C429.115 82.1391 429.015 81.9391 428.915 81.8391C428.815 81.7391 428.615 81.6391 428.415 81.6391C428.015 81.6391 427.715 81.9391 427.715 82.3391C427.715 82.5391 427.515 82.7391 427.315 82.7391C427.115 82.7391 426.915 82.5391 426.915 82.3391C426.915 81.4391 427.615 80.7391 428.515 80.8391C428.915 80.8391 429.315 81.0391 429.615 81.3391C429.915 81.6391 430.015 82.0391 430.015 82.4391C429.915 82.5391 429.815 82.7391 429.515 82.7391Z" fill="#341D3F"/>
<path d="M401.215 111.539L375.715 150.839L345.315 177.039L350.115 182.739L384.015 161.939C388.315 158.939 391.915 155.139 394.815 150.739L414.515 120.039C416.415 117.139 416.115 113.339 413.915 110.739C410.415 106.739 404.115 107.139 401.215 111.539Z" fill="#96BDFF"/>
<path d="M428.216 116.239C428.116 115.939 427.716 116.239 427.816 116.439C433.716 130.039 433.816 144.939 433.716 159.639C433.716 159.939 434.116 159.939 434.116 159.639C434.316 144.839 434.216 129.939 428.216 116.239Z" fill="#341D3F"/>
<path d="M415.815 109.339C415.815 109.039 415.315 109.139 415.415 109.439C416.815 117.439 412.715 123.039 408.515 129.239C404.815 134.739 401.015 140.139 397.315 145.639C397.115 145.839 397.515 146.039 397.715 145.839C402.415 139.039 407.115 132.139 411.715 125.239C415.115 120.239 416.915 115.539 415.815 109.339Z" fill="#341D3F"/>
<path d="M418.216 106.339C415.216 105.939 412.416 104.839 409.916 103.039C409.716 102.839 409.516 103.239 409.716 103.439C412.216 105.239 415.016 106.339 418.116 106.839C418.416 106.739 418.516 106.339 418.216 106.339Z" fill="#341D3F"/>
<path d="M421.715 106.539H420.515C420.215 106.539 420.215 106.939 420.515 106.939H421.715C421.915 106.939 421.915 106.539 421.715 106.539Z" fill="#341D3F"/>
<path d="M433.316 203.839C427.116 204.339 421.016 204.539 414.816 204.439C408.716 204.439 401.516 204.839 395.716 202.539C395.416 202.439 395.316 202.839 395.616 202.939C401.016 205.139 407.416 204.739 413.116 204.839C419.816 204.939 426.616 204.739 433.316 204.239C433.516 204.239 433.516 203.839 433.316 203.839Z" fill="#341D3F"/>
<path d="M435.815 200.639C428.115 202.839 420.315 203.539 412.415 202.739C412.115 202.739 412.115 203.139 412.415 203.139C420.415 203.939 428.215 203.239 435.915 201.039C436.215 201.039 436.115 200.639 435.815 200.639Z" fill="#341D3F"/>
<path d="M407.315 207.239C403.915 209.639 400.115 210.839 396.015 210.839C395.715 210.839 395.715 211.239 396.015 211.239C398.015 211.239 400.015 210.939 401.815 210.339C401.215 212.639 400.015 214.739 398.315 216.439C398.115 216.639 398.415 216.939 398.615 216.739C400.415 214.939 401.715 212.739 402.315 210.139C404.115 209.539 405.815 208.639 407.515 207.539C407.715 207.439 407.515 207.039 407.315 207.239Z" fill="#341D3F"/>
<path d="M425.215 208.139C424.115 211.339 423.415 219.139 418.715 218.539C418.415 218.539 418.415 218.939 418.715 218.939C423.915 219.539 424.515 211.639 425.615 208.239C425.715 207.939 425.315 207.839 425.215 208.139Z" fill="#341D3F"/>
<path d="M391.216 261.939C390.916 263.339 390.516 264.739 390.016 266.139C389.916 266.439 390.316 266.539 390.416 266.239C390.916 264.839 391.316 263.439 391.616 262.039C391.716 261.839 391.316 261.639 391.216 261.939Z" fill="#341D3F"/>
<path d="M393.516 264.239C392.916 265.139 392.316 266.039 391.716 266.839C391.516 267.039 391.916 267.239 392.116 267.039C392.716 266.139 393.316 265.239 393.916 264.439C394.016 264.239 393.716 263.939 393.516 264.239Z" fill="#341D3F"/>
<path d="M452.415 272.839C451.415 272.039 450.415 271.239 449.315 270.539C449.115 270.339 448.915 270.739 449.115 270.939C450.115 271.739 451.115 272.539 452.215 273.239C452.415 273.339 452.615 273.039 452.415 272.839Z" fill="#341D3F"/>
<path d="M453.516 269.139C453.316 270.439 453.216 271.739 453.316 273.039C453.316 273.339 453.716 273.339 453.716 273.039C453.716 271.739 453.716 270.539 453.916 269.239C454.016 268.939 453.516 268.839 453.516 269.139Z" fill="#341D3F"/>
<path d="M429.716 74.6392C428.516 70.1392 425.516 67.1391 420.916 66.0391C415.916 64.8391 411.116 66.6392 408.016 70.7392C406.516 72.8392 405.516 75.2392 404.916 77.7392C404.416 79.8392 403.816 82.6392 405.516 84.4392C405.916 84.8392 405.916 85.1392 406.516 85.1392H406.616C407.516 85.1392 408.316 85.6392 408.816 86.4392C408.916 86.6392 409.016 86.8391 409.116 86.8391C409.816 88.0391 410.016 87.9391 411.016 88.8391C411.816 89.6391 412.916 90.3392 413.616 91.2392C412.616 89.7392 413.116 87.6392 413.516 85.9392C413.816 84.4392 414.016 82.9392 414.016 81.4392C414.016 80.2392 413.716 78.9392 413.816 77.7392C414.916 78.1392 415.416 78.8392 415.616 79.9392C417.216 79.4392 417.916 77.2392 418.116 75.7392C418.816 76.3392 419.716 76.6392 420.516 77.2392C421.216 77.7392 421.416 78.4391 421.816 79.0391C422.116 78.2391 422.716 77.5391 423.016 76.8391C423.316 76.3391 423.516 75.7392 423.816 75.2392C424.616 75.6392 425.416 76.4391 426.016 77.0391C426.316 76.4391 426.716 75.8392 427.016 75.1392C427.716 75.6392 428.216 76.3392 428.916 76.9392C429.516 77.4392 430.016 77.8392 430.516 78.4392C430.616 77.3392 429.916 75.7392 429.716 74.6392Z" fill="#341D3F"/>
<path d="M580.615 337.239C623.472 337.239 658.215 334.015 658.215 330.039C658.215 326.062 623.472 322.839 580.615 322.839C537.757 322.839 503.015 326.062 503.015 330.039C503.015 334.015 537.757 337.239 580.615 337.239Z" fill="#E6E6E6"/>
<path d="M607.715 323.039C607.715 322.939 607.715 322.939 607.715 323.039C607.715 322.939 598.515 301.739 593.615 283.339C591.515 275.539 590.115 268.239 590.615 263.239L576.915 220.239L566.815 188.639C563.415 180.339 558.615 184.339 560.815 173.739L584.415 173.439C584.415 173.439 588.215 189.039 592.515 206.739C597.915 228.839 604.115 254.039 604.815 255.939C605.615 258.039 606.315 266.339 607.215 276.939C608.515 290.839 610.515 308.739 614.515 321.539L607.715 323.039Z" fill="#E38C89"/>
<path d="M630.115 327.439C612.815 330.739 606.015 335.839 607.715 322.939L614.615 321.339C614.615 321.439 614.715 321.539 614.715 321.639L629.815 323.539C634.015 324.539 632.815 326.939 630.115 327.439Z" fill="#341D3F"/>
<path d="M592.514 206.739L574.014 195.739C574.914 204.439 576.014 213.239 576.914 220.239C577.914 227.839 578.714 233.339 578.714 234.739C578.814 240.739 577.014 246.539 573.714 251.539L549.114 287.639L530.914 314.539L525.714 310.239C525.814 310.139 525.914 310.039 525.914 310.039C525.914 310.039 532.214 290.139 536.814 280.439C545.314 262.639 555.214 243.539 560.914 238.939C560.914 238.939 555.414 208.639 552.114 200.939C547.914 191.339 547.914 183.839 549.514 178.339C552.014 169.539 556.814 164.839 556.814 164.839L583.614 167.339L592.614 206.839L592.514 206.739Z" fill="#EBADAB"/>
<path d="M539.114 328.239C539.114 328.239 531.314 327.439 529.114 326.939C528.314 326.739 527.614 326.339 527.114 325.739C523.014 321.139 520.814 317.539 521.514 314.739C521.614 314.439 524.814 311.139 525.714 310.239L530.914 314.539L530.714 314.839L533.314 322.139L539.614 324.739C541.514 325.339 541.114 328.039 539.114 328.239Z" fill="#341D3F"/>
<path d="M479.015 187.139L482.715 186.039L480.315 187.839C479.015 188.839 477.715 190.039 476.515 191.239L474.715 193.139C474.315 193.839 475.015 194.639 475.815 194.239L481.215 189.839L478.115 192.839L474.915 196.139C474.315 196.939 475.415 197.739 475.915 197.239L478.815 194.539L482.615 191.539L480.415 194.439C479.915 195.039 479.515 195.739 479.215 196.539L478.215 199.039C478.215 200.339 478.915 200.239 479.715 199.739L480.715 197.539C481.115 196.739 481.615 195.939 482.215 195.339L484.715 192.739L482.315 199.039C482.115 200.039 483.715 200.339 483.915 199.339C484.715 196.739 486.815 193.339 486.815 193.339C489.615 192.539 492.115 190.839 494.015 188.639L496.615 185.639L497.815 184.739L493.415 179.339C492.515 180.339 491.615 181.439 490.715 182.539H489.315C487.215 182.539 485.015 182.939 483.115 183.739L478.515 185.639C477.815 186.139 477.915 187.239 479.015 187.139Z" fill="#EBADAB"/>
<path d="M557.815 113.839C556.115 116.739 556.615 120.439 559.015 122.839L584.015 148.039C586.715 150.739 591.215 150.239 593.215 146.939L608.915 121.239L601.315 118.939L589.115 133.839L569.815 112.539C566.515 108.739 560.315 109.439 557.815 113.839Z" fill="#6F9E92"/>
<path d="M606.315 122.939C606.315 122.839 606.315 122.739 606.315 122.639C606.315 122.439 606.315 122.339 606.315 122.139C606.315 122.039 606.415 121.939 606.415 121.839C606.515 117.439 606.115 113.139 605.215 108.939C605.115 107.639 604.915 106.439 604.415 105.439C604.315 105.239 604.015 105.039 603.815 105.039C603.315 105.039 602.915 105.139 602.315 105.339C602.115 105.339 602.015 105.539 601.915 105.639C601.815 105.739 601.615 105.839 601.615 106.039C601.015 110.239 597.215 122.639 601.815 126.239C602.315 126.839 603.015 127.139 604.015 127.139C606.115 126.939 606.515 124.739 606.315 122.939Z" fill="#3E4784"/>
<path d="M603.915 110.039C603.915 109.739 603.515 109.739 603.515 110.039C603.015 114.539 603.015 119.039 603.415 123.539C603.415 123.839 603.915 123.839 603.815 123.539C603.515 119.039 603.515 114.539 603.915 110.039Z" fill="#341D3F"/>
<path d="M606.115 121.539L608.515 121.939L611.615 116.839C611.615 116.839 613.715 113.539 609.515 110.839C607.115 109.239 604.015 108.939 601.215 109.739L599.015 110.439C599.015 110.439 597.415 112.639 604.215 112.039C604.215 112.039 598.915 111.839 598.815 113.939C598.815 113.939 598.015 116.239 605.815 114.139C605.815 114.139 599.315 114.639 598.815 117.139C598.815 117.139 598.715 119.339 606.315 116.739C606.215 116.639 606.215 117.639 606.115 121.539Z" fill="#EBADAB"/>
<path d="M603.815 97.0389C604.315 97.0389 633.715 82.3389 633.715 82.3389V118.339L604.015 107.939C599.415 108.339 598.915 97.4389 603.815 97.0389Z" fill="#717BBC"/>
<path d="M638.815 100.139C638.815 110.139 636.715 118.339 634.215 118.339C632.215 118.339 630.515 113.239 629.815 106.039C629.615 104.139 629.515 102.239 629.515 100.139C629.515 97.439 629.615 94.939 629.915 92.639C630.615 86.339 632.215 81.939 634.115 81.939C636.715 82.039 638.815 90.139 638.815 100.139Z" fill="#3E4784"/>
<path d="M634.915 99.3389C634.915 102.739 632.715 105.539 629.815 106.039C629.615 104.139 629.515 102.239 629.515 100.139C629.515 97.4389 629.615 94.9389 629.915 92.6389C632.815 93.2389 634.915 96.0389 634.915 99.3389Z" fill="#717BBC"/>
<path d="M604.515 108.339H601.515C598.315 108.339 595.715 105.739 595.715 102.539C595.715 99.339 598.315 96.739 601.515 96.739H604.515C600.915 100.839 601.215 104.639 604.515 108.339Z" fill="#3E4784"/>
<path d="M627.415 86.639C620.115 90.139 612.915 93.639 605.715 97.239C605.415 97.339 605.715 97.739 605.915 97.639C613.115 94.039 620.315 90.539 627.615 87.039C627.915 86.839 627.715 86.539 627.415 86.639Z" fill="#341D3F"/>
<path d="M632.415 115.839C628.415 106.239 629.315 95.1389 631.715 85.2389C631.815 84.9389 631.315 84.8389 631.315 85.1389C628.915 95.1389 627.915 106.239 632.015 116.039C632.115 116.139 632.515 116.039 632.415 115.839Z" fill="#341D3F"/>
<path d="M634.515 84.739C634.415 84.439 634.016 84.739 634.116 84.939C635.116 86.939 635.616 89.039 635.616 91.239C635.616 91.539 636.015 91.539 636.015 91.239C636.015 88.939 635.515 86.739 634.515 84.739Z" fill="#341D3F"/>
<path d="M636.415 87.539C636.315 87.239 635.915 87.3391 636.015 87.6391C636.715 90.3391 637.015 93.0391 637.015 95.7391C637.015 96.0391 637.415 96.0391 637.415 95.7391C637.415 93.0391 637.115 90.239 636.415 87.539Z" fill="#341D3F"/>
<path d="M632.015 95.5391C631.815 95.3391 631.515 95.6391 631.715 95.8391C633.215 97.2391 633.215 100.739 632.215 102.439C632.115 102.639 632.415 102.939 632.615 102.639C633.715 100.839 633.615 97.1391 632.015 95.5391Z" fill="#341D3F"/>
<path d="M604.715 108.339C601.415 105.939 600.915 101.639 603.315 98.339C603.515 98.139 603.115 97.939 602.915 98.139C600.315 101.639 601.015 106.139 604.515 108.739C604.715 108.839 604.915 108.439 604.715 108.339Z" fill="#341D3F"/>
<path d="M607.015 110.739C605.115 110.839 603.315 111.339 601.615 111.839C601.315 111.939 601.415 112.339 601.715 112.239C603.515 111.739 605.215 111.239 607.015 111.139C607.315 111.239 607.315 110.739 607.015 110.739Z" fill="#341D3F"/>
<path d="M606.615 113.239C604.815 113.639 603.115 114.039 601.415 114.639C601.115 114.739 601.315 115.139 601.515 115.039C603.215 114.439 604.915 113.939 606.715 113.639C607.015 113.539 606.915 113.139 606.615 113.239Z" fill="#341D3F"/>
<path d="M609.815 114.639C608.615 115.339 607.515 115.939 606.215 116.539C606.115 116.539 605.915 116.539 605.915 116.739C606.015 117.239 606.015 117.739 606.115 118.239C606.115 118.639 606.115 119.139 606.115 119.539C606.115 119.739 606.515 119.839 606.515 119.639C606.515 119.539 606.515 119.439 606.615 119.239C606.915 118.439 607.215 117.639 607.415 116.739C607.415 116.639 607.415 116.539 607.315 116.539C608.215 116.139 609.215 115.639 610.115 115.039C610.315 114.839 610.115 114.439 609.815 114.639Z" fill="#341D3F"/>
<path d="M540.715 129.039C542.015 132.739 542.915 136.639 545.315 139.739C546.115 140.739 547.015 141.839 547.815 142.839C548.815 144.139 549.815 145.339 550.715 146.739C551.415 147.739 552.115 148.739 552.815 149.839C555.015 153.239 557.215 157.239 557.315 161.339C557.315 162.539 557.115 163.639 556.815 164.739L583.615 167.239C583.115 158.039 582.715 148.739 582.315 139.539C582.315 139.439 582.315 139.239 582.315 139.139C582.315 138.739 582.115 137.439 582.215 137.239C584.515 135.239 586.715 126.739 575.415 117.739C572.115 115.139 568.815 112.639 565.515 110.139C564.015 109.039 562.715 109.139 561.215 109.339C560.815 109.339 560.515 109.439 560.115 109.439C556.715 109.839 553.315 110.139 550.015 111.039C549.515 111.139 548.915 111.339 548.415 111.439C547.715 111.639 546.915 111.839 546.215 112.139C545.615 112.339 545.115 112.739 544.615 113.039C539.915 117.139 538.715 123.339 540.715 129.039Z" fill="#6F9E92"/>
<path d="M542.014 116.239L522.914 146.239C521.114 149.039 519.014 151.739 516.714 154.239L490.614 182.339C490.914 183.039 496.814 185.839 496.814 185.839L525.014 161.939C528.414 159.139 531.414 155.839 534.014 152.339L554.314 124.639C556.914 121.039 555.914 116.039 552.114 113.739C548.714 111.739 544.214 112.839 542.014 116.239Z" fill="#6F9E92"/>
<path d="M561.814 94.6389L561.114 108.439L561.014 109.839V110.739C561.014 111.539 560.314 112.239 559.514 112.339L553.814 112.739C552.914 112.839 552.114 112.039 552.114 111.139L552.214 103.539V102.039V98.1389L561.814 94.6389Z" fill="#EBADAB"/>
<path d="M561.814 94.6389L561.114 108.439L561.014 109.839C556.914 109.239 553.514 106.139 552.114 101.939V98.0389L561.814 94.6389Z" fill="#E38C89"/>
<path d="M567.115 79.7388C567.515 81.4388 568.015 83.4388 568.015 84.9388C568.015 85.7388 568.315 86.5388 568.915 87.0388L571.815 89.6388C572.115 89.9388 572.215 90.3388 572.015 90.7388C571.715 91.2388 571.115 91.9388 570.415 92.2388C570.415 92.2388 570.415 96.7388 568.215 100.239C567.515 101.339 566.415 102.139 565.215 102.539C551.715 106.439 545.015 100.839 543.115 87.2388C542.715 84.2388 543.415 81.2388 545.115 78.7388C547.815 74.8388 553.415 68.8388 560.615 71.9388C563.915 73.4388 566.315 76.3388 567.115 79.7388Z" fill="#EBADAB"/>
<path d="M562.815 86.1388C562.915 86.1388 563.015 86.0389 563.115 85.9389C564.215 84.1389 565.915 85.0388 566.015 85.0388C566.215 85.1388 566.415 85.0389 566.515 84.9389C566.615 84.7389 566.515 84.5389 566.415 84.4389C565.615 84.0389 563.815 83.6388 562.615 85.5388C562.515 85.7388 562.615 85.9388 562.715 86.0388L562.815 86.1388Z" fill="#341D3F"/>
<path d="M568.615 94.239C568.515 94.139 568.415 94.139 568.315 94.139C566.215 94.539 565.815 92.639 565.715 92.539C565.715 92.339 565.515 92.239 565.315 92.339C565.115 92.339 565.015 92.539 565.015 92.739C565.215 93.639 566.215 95.139 568.315 94.839C568.515 94.839 568.615 94.639 568.615 94.439C568.715 94.339 568.615 94.239 568.615 94.239Z" fill="#341D3F"/>
<path d="M566.414 87.9389C566.614 88.5389 566.314 89.0389 565.814 89.2389C565.314 89.4389 564.814 89.0389 564.614 88.5389C564.414 87.9389 564.714 87.4389 565.214 87.2389C565.714 87.0389 566.214 87.4389 566.414 87.9389Z" fill="#341D3F"/>
<path d="M573.015 80.4389C573.215 77.0389 571.015 73.0389 568.015 71.3389C567.115 70.8389 566.115 70.5389 565.115 70.4389C563.115 69.3389 560.415 68.5389 558.815 68.3389C555.415 68.0389 552.015 68.4389 548.915 69.9389C545.615 71.5389 543.215 74.6389 541.315 77.6389C539.315 80.7389 536.915 84.2389 536.915 88.1389C536.915 90.7389 539.615 92.1389 539.915 94.7389C540.215 97.1389 538.115 99.2389 536.915 101.139C535.515 103.339 534.215 105.639 534.215 108.239C534.215 109.339 534.215 110.639 535.215 111.439C536.415 112.339 537.215 111.139 538.415 110.839C539.815 110.439 541.115 110.639 542.215 111.639C542.715 112.039 543.115 112.839 543.715 113.039C544.515 113.339 545.315 112.639 546.015 112.339C548.715 111.339 551.315 111.439 553.715 113.139C555.415 114.339 556.515 116.139 558.015 117.539C559.915 119.339 563.115 119.939 565.615 120.039C566.915 120.139 568.315 120.139 569.615 120.039C570.715 119.939 571.815 119.439 573.015 119.539C567.815 119.239 563.115 116.239 560.315 111.739C558.915 109.539 558.015 106.939 557.715 104.339C557.515 103.039 556.815 97.8389 557.615 97.3389C554.015 99.5389 550.315 94.6389 550.915 91.2389C551.215 89.5389 552.815 88.1389 554.515 87.8389C556.915 87.3389 557.515 89.3389 559.215 90.3389C559.315 88.4389 559.115 86.5389 559.715 84.7389C560.415 82.4389 562.015 80.5389 563.015 78.3389C563.615 79.0389 564.015 79.9389 564.415 80.8389C564.515 81.5389 564.515 82.2389 564.515 82.8389C565.115 82.9389 565.615 82.6389 566.215 82.3389C566.715 82.0389 567.715 80.8389 568.215 80.8389C569.015 80.8389 570.315 82.6389 570.315 83.3389C571.115 81.5389 570.715 79.6389 570.515 77.8389C571.315 78.6389 572.415 79.3389 573.015 80.4389Z" fill="#DF6F22"/>
<path d="M582.015 132.539C582.015 132.439 581.915 132.439 581.915 132.339C582.815 130.639 583.215 128.739 583.115 126.839C583.115 126.539 582.615 126.539 582.715 126.839C582.915 129.939 581.715 132.839 579.515 135.039C579.315 135.239 579.615 135.539 579.815 135.339C580.615 134.639 581.215 133.839 581.715 132.939C581.415 139.939 583.115 146.839 582.815 153.939C582.815 154.239 583.215 154.239 583.215 153.939C583.415 146.739 581.715 139.739 582.015 132.539Z" fill="#341D3F"/>
<path d="M550.015 128.939C548.015 131.939 546.115 134.939 544.115 138.039C543.915 138.239 544.315 138.539 544.515 138.239L550.415 129.139C550.515 128.939 550.215 128.739 550.015 128.939Z" fill="#341D3F"/>
<path d="M554.715 114.839C554.715 114.539 554.215 114.639 554.315 114.939C554.815 118.339 554.415 121.739 552.915 124.939C552.815 125.239 553.215 125.439 553.315 125.139C554.815 121.839 555.315 118.339 554.715 114.839Z" fill="#341D3F"/>
<path d="M563.015 110.339C563.015 110.039 562.515 110.139 562.615 110.439C562.815 111.639 562.515 112.739 561.815 113.739C561.615 113.939 561.915 114.239 562.115 114.039C562.915 112.939 563.215 111.639 563.015 110.339Z" fill="#341D3F"/>
<path d="M575.115 131.139C572.015 134.939 566.115 138.339 561.215 135.639C561.015 135.539 560.715 135.839 561.015 136.039C566.115 138.739 572.115 135.439 575.415 131.439C575.615 131.239 575.315 130.939 575.115 131.139Z" fill="#341D3F"/>
<path d="M563.115 73.7391C562.915 73.5391 562.615 73.839 562.815 74.039C564.615 75.639 565.115 77.839 565.415 80.039C565.415 80.339 565.915 80.339 565.815 80.039C565.515 77.739 564.915 75.3391 563.115 73.7391Z" fill="#341D3F"/>
<path d="M563.715 72.2391C563.415 72.1391 563.315 72.5391 563.615 72.6391C566.515 73.7391 568.015 76.5391 568.615 79.4391C568.715 79.7391 569.115 79.6391 569.015 79.3391C568.415 76.3391 566.815 73.4391 563.715 72.2391Z" fill="#341D3F"/>
<path d="M570.315 75.539C569.115 73.639 567.015 71.039 564.515 71.339C564.215 71.339 564.215 71.839 564.515 71.739C566.815 71.439 568.815 74.039 569.915 75.739C570.115 76.039 570.515 75.739 570.315 75.539Z" fill="#341D3F"/>
<path d="M562.815 71.639C553.615 66.539 544.715 73.239 542.915 82.639C542.815 82.939 543.315 83.039 543.315 82.739C545.015 73.639 553.515 66.939 562.515 72.039C562.815 72.139 563.015 71.739 562.815 71.639Z" fill="#341D3F"/>
<path d="M547.115 79.2389C545.515 82.0389 542.615 85.2389 543.815 88.6389C544.515 90.8389 546.415 91.6389 545.715 94.6389C545.515 95.7389 544.615 96.9389 544.215 97.9389C543.215 100.339 542.715 102.739 542.515 105.339C542.515 105.639 542.915 105.639 542.915 105.339C543.215 101.539 544.415 99.2389 545.715 95.7389C546.115 94.5389 546.515 93.8389 546.215 92.5389C546.015 91.5389 545.315 90.7389 544.915 89.8389C543.115 85.6389 545.515 82.7389 547.415 79.3389C547.615 79.2389 547.215 79.0389 547.115 79.2389Z" fill="#341D3F"/>
<path d="M552.215 76.339C552.315 76.039 551.915 75.939 551.815 76.239C550.515 80.339 550.215 84.539 551.015 88.839C551.015 89.139 551.515 89.039 551.415 88.739C550.615 84.539 550.915 80.439 552.215 76.339Z" fill="#341D3F"/>
<path d="M551.114 97.4391C551.214 97.1391 550.814 97.0391 550.714 97.3391C549.414 100.639 548.914 104.039 549.414 107.539C549.414 107.839 549.914 107.839 549.814 107.539C549.414 104.039 549.814 100.639 551.114 97.4391Z" fill="#341D3F"/>
<path d="M557.315 75.4391C556.515 79.1391 555.715 82.7391 555.115 86.4391C555.015 86.7391 555.515 86.8391 555.515 86.5391C556.215 82.8391 556.915 79.1391 557.715 75.5391C557.715 75.3391 557.315 75.1391 557.315 75.4391Z" fill="#341D3F"/>
<path d="M558.114 114.339C556.114 109.539 554.914 104.539 554.714 99.2389C554.714 98.9389 554.314 98.9389 554.314 99.2389C554.614 104.539 555.714 109.539 557.714 114.439C557.814 114.739 558.214 114.639 558.114 114.339Z" fill="#341D3F"/>
<path d="M541.415 95.7391C539.115 98.5391 536.215 102.939 536.515 106.839C536.515 107.139 537.015 107.139 536.915 106.839C536.615 103.139 539.515 98.8391 541.715 96.1391C541.815 95.8391 541.515 95.5391 541.415 95.7391Z" fill="#341D3F"/>
<path d="M541.514 94.439C538.314 90.939 538.014 86.239 540.614 82.339C540.814 82.139 540.414 81.939 540.214 82.139C537.514 86.239 537.914 91.239 541.214 94.739C541.414 94.939 541.714 94.639 541.514 94.439Z" fill="#341D3F"/>
<path d="M556.815 164.839L583.615 167.339C583.615 167.339 599.615 198.339 603.415 224.639C603.415 224.639 577.915 233.039 539.715 224.339L543.015 215.339C545.815 207.639 547.215 199.539 546.815 191.339C546.515 182.739 547.815 170.739 556.815 164.839Z" fill="#717BBC"/>
<path d="M553.315 193.139C553.315 192.839 552.815 192.839 552.915 193.139C553.515 203.239 551.915 213.039 548.015 222.439C547.915 222.739 548.315 222.839 548.415 222.539C552.315 213.139 553.915 203.239 553.315 193.139Z" fill="#341D3F"/>
<path d="M564.515 169.739C555.115 186.639 562.215 204.539 561.715 222.639C561.715 222.939 562.115 222.939 562.115 222.639C562.615 204.639 555.515 186.839 564.815 169.939C565.015 169.739 564.615 169.539 564.515 169.739Z" fill="#341D3F"/>
<path d="M570.815 173.439C570.815 173.139 570.315 173.239 570.415 173.539C573.015 188.539 575.615 203.639 578.215 218.639C578.215 218.939 578.715 218.839 578.615 218.539C576.015 203.539 573.415 188.439 570.815 173.439Z" fill="#341D3F"/>
<path d="M583.314 181.839C583.214 181.539 582.814 181.639 582.914 181.939C586.414 195.039 589.814 208.239 592.914 221.539C593.014 221.839 593.414 221.739 593.314 221.439C590.214 208.139 586.914 194.939 583.314 181.839Z" fill="#341D3F"/>
<path d="M583.015 204.439C582.915 204.139 582.515 204.239 582.615 204.539C584.015 211.439 585.815 218.339 587.915 225.039C588.015 225.339 588.415 225.239 588.315 224.939C586.215 218.139 584.415 211.339 583.015 204.439Z" fill="#341D3F"/>
<path d="M593.615 200.939C593.515 200.639 593.115 200.739 593.215 201.039C594.715 208.939 596.515 216.839 598.515 224.739C598.615 225.039 599.015 224.939 598.915 224.639C596.915 216.739 595.115 208.839 593.615 200.939Z" fill="#341D3F"/>
<path d="M567.815 207.939C567.815 207.639 567.415 207.639 567.415 207.939C567.715 213.939 567.815 219.939 567.715 225.839C567.715 226.139 568.115 226.139 568.115 225.839C568.215 219.839 568.115 213.839 567.815 207.939Z" fill="#341D3F"/>
<path d="M555.015 210.139C554.315 214.339 553.315 218.439 552.015 222.539C551.915 222.839 552.315 222.939 552.415 222.639C553.715 218.539 554.715 214.439 555.415 210.239C555.415 210.039 555.015 209.839 555.015 210.139Z" fill="#341D3F"/>
<path d="M557.915 168.939C553.415 173.139 550.915 178.839 551.015 185.039C551.015 185.339 551.415 185.339 551.415 185.039C551.315 178.939 553.715 173.439 558.115 169.239C558.415 169.039 558.115 168.739 557.915 168.939Z" fill="#341D3F"/>
<path d="M581.415 169.639C581.315 169.339 580.915 169.539 581.015 169.739C582.115 172.739 583.015 175.839 583.715 178.939C583.815 179.239 584.215 179.139 584.115 178.839C583.515 175.739 582.615 172.639 581.415 169.639Z" fill="#341D3F"/>
<path d="M582.214 166.839C577.714 166.539 573.114 166.139 568.614 165.839C564.814 165.539 561.114 164.739 557.414 164.639C557.114 164.639 557.114 165.039 557.414 165.039C561.114 165.139 564.914 165.939 568.614 166.239C573.114 166.539 577.714 166.939 582.214 167.239C582.414 167.239 582.414 166.839 582.214 166.839Z" fill="#341D3F"/>
<path d="M310.515 27.839C310.515 27.639 310.615 27.439 310.615 27.239C311.815 16.239 304.015 6.43903 293.015 5.13903C286.415 4.43903 280.215 6.93903 276.015 11.539C274.215 10.139 272.015 9.13903 269.515 8.83903C262.515 8.03903 256.315 13.039 255.515 20.039C255.515 20.139 255.515 20.139 255.515 20.239C249.115 20.639 243.915 25.839 243.615 32.539C243.415 39.139 248.615 44.739 255.215 45.539C255.915 45.639 256.615 45.939 257.115 46.539L267.515 58.539C267.915 52.739 272.915 48.339 278.715 48.839L301.715 50.539C305.815 50.939 310.015 49.439 312.715 46.239C314.315 44.439 315.315 42.039 315.615 39.539C316.315 34.839 314.115 30.439 310.515 27.839Z" fill="#717BBC"/>
<path d="M266.715 42.7389C266.715 42.7389 268.015 31.6389 283.815 31.6389V35.8389C283.815 36.8389 285.015 37.4389 285.815 36.8389L295.615 29.9389C296.615 29.2389 296.615 27.6389 295.615 26.9389L286.115 20.3389C285.315 19.7389 284.115 20.3389 284.115 21.4389V25.3389C284.215 25.2389 269.315 23.7389 266.715 42.7389Z" fill="white"/>
<path d="M287.715 8.33897C287.215 8.53897 287.415 9.33898 287.915 9.13898C296.015 6.33898 305.515 15.839 304.115 23.939C304.015 24.439 304.815 24.739 304.915 24.139C306.415 15.439 296.515 5.33897 287.715 8.33897Z" fill="#341D3F"/>
<path d="M309.115 31.839C308.715 31.539 308.215 32.2391 308.715 32.5391C311.115 34.3391 312.315 37.939 311.615 40.839C311.015 43.239 309.015 44.839 307.215 46.339C306.815 46.739 307.415 47.3391 307.815 46.9391C310.315 44.8391 312.615 42.639 312.615 39.239C312.715 36.439 311.515 33.639 309.115 31.839Z" fill="#341D3F"/>
<path d="M276.915 14.8391C274.415 11.0391 270.215 9.43915 265.815 10.6391C265.315 10.7391 265.515 11.6391 266.015 11.4391C270.015 10.4391 273.915 11.8391 276.115 15.2391C276.515 15.7391 277.215 15.2391 276.915 14.8391Z" fill="#341D3F"/>
<path d="M295.215 28.5391C292.515 26.3391 289.715 24.2391 286.815 22.1391C286.315 21.8391 285.915 22.5391 286.415 22.8391C289.215 24.8391 292.015 26.9391 294.615 29.0391C295.015 29.4391 295.615 28.8391 295.215 28.5391Z" fill="#341D3F"/>
<path d="M283.714 26.539C278.414 26.939 272.914 28.539 270.414 33.739C270.214 34.239 270.914 34.639 271.114 34.139C273.414 29.239 278.614 27.739 283.614 27.339C284.314 27.339 284.314 26.439 283.714 26.539Z" fill="#341D3F"/>
<path d="M581.415 27.839C581.415 27.639 581.515 27.439 581.515 27.239C582.715 16.239 574.915 6.43903 563.915 5.13903C557.315 4.43903 551.115 6.93903 546.915 11.539C545.115 10.139 542.915 9.13903 540.415 8.83903C533.415 8.03903 527.215 13.039 526.415 20.039C526.415 20.139 526.415 20.139 526.415 20.239C520.015 20.639 514.715 25.839 514.515 32.539C514.315 39.139 519.515 44.739 526.115 45.539C526.815 45.639 527.515 45.939 528.015 46.539L538.415 58.539C538.815 52.739 543.815 48.339 549.615 48.839L572.615 50.539C576.715 50.939 580.915 49.439 583.615 46.239C585.215 44.439 586.215 42.039 586.515 39.539C587.115 34.839 585.015 30.439 581.415 27.839Z" fill="#717BBC"/>
<path d="M537.615 42.7389C537.615 42.7389 538.915 31.6389 554.715 31.6389V35.8389C554.715 36.8389 555.915 37.4389 556.715 36.8389L566.515 29.9389C567.515 29.2389 567.515 27.6389 566.515 26.9389L557.015 20.3389C556.215 19.7389 555.015 20.3389 555.015 21.4389V25.3389C555.115 25.2389 540.115 23.7389 537.615 42.7389Z" fill="white"/>
<path d="M558.515 8.33897C558.015 8.53897 558.215 9.33898 558.715 9.13898C566.815 6.33898 576.315 15.839 574.915 23.939C574.815 24.439 575.615 24.739 575.715 24.139C577.315 15.439 567.315 5.33897 558.515 8.33897Z" fill="#341D3F"/>
<path d="M580.015 31.839C579.615 31.539 579.115 32.2391 579.615 32.5391C582.015 34.3391 583.215 37.939 582.515 40.839C581.915 43.239 579.915 44.839 578.115 46.339C577.715 46.739 578.315 47.3391 578.715 46.9391C581.215 44.8391 583.515 42.639 583.515 39.239C583.515 36.439 582.315 33.639 580.015 31.839Z" fill="#341D3F"/>
<path d="M547.716 14.8391C545.216 11.0391 541.016 9.43915 536.616 10.6391C536.116 10.7391 536.316 11.6391 536.816 11.4391C540.816 10.4391 544.716 11.8391 546.916 15.2391C547.316 15.7391 548.116 15.2391 547.716 14.8391Z" fill="#341D3F"/>
<path d="M566.015 28.5391C563.315 26.3391 560.515 24.2391 557.615 22.1391C557.115 21.8391 556.715 22.5391 557.215 22.8391C560.015 24.8391 562.815 26.9391 565.415 29.0391C565.815 29.4391 566.515 28.8391 566.015 28.5391Z" fill="#341D3F"/>
<path d="M554.615 26.539C549.315 26.939 543.815 28.539 541.315 33.739C541.115 34.239 541.815 34.639 542.015 34.139C544.315 29.239 549.515 27.739 554.515 27.339C555.115 27.339 555.115 26.439 554.615 26.539Z" fill="#341D3F"/>
<path d="M447.115 21.339C447.115 21.139 447.115 20.939 447.215 20.739C447.915 10.039 439.915 0.839038 429.215 0.0390381C422.815 -0.360962 416.915 2.33904 413.115 6.93904C411.315 5.63904 409.115 4.73904 406.715 4.63904C399.915 4.13904 394.115 9.33904 393.615 16.139C393.615 16.239 393.615 16.239 393.615 16.339C387.515 17.039 382.615 22.239 382.715 28.739C382.815 35.239 388.115 40.339 394.515 40.839C395.215 40.839 395.915 41.239 396.415 41.739L407.015 52.939C407.115 47.339 411.815 42.839 417.415 43.039L439.815 43.739C443.815 43.939 447.815 42.339 450.315 39.139C451.715 37.239 452.615 35.039 452.815 32.439C452.915 27.839 450.715 23.639 447.115 21.339Z" fill="#717BBC"/>
<path d="M430.816 22.9389C432.016 23.0389 433.016 22.0389 432.916 20.8389C432.816 19.8389 432.016 19.0389 431.016 18.9389L423.616 18.4389C424.216 16.8389 424.616 15.2389 424.516 13.5389C424.516 11.1389 423.816 9.83893 422.416 9.43893C421.616 9.23893 420.816 9.83893 420.816 10.7389C420.616 13.0389 419.916 15.3389 418.716 17.2389L417.216 19.7389C416.616 20.6389 415.816 21.3389 414.816 21.7389L414.116 31.4389C415.716 32.1389 417.516 32.5389 419.216 32.7389L427.216 33.3389C428.316 33.4389 429.216 32.5389 429.316 31.5389C429.316 31.0389 429.216 30.5389 428.916 30.1389C430.016 30.1389 430.916 29.3389 430.916 28.3389C430.916 27.7389 430.716 27.2389 430.416 26.8389C431.516 26.9389 432.416 26.0389 432.516 25.0389C432.716 23.9389 431.816 22.9389 430.816 22.9389Z" fill="white"/>
<path d="M412.916 32.739L408.916 32.439C408.016 32.339 407.316 31.639 407.416 30.739L408.016 21.439C408.116 20.539 408.816 19.839 409.716 19.939L413.716 20.239C414.616 20.339 415.316 21.039 415.216 21.939L414.616 31.239C414.516 32.139 413.816 32.739 412.916 32.739Z" fill="#3E4784"/>
<path d="M432.515 2.639C432.015 2.539 431.715 3.339 432.315 3.439C440.215 5.139 442.315 13.339 442.815 20.339C442.815 20.939 443.715 20.939 443.715 20.339C443.215 12.939 440.715 4.439 432.515 2.639Z" fill="#341D3F"/>
<path d="M446.715 24.0391C446.315 23.6391 445.715 24.2391 446.115 24.6391C449.415 28.5391 449.315 33.8391 446.015 37.6391C445.615 38.0391 446.315 38.6391 446.615 38.2391C450.315 34.0391 450.315 28.3391 446.715 24.0391Z" fill="#341D3F"/>
<path d="M410.015 7.539C408.415 6.339 406.015 6.139 404.015 6.239C403.415 6.239 403.415 7.139 404.015 7.139C405.715 7.039 407.615 7.139 409.115 8.039C410.515 8.839 410.815 10.539 411.115 11.939C411.215 12.439 412.015 12.239 411.915 11.739C411.715 10.239 411.415 8.539 410.015 7.539Z" fill="#341D3F"/>
<path d="M414.415 20.9389C413.515 20.7389 412.615 20.6389 411.615 20.7389C411.015 20.8389 411.315 21.6389 411.815 21.5389C412.415 21.4389 413.015 21.4389 413.615 21.6389C413.515 23.5389 413.415 25.3389 413.315 27.2389C413.315 27.8389 414.115 27.8389 414.215 27.2389C414.315 25.3389 414.415 23.5389 414.515 21.6389C414.815 21.4389 414.815 21.0389 414.415 20.9389Z" fill="#341D3F"/>
<path d="M423.216 10.5391C422.916 10.0391 422.216 10.4391 422.516 10.9391C424.016 13.5391 423.316 16.5391 422.116 19.1391C421.916 19.6391 422.616 20.0391 422.816 19.5391C424.116 16.7391 424.816 13.4391 423.216 10.5391Z" fill="#341D3F"/>
<path d="M430.915 21.8391C429.415 21.6391 428.015 21.5391 426.515 21.5391C425.915 21.5391 425.915 22.3391 426.515 22.4391C428.015 22.5391 429.415 22.6391 430.915 22.7391C431.515 22.7391 431.415 21.8391 430.915 21.8391Z" fill="#341D3F"/>
<path d="M429.815 25.939H426.815C426.215 25.939 426.215 26.839 426.815 26.839H429.815C430.415 26.739 430.415 25.939 429.815 25.939Z" fill="#341D3F"/>
<path d="M429.016 29.739H427.416C426.816 29.739 426.816 30.639 427.416 30.639H429.116C429.616 30.539 429.616 29.739 429.016 29.739Z" fill="#341D3F"/>
</svg>
