<svg width="48" height="48" viewBox="0 0 48 48" fill="none" xmlns="http://www.w3.org/2000/svg">
<path d="M30.5717 21.7406L26.1186 28.8188C25.9364 29.0713 25.7148 29.2928 25.4623 29.475C24.8528 29.9003 24.1001 30.0679 23.3677 29.9417C22.6353 29.8154 21.9822 29.4054 21.5502 28.8006C21.1182 28.1958 20.9422 27.4451 21.0603 26.7113C21.1784 25.9775 21.5811 25.32 22.1811 24.8813L29.2592 20.4281C29.4201 20.316 29.6115 20.2559 29.8076 20.2559C30.0038 20.2559 30.1952 20.316 30.3561 20.4281C30.5581 20.574 30.6942 20.794 30.7347 21.0399C30.7751 21.2858 30.7165 21.5378 30.5717 21.7406Z" fill="#717BBC"/>
<path d="M24 6C12.4031 6 3.00002 15.3937 3.00002 26.9906C2.99291 32.1214 4.8713 37.076 8.27814 40.9125C8.38127 41.025 8.47502 41.1375 8.57814 41.2406C8.8 41.4808 9.0693 41.6723 9.36901 41.803C9.66872 41.9337 9.99231 42.0007 10.3193 41.9998C10.6462 41.9989 10.9694 41.9302 11.2684 41.7979C11.5674 41.6656 11.8357 41.4726 12.0563 41.2312C13.5764 39.5792 15.4228 38.2605 17.4786 37.3585C19.5344 36.4565 21.755 35.9908 24 35.9908C26.245 35.9908 28.4656 36.4565 30.5214 37.3585C32.5773 38.2605 34.4236 39.5792 35.9438 41.2312C36.1643 41.4726 36.4326 41.6656 36.7316 41.7979C37.0306 41.9302 37.3538 41.9989 37.6808 41.9998C38.0077 42.0007 38.3313 41.9337 38.631 41.803C38.9307 41.6723 39.2 41.4808 39.4219 41.2406L39.7219 40.9125C43.1287 37.076 45.0071 32.1214 45 26.9906C45 15.3937 35.5969 6 24 6Z" stroke="#717BBC" stroke-width="2" stroke-linecap="round" stroke-linejoin="round"/>
<path d="M24 12V15M39 27H36M12 27H9M15.5147 18.5147L13.3931 16.3931M32.4853 18.5147L34.6069 16.3931" stroke="#717BBC" stroke-width="2" stroke-miterlimit="10" stroke-linecap="round"/>
</svg>
