<?xml version="1.0" encoding="utf-8"?><svg xmlns="http://www.w3.org/2000/svg" xmlns:xlink="http://www.w3.org/1999/xlink"><symbol viewBox="0 0 24 24" id="arrow-left" xmlns="http://www.w3.org/2000/svg"><path d="M15.41 16.59 10.83 12l4.58-4.59L14 6l-6 6 6 6 1.41-1.41z"/></symbol><symbol viewBox="0 0 24 24" id="arrow-right" xmlns="http://www.w3.org/2000/svg"><path d="M8.59 16.59 13.17 12 8.59 7.41 10 6l6 6-6 6-1.41-1.41z"/></symbol><symbol viewBox="0 0 24 24" id="back-15" xmlns="http://www.w3.org/2000/svg"><path fill-rule="evenodd" clip-rule="evenodd" d="M16.17 4.455c.44.439.44 1.151 0 1.59L10.216 12l5.955 5.954a1.125 1.125 0 0 1-1.591 1.591l-6.75-6.75a1.125 1.125 0 0 1 0-1.59l6.75-6.75a1.123 1.123 0 0 1 1.59 0z"/></symbol><symbol viewBox="0 0 13 12" id="bi_caret-down-fill" xmlns="http://www.w3.org/2000/svg"><path d="M5.916 7.026 2.194 2.75c-.44-.503-.083-1.293.584-1.293h7.445a.773.773 0 0 1 .708.458.783.783 0 0 1-.123.836L7.085 7.025a.776.776 0 0 1-1.169 0z"/></symbol><symbol viewBox="0 0 13 12" id="bi_caret-up-fill" xmlns="http://www.w3.org/2000/svg"><path d="m7.084 4.974 3.723 4.275c.439.503.082 1.293-.585 1.293H2.777a.774.774 0 0 1-.708-.458.783.783 0 0 1 .123-.836l3.723-4.273a.776.776 0 0 1 1.169 0z"/></symbol><symbol viewBox="0 0 20 20" id="camera-15" xmlns="http://www.w3.org/2000/svg"><path fill-rule="evenodd" clip-rule="evenodd" d="M6.778 3.677C7.118 3.28 7.616 3 8.203 3h3.594c.587 0 1.086.28 1.425.677a.75.75 0 0 1 .065.087l1.005 1.589c.108.11.219.147.278.147h2.305a2 2 0 0 1 2 2V15a2 2 0 0 1-2 2H3.125a2 2 0 0 1-2-2V7.5a2 2 0 0 1 2-2h2.344c.034 0 .116-.015.237-.145l1.007-1.591a.75.75 0 0 1 .065-.087zm1.168.944L6.94 6.209a.75.75 0 0 1-.064.087c-.3.35-.772.704-1.408.704H3.125a.5.5 0 0 0-.5.5V15a.5.5 0 0 0 .5.5h13.75a.5.5 0 0 0 .5-.5V7.5a.5.5 0 0 0-.5-.5H14.57c-.61 0-1.124-.328-1.447-.704a.758.758 0 0 1-.064-.087L12.054 4.62a.361.361 0 0 0-.257-.121H8.203a.361.361 0 0 0-.257.12z"/><path fill-rule="evenodd" clip-rule="evenodd" d="M10 8.25A2.375 2.375 0 1 0 10 13a2.375 2.375 0 0 0 0-4.75zm-3.875 2.375a3.875 3.875 0 1 1 7.75 0 3.875 3.875 0 0 1-7.75 0zM3.156 5.313a.75.75 0 0 1 .75-.75h.938a.75.75 0 0 1 .75.75v.859a.75.75 0 0 1-1.219.585.75.75 0 0 1-1.219-.586v-.858z"/></symbol><symbol viewBox="0 0 24 24" id="checkbox" xmlns="http://www.w3.org/2000/svg"><path fill-rule="evenodd" clip-rule="evenodd" d="M18 4H6a2 2 0 0 0-2 2v12a2 2 0 0 0 2 2h12a2 2 0 0 0 2-2V6a2 2 0 0 0-2-2zM6 2a4 4 0 0 0-4 4v12a4 4 0 0 0 4 4h12a4 4 0 0 0 4-4V6a4 4 0 0 0-4-4H6z"/></symbol><symbol viewBox="0 0 24 24" id="checkbox-check" xmlns="http://www.w3.org/2000/svg"><path fill-rule="evenodd" clip-rule="evenodd" d="M6 2a4 4 0 0 0-4 4v12a4 4 0 0 0 4 4h12a4 4 0 0 0 4-4V6a4 4 0 0 0-4-4H6zm12.707 5.293a1 1 0 0 1 0 1.414l-8.25 8.25a1 1 0 0 1-1.414 0l-3.75-3.75a1 1 0 1 1 1.414-1.414l3.043 3.043 7.543-7.543a1 1 0 0 1 1.414 0z"/></symbol><symbol viewBox="0 0 40 40" id="close-15" xmlns="http://www.w3.org/2000/svg"><path fill-rule="evenodd" clip-rule="evenodd" d="M10.72 10.72a.75.75 0 0 1 1.06 0L20 18.94l8.22-8.22a.75.75 0 1 1 1.06 1.06L21.06 20l8.22 8.22a.75.75 0 1 1-1.06 1.06L20 21.06l-8.22 8.22a.75.75 0 1 1-1.06-1.06L18.94 20l-8.22-8.22a.75.75 0 0 1 0-1.06z"/></symbol><symbol viewBox="0 0 24 24" id="copy-2" xmlns="http://www.w3.org/2000/svg"><path fill-rule="evenodd" clip-rule="evenodd" d="M11.162 1h7.676c.528 0 .982 0 1.357.03.395.033.789.104 1.167.297a3 3 0 0 1 1.311 1.311c.193.378.264.772.296 1.167.031.375.031.83.031 1.356v7.678c0 .527 0 .981-.03 1.356-.033.395-.104.789-.297 1.167a3 3 0 0 1-1.311 1.311c-.378.193-.772.264-1.167.296-.375.031-.83.031-1.357.031H17v1.838c0 .528 0 .982-.03 1.357-.033.395-.104.789-.297 1.167a3 3 0 0 1-1.311 1.311c-.378.193-.772.264-1.167.296-.375.031-.83.031-1.356.031H5.16c-.527 0-.981 0-1.356-.03-.395-.033-.789-.104-1.167-.297a3 3 0 0 1-1.311-1.311c-.193-.378-.264-.772-.296-1.167C1 19.82 1 19.365 1 18.838v-7.677c0-.527 0-.981.03-1.356.033-.395.104-.789.297-1.167a3 3 0 0 1 1.311-1.311c.378-.193.772-.264 1.167-.296C4.18 7 4.635 7 5.161 7H7V5.161c0-.527 0-.981.03-1.356.033-.395.104-.789.297-1.167a3 3 0 0 1 1.311-1.311c.378-.193.772-.264 1.167-.296C10.18 1 10.635 1 11.162 1zM5.2 9c-.577 0-.949 0-1.232.024-.272.022-.373.06-.422.085a1 1 0 0 0-.437.437c-.025.05-.063.15-.085.422C3 10.25 3 10.623 3 11.2v7.6c0 .577 0 .949.024 1.232.022.272.06.373.085.422a1 1 0 0 0 .437.437c.05.025.15.063.422.085C4.25 21 4.623 21 5.2 21h7.6c.577 0 .949 0 1.232-.024.272-.022.373-.06.422-.085a1 1 0 0 0 .437-.437c.025-.05.063-.15.085-.422C15 19.75 15 19.377 15 18.8v-7.6c0-.577 0-.949-.024-1.232-.022-.272-.06-.373-.085-.422a1 1 0 0 0-.437-.437c-.05-.025-.15-.063-.422-.085C13.75 9 13.377 9 12.8 9H5.2zM17 15v-3.838c0-.528 0-.982-.03-1.357-.033-.395-.104-.789-.297-1.167a3 3 0 0 0-1.311-1.311c-.378-.193-.772-.264-1.167-.296A17.9 17.9 0 0 0 12.838 7H9V5.2c0-.577 0-.949.024-1.232.022-.272.06-.373.085-.422a1 1 0 0 1 .437-.437c.05-.025.15-.063.422-.085C10.25 3 10.623 3 11.2 3h7.6c.577 0 .949 0 1.232.024.272.022.373.06.422.085a1 1 0 0 1 .437.437c.025.05.063.15.085.422C21 4.25 21 4.623 21 5.2v7.6c0 .577 0 .949-.024 1.232-.022.272-.06.373-.085.422a1 1 0 0 1-.437.437c-.05.025-.15.063-.422.085C19.75 15 19.377 15 18.8 15H17z"/></symbol><symbol viewBox="0 0 16 17" id="down-2" xmlns="http://www.w3.org/2000/svg"><path fill-rule="evenodd" clip-rule="evenodd" d="M3.293 5.793a1 1 0 0 1 1.414 0L8 9.086l3.293-3.293a1 1 0 1 1 1.414 1.414l-4 4a1 1 0 0 1-1.414 0l-4-4a1 1 0 0 1 0-1.414z"/></symbol><symbol viewBox="0 0 16 16" id="down-225" xmlns="http://www.w3.org/2000/svg"><path fill-rule="evenodd" clip-rule="evenodd" d="M2.704 4.955c.44-.44 1.152-.44 1.591 0L8 8.659l3.704-3.705a1.125 1.125 0 0 1 1.591 1.591l-4.5 4.5c-.439.44-1.151.44-1.59 0l-4.5-4.5a1.125 1.125 0 0 1 0-1.59z"/></symbol><symbol viewBox="0 0 20 20" id="eye-15" xmlns="http://www.w3.org/2000/svg"><path fill-rule="evenodd" clip-rule="evenodd" d="M.745 9.232c2.559-3.667 5.889-5.607 9.242-5.607 3.933 0 7.308 2.56 9.293 5.627l.001.001a1.38 1.38 0 0 1 .001 1.493c-1.984 3.107-5.338 5.629-9.295 5.629-4 0-7.289-2.517-9.268-5.614a1.375 1.375 0 0 1 .024-1.526l.002-.003zm1.28.787c1.802 2.783 4.656 4.856 7.962 4.856 3.27 0 6.187-2.085 7.99-4.874-1.811-2.76-4.75-4.876-7.99-4.876-2.717 0-5.611 1.562-7.961 4.894z"/><path fill-rule="evenodd" clip-rule="evenodd" d="M10 7.625a2.375 2.375 0 1 0 0 4.75 2.375 2.375 0 0 0 0-4.75zM6.125 10a3.875 3.875 0 1 1 7.75 0 3.875 3.875 0 0 1-7.75 0z"/></symbol><symbol viewBox="0 0 24 24" id="eye-2" xmlns="http://www.w3.org/2000/svg"><path fill-rule="evenodd" clip-rule="evenodd" d="M6.359 8.243C4.852 9.5 3.799 10.977 3.266 11.82a9.59 9.59 0 0 0-.11.178V12l.029.049.08.13c.533.843 1.587 2.32 3.094 3.577C7.863 17.012 9.757 18 12 18c2.244 0 4.138-.988 5.642-2.243 1.506-1.257 2.56-2.734 3.093-3.578a10.444 10.444 0 0 0 .11-.178v-.002a10.444 10.444 0 0 0-.11-.178c-.533-.844-1.587-2.32-3.093-3.578C16.138 6.988 14.244 6 12 6c-2.243 0-4.137.988-5.641 2.243zM5.077 6.707C6.806 5.265 9.14 4 12 4c2.862 0 5.195 1.265 6.924 2.707 1.726 1.441 2.91 3.107 3.502 4.046l.024.038c.118.185.27.425.348.762a2.16 2.16 0 0 1 0 .894c-.077.337-.23.577-.348.762l-.024.038c-.593.939-1.776 2.605-3.502 4.046C17.195 18.735 14.862 20 12 20c-2.861 0-5.194-1.265-6.923-2.707-1.726-1.441-2.91-3.107-3.502-4.046a12.644 12.644 0 0 0-.024-.038 2.341 2.341 0 0 1-.348-.762 2.159 2.159 0 0 1 0-.894c.077-.337.23-.577.348-.762l.024-.038c.592-.939 1.776-2.605 3.502-4.046zM12 10a2 2 0 1 0 0 4 2 2 0 0 0 0-4zm-4 2a4 4 0 1 1 8 0 4 4 0 0 1-8 0z"/></symbol><symbol viewBox="0 0 24 24" id="help" xmlns="http://www.w3.org/2000/svg"><path d="M11.52 3.024c-.821.097-1.323.216-1.841.434-1.55.654-2.78 2.192-3.063 3.831-.069.402-.054.6.061.825.163.316.451.486.823.486.499 0 .85-.313.92-.821.043-.312.097-.495.244-.832.181-.413.412-.748.744-1.075.678-.669 1.366-.939 2.492-.98 1.333-.049 2.076.211 2.884 1.008.404.398.598.73.714 1.221.122.52.054 1.219-.171 1.756-.287.683-.765 1.157-2.165 2.146-.668.472-1.287 1.033-1.604 1.454a4.362 4.362 0 0 0-.854 2.563c-.003.422.052.59.266.804.196.196.342.253.653.255.246.001.308-.015.479-.12.12-.074.242-.195.314-.312.102-.165.122-.246.147-.599.048-.656.155-.987.454-1.405.236-.33.598-.665 1.123-1.041 1.557-1.115 2.093-1.608 2.57-2.363.626-.991.863-2.319.624-3.495-.231-1.14-.934-2.126-2.034-2.855-.965-.64-1.697-.858-2.98-.887a10.584 10.584 0 0 0-.8.002m-.2 14.271c-.42.094-.731.308-.955.657-.658 1.026.153 2.371 1.373 2.277a1.466 1.466 0 0 0 1.369-1.605c-.075-.887-.929-1.522-1.787-1.329" fill-rule="evenodd"/></symbol><symbol viewBox="0 0 40 40" id="menu-3" xmlns="http://www.w3.org/2000/svg"><path fill-rule="evenodd" clip-rule="evenodd" d="M3.5 10A1.5 1.5 0 0 1 5 8.5h30a1.5 1.5 0 0 1 0 3H5A1.5 1.5 0 0 1 3.5 10zm0 10A1.5 1.5 0 0 1 5 18.5h30a1.5 1.5 0 0 1 0 3H5A1.5 1.5 0 0 1 3.5 20zm0 10A1.5 1.5 0 0 1 5 28.5h20a1.5 1.5 0 0 1 0 3H5A1.5 1.5 0 0 1 3.5 30z"/></symbol><symbol viewBox="0 0 24 24" id="message-text-circle-2" xmlns="http://www.w3.org/2000/svg"><path fill-rule="evenodd" clip-rule="evenodd" d="M3 11.5a9.5 9.5 0 1 1 6.085 8.868 9.85 9.85 0 0 0-.182-.07l-.013-.004a6.868 6.868 0 0 0-.161.016l-5.121.53a7.311 7.311 0 0 1-.658.051c-.186.001-.521-.01-.842-.205a1.5 1.5 0 0 1-.7-1.048c-.059-.372.06-.685.132-.856.074-.172.18-.37.283-.559l1.652-3.057c.071-.133.11-.204.135-.257l.004-.008A9.49 9.49 0 0 1 3 11.5zM12.5 4a7.5 7.5 0 0 0-7.11 9.897l.025.073c.081.239.177.519.197.772a1.91 1.91 0 0 1-.056.652c-.062.245-.19.479-.292.668l-.03.054-1.455 2.695 4.744-.49.033-.004c.12-.013.267-.028.412-.023.132.005.243.02.372.05.142.033.296.092.425.142l.04.015A7.5 7.5 0 1 0 12.5 4zM7 9.5a1 1 0 0 1 1-1h4a1 1 0 0 1 0 2H8a1 1 0 0 1-1-1zM7 13a1 1 0 0 1 1-1h7a1 1 0 0 1 0 2H8a1 1 0 0 1-1-1z"/></symbol><symbol viewBox="0 0 24 24" id="minus-15" xmlns="http://www.w3.org/2000/svg"><path fill-rule="evenodd" clip-rule="evenodd" d="M4.5 12a.75.75 0 0 1 .75-.75h13.5a.75.75 0 0 1 0 1.5H5.25A.75.75 0 0 1 4.5 12z"/></symbol><symbol viewBox="0 0 24 24" id="minus-circle-2" xmlns="http://www.w3.org/2000/svg"><path fill-rule="evenodd" clip-rule="evenodd" d="M12 3a9 9 0 1 0 0 18 9 9 0 0 0 0-18zM1 12C1 5.925 5.925 1 12 1s11 4.925 11 11-4.925 11-11 11S1 18.075 1 12zm6 0a1 1 0 0 1 1-1h8a1 1 0 1 1 0 2H8a1 1 0 0 1-1-1z"/></symbol><symbol viewBox="0 0 24 24" id="plus-15" xmlns="http://www.w3.org/2000/svg"><path fill-rule="evenodd" clip-rule="evenodd" d="M12 4.5a.75.75 0 0 1 .75.75v6h6a.75.75 0 0 1 0 1.5h-6v6a.75.75 0 0 1-1.5 0v-6h-6a.75.75 0 0 1 0-1.5h6v-6A.75.75 0 0 1 12 4.5z"/></symbol><symbol viewBox="0 0 24 24" id="plus-circle-2" xmlns="http://www.w3.org/2000/svg"><path fill-rule="evenodd" clip-rule="evenodd" d="M12 3a9 9 0 1 0 0 18 9 9 0 0 0 0-18zM1 12C1 5.925 5.925 1 12 1s11 4.925 11 11-4.925 11-11 11S1 18.075 1 12zm11-5a1 1 0 0 1 1 1v3h3a1 1 0 1 1 0 2h-3v3a1 1 0 1 1-2 0v-3H8a1 1 0 1 1 0-2h3V8a1 1 0 0 1 1-1z"/></symbol><symbol viewBox="0 0 24 24" id="power-2" xmlns="http://www.w3.org/2000/svg"><path fill-rule="evenodd" clip-rule="evenodd" d="M12 1a1 1 0 0 1 1 1v10a1 1 0 1 1-2 0V2a1 1 0 0 1 1-1zM6.337 5.933a1 1 0 0 1 0 1.414 8 8 0 1 0 11.316 0 1 1 0 1 1 1.414-1.414 10 10 0 1 1-14.144 0 1 1 0 0 1 1.414 0z"/></symbol><symbol viewBox="0 0 24 24" id="receipt" xmlns="http://www.w3.org/2000/svg"><path fill-rule="evenodd" clip-rule="evenodd" d="M8.759 2h6.482c.805 0 1.47 0 2.01.044.563.046 1.08.145 1.565.392a4 4 0 0 1 1.748 1.748c.247.485.346 1.002.392 1.564C21 6.29 21 6.954 21 7.758V21a1 1 0 0 1-1.588.809l-2.133-1.552-1.904 1.524a1 1 0 0 1-1.213.028L12 20.236 9.838 21.81a1 1 0 0 1-1.213-.028l-1.904-1.523-2.133 1.55A1 1 0 0 1 3 21V7.759c0-.805 0-1.47.044-2.01.046-.563.145-1.08.392-1.565a4 4 0 0 1 1.748-1.748c.485-.247 1.002-.346 1.564-.392C7.29 2 7.954 2 8.758 2zM6.91 4.038c-.438.035-.663.1-.819.18a2 2 0 0 0-.874.874c-.08.156-.145.38-.18.819C5 6.361 5 6.943 5 7.8v11.236l1.162-.845a1 1 0 0 1 1.213.028l1.904 1.523 2.133-1.55a1 1 0 0 1 1.176 0l2.133 1.55 1.904-1.523a1 1 0 0 1 1.213-.028l1.162.845V7.8c0-.857 0-1.439-.038-1.889-.035-.438-.1-.663-.18-.819a2 2 0 0 0-.874-.874c-.156-.08-.38-.145-.819-.18C16.639 4 16.057 4 15.2 4H8.8c-.857 0-1.439 0-1.889.038z"/></symbol><symbol viewBox="0 0 24 24" id="receipt-2" xmlns="http://www.w3.org/2000/svg"><path fill-rule="evenodd" clip-rule="evenodd" d="M8.759 2h6.482c.805 0 1.47 0 2.01.044.563.046 1.08.145 1.565.392a4 4 0 0 1 1.748 1.748c.247.485.346 1.002.392 1.564C21 6.29 21 6.954 21 7.758V21a1 1 0 0 1-1.588.809l-2.133-1.552-1.904 1.524a1 1 0 0 1-1.213.028L12 20.236 9.838 21.81a1 1 0 0 1-1.213-.028l-1.904-1.523-2.133 1.55A1 1 0 0 1 3 21V7.759c0-.805 0-1.47.044-2.01.046-.563.145-1.08.392-1.565a4 4 0 0 1 1.748-1.748c.485-.247 1.002-.346 1.564-.392C7.29 2 7.954 2 8.758 2zM6.91 4.038c-.438.035-.663.1-.819.18a2 2 0 0 0-.874.874c-.08.156-.145.38-.18.819C5 6.361 5 6.943 5 7.8v11.236l1.162-.845a1 1 0 0 1 1.213.028l1.904 1.523 2.133-1.55a1 1 0 0 1 1.176 0l2.133 1.55 1.904-1.523a1 1 0 0 1 1.213-.028l1.162.845V7.8c0-.857 0-1.439-.038-1.889-.035-.438-.1-.663-.18-.819a2 2 0 0 0-.874-.874c-.156-.08-.38-.145-.819-.18C16.639 4 16.057 4 15.2 4H8.8c-.857 0-1.439 0-1.889.038z"/></symbol><symbol viewBox="0 0 24 24" id="receipt-check" xmlns="http://www.w3.org/2000/svg"><path fill-rule="evenodd" clip-rule="evenodd" d="M8.759 2h6.482c.805 0 1.47 0 2.01.044.563.046 1.08.145 1.565.392a4 4 0 0 1 1.748 1.748c.247.485.346 1.002.392 1.564C21 6.29 21 6.954 21 7.758V21a1 1 0 0 1-1.588.809l-2.133-1.552-1.904 1.524a1 1 0 0 1-1.213.028L12 20.236 9.838 21.81a1 1 0 0 1-1.213-.028l-1.904-1.523-2.133 1.55A1 1 0 0 1 3 21V7.759c0-.805 0-1.47.044-2.01.046-.563.145-1.08.392-1.565a4 4 0 0 1 1.748-1.748c.485-.247 1.002-.346 1.564-.392C7.29 2 7.954 2 8.758 2zM6.91 4.038c-.438.035-.663.1-.819.18a2 2 0 0 0-.874.874c-.08.156-.145.38-.18.819C5 6.361 5 6.943 5 7.8v11.236l1.162-.845a1 1 0 0 1 1.213.028l1.904 1.523 2.133-1.55a1 1 0 0 1 1.176 0l2.133 1.55 1.904-1.523a1 1 0 0 1 1.213-.028l1.162.845V7.8c0-.857 0-1.439-.038-1.889-.035-.438-.1-.663-.18-.819a2 2 0 0 0-.874-.874c-.156-.08-.38-.145-.819-.18C16.639 4 16.057 4 15.2 4H8.8c-.857 0-1.439 0-1.889.038zm9.296 3.255a1 1 0 0 1 0 1.414l-4.5 4.5a1 1 0 0 1-1.414 0l-2-2a1 1 0 0 1 1.414-1.414L11 11.086l3.793-3.793a1 1 0 0 1 1.414 0z"/></symbol><symbol viewBox="0 0 20 20" id="return-15" xmlns="http://www.w3.org/2000/svg"><path fill-rule="evenodd" clip-rule="evenodd" d="M6.111 5.664A7 7 0 0 1 10 4.484c.876 0 1.494.03 1.93.078.396.044.75.113 1.003.265a.882.882 0 0 1 .424.596.842.842 0 0 1-.177.676 1.019 1.019 0 0 1-.33.267l-.01.006-.005.002-.002.001c-.001 0-.002 0-.317-.64l.315.64a.75.75 0 0 1-.99-.313 5.104 5.104 0 0 0-.077-.009c-.357-.04-.914-.069-1.764-.069a5.5 5.5 0 1 0 5.5 5.5.75.75 0 0 1 1.5 0 7 7 0 1 1-10.889-5.82z"/><path fill-rule="evenodd" clip-rule="evenodd" d="M9.47 1.735a.75.75 0 0 1 1.06 0l3.125 3.125a.75.75 0 0 1 0 1.061L10.53 9.046a.75.75 0 1 1-1.06-1.06l2.594-2.595L9.47 2.796a.75.75 0 0 1 0-1.06z"/></symbol><symbol viewBox="0 0 16 16" id="right-225" xmlns="http://www.w3.org/2000/svg"><path fill-rule="evenodd" clip-rule="evenodd" d="M4.955 13.296a1.125 1.125 0 0 1 0-1.591L8.659 8 4.954 4.295a1.125 1.125 0 0 1 1.591-1.59l4.5 4.5c.44.439.44 1.151 0 1.59l-4.5 4.5c-.439.44-1.151.44-1.59 0z"/></symbol><symbol viewBox="0 0 24 24" id="safety-2" xmlns="http://www.w3.org/2000/svg"><path fill-rule="evenodd" clip-rule="evenodd" d="M7.759 2h8.482c.805 0 1.47 0 2.01.044.563.046 1.08.145 1.565.392a4 4 0 0 1 1.748 1.748c.247.485.346 1.002.392 1.564C22 6.29 22 6.954 22 7.758v8.483c0 .805 0 1.47-.044 2.01-.046.563-.145 1.08-.392 1.565a4 4 0 0 1-1.748 1.748c-.485.247-1.002.346-1.564.392-.541.044-1.206.044-2.01.044H7.758c-.805 0-1.47 0-2.01-.044-.563-.046-1.08-.145-1.565-.392a4 4 0 0 1-1.748-1.748c-.247-.485-.346-1.002-.392-1.564C2 17.71 2 17.046 2 16.242V7.758c0-.805 0-1.47.044-2.01.046-.563.145-1.08.392-1.565a4 4 0 0 1 1.748-1.748c.485-.247 1.002-.346 1.564-.392C6.29 2 6.954 2 7.758 2zM5.91 4.038c-.438.035-.663.1-.819.18a2 2 0 0 0-.874.874c-.08.156-.145.38-.18.819C4 6.361 4 6.943 4 7.8v8.4c0 .857 0 1.439.038 1.889.035.438.1.663.18.819a2 2 0 0 0 .874.874c.156.08.38.145.819.18C6.361 20 6.943 20 7.8 20h8.4c.857 0 1.439 0 1.889-.038.438-.035.663-.1.819-.18a2 2 0 0 0 .874-.874c.08-.156.145-.38.18-.819.037-.45.038-1.032.038-1.889V7.8c0-.857 0-1.439-.038-1.889-.035-.438-.1-.663-.18-.819a2 2 0 0 0-.874-.874c-.156-.08-.38-.145-.819-.18C17.639 4 17.057 4 16.2 4H7.8c-.857 0-1.439 0-1.889.038zM8 10a4 4 0 1 1 6.704 2.948l.894 2.683.009.027c.051.154.108.325.144.477.04.165.085.43.01.73a1.5 1.5 0 0 1-.648.9 1.525 1.525 0 0 1-.696.221 5.83 5.83 0 0 1-.498.014h-3.838c-.162 0-.343 0-.498-.014a1.525 1.525 0 0 1-.696-.221 1.5 1.5 0 0 1-.648-.9c-.075-.3-.03-.565.01-.73.036-.152.093-.324.144-.477l.01-.027.893-2.683-.02-.02A3.992 3.992 0 0 1 8 10zm4-2a2 2 0 0 0-1.362 3.465l.013.012c.095.088.19.176.263.25a1.483 1.483 0 0 1 .414.702 1.481 1.481 0 0 1-.016.78 5.526 5.526 0 0 1-.09.286L10.388 16h3.226l-.836-2.505c-.03-.092-.064-.195-.09-.286a1.534 1.534 0 0 1-.015-.78 1.483 1.483 0 0 1 .414-.701c.074-.075.168-.163.263-.251l.013-.012A2 2 0 0 0 12 8z"/></symbol><symbol viewBox="0 0 24 25" id="share-2" xmlns="http://www.w3.org/2000/svg"><path fill-rule="evenodd" clip-rule="evenodd" d="M18 3.5a2 2 0 1 0 0 4 2 2 0 0 0 0-4zm-2.842 4.815a4 4 0 1 0-1.008-1.727L8.842 9.685a4 4 0 1 0 0 5.63l5.309 3.093A4.003 4.003 0 0 0 18 23.5a4 4 0 1 0-2.839-6.818l-5.31-3.095a4.003 4.003 0 0 0 0-2.175l5.307-3.097zM7.7 11.445a.973.973 0 0 0 .056.096c.155.285.244.612.244.959a1.99 1.99 0 0 1-.3 1.055A1.999 1.999 0 0 1 4 12.5a2 2 0 0 1 3.7-1.055zm8.515 7.151a1.012 1.012 0 0 0 .123-.209 2 2 0 1 1-.122.209z"/></symbol><symbol viewBox="0 0 24 24" id="star-2" xmlns="http://www.w3.org/2000/svg"><path fill-rule="evenodd" clip-rule="evenodd" d="M11.354 1.776a1.5 1.5 0 0 1 1.292 0c.353.168.547.46.645.62.102.166.206.377.308.583l.015.032 2.14 4.335 4.822.705c.227.033.46.067.65.113.182.044.52.139.789.423a1.5 1.5 0 0 1 .398 1.228c-.051.387-.27.663-.391.805a7.677 7.677 0 0 1-.46.472l-3.488 3.397.823 4.799c.04.226.08.458.095.652.014.187.029.538-.158.882a1.5 1.5 0 0 1-1.045.759c-.384.071-.713-.051-.887-.123a7.754 7.754 0 0 1-.591-.291L12 18.9l-4.31 2.267a7.584 7.584 0 0 1-.592.29c-.173.073-.503.195-.887.124a1.5 1.5 0 0 1-1.045-.76c-.187-.343-.172-.694-.158-.881.016-.194.056-.426.095-.652l.823-4.799-3.463-3.372-.025-.025a7.677 7.677 0 0 1-.46-.472c-.122-.142-.34-.418-.39-.805a1.5 1.5 0 0 1 .397-1.228c.27-.284.607-.38.79-.423.189-.046.422-.08.649-.113l.034-.005 4.788-.7 2.14-4.335.016-.032c.101-.206.205-.417.307-.582.098-.16.292-.453.646-.621zM8.143 7.554zm.333-.242zm9.561 6.949zM12 4.259 9.993 8.326l-.013.027a1.917 1.917 0 0 1-.303.471 1.5 1.5 0 0 1-.467.34c-.208.096-.433.127-.541.142a3.951 3.951 0 0 0-.03.004l-4.49.657 3.247 3.163.022.02c.08.077.243.234.355.435a1.5 1.5 0 0 1 .179.55c.028.228-.013.451-.032.56a3.212 3.212 0 0 0-.005.029l-.767 4.468 4.014-2.111.027-.014c.096-.052.296-.16.522-.204a1.5 1.5 0 0 1 .578 0c.226.044.426.152.522.204l.027.014 4.014 2.11-.767-4.467c0-.009-.003-.019-.005-.03a1.905 1.905 0 0 1-.032-.56c.024-.193.084-.38.179-.549.112-.201.276-.358.355-.434.008-.008.015-.015.022-.02l3.248-3.164-4.49-.657a1.904 1.904 0 0 1-.571-.147 1.498 1.498 0 0 1-.468-.339 1.903 1.903 0 0 1-.316-.498L12 4.259z"/></symbol><symbol viewBox="0 0 24 24" id="switch-horizontal-2" xmlns="http://www.w3.org/2000/svg"><path fill-rule="evenodd" clip-rule="evenodd" d="M15.293 2.293a1 1 0 0 1 1.414 0l4 4a1 1 0 0 1 0 1.414l-4 4a1 1 0 0 1-1.414-1.414L17.586 8H4a1 1 0 0 1 0-2h13.586l-2.293-2.293a1 1 0 0 1 0-1.414zm-6.586 10a1 1 0 0 1 0 1.414L6.414 16H20a1 1 0 1 1 0 2H6.414l2.293 2.293a1 1 0 1 1-1.414 1.414l-4-4a1 1 0 0 1 0-1.414l4-4a1 1 0 0 1 1.414 0z"/></symbol><symbol viewBox="0 0 24 25" id="thumbs-down-2" xmlns="http://www.w3.org/2000/svg"><path fill-rule="evenodd" clip-rule="evenodd" d="M20.032 3.524C19.75 3.5 19.377 3.5 18.8 3.5H18v9h.8c.577 0 .949 0 1.232-.024.272-.022.373-.06.422-.085a1 1 0 0 0 .437-.437c.025-.05.063-.15.085-.422C21 11.25 21 10.877 21 10.3V5.7c0-.577 0-.949-.024-1.232-.022-.272-.06-.373-.085-.422a1 1 0 0 0-.437-.437c-.05-.025-.15-.063-.422-.085zM16 13.378V3.5H8.118c-.746 0-1.25 0-1.642.03-.38.03-.58.082-.728.148a2 2 0 0 0-.85.73c-.087.134-.17.325-.256.696-.089.383-.166.881-.28 1.618l-.523 3.4c-.149.97-.25 1.635-.285 2.15-.034.507.007.764.074.94a2 2 0 0 0 .88 1.027c.164.093.413.172.918.216.515.044 1.188.045 2.169.045h.837c.252 0 .498 0 .706.017.229.019.499.063.77.201a2 2 0 0 1 .874.874c.138.271.182.541.201.77.017.208.017.454.017.706v2.966c0 .771.596 1.404 1.352 1.462l3.312-7.452.032-.073c.08-.18.174-.394.304-.593zM18.84 1.5c.527 0 .982 0 1.356.03.395.033.789.104 1.167.297a3 3 0 0 1 1.311 1.311c.193.378.264.772.297 1.167.03.375.03.83.03 1.356v4.678c0 .527 0 .981-.03 1.356-.033.395-.104.789-.297 1.167a3 3 0 0 1-1.31 1.311c-.38.193-.773.264-1.168.296-.374.031-.83.031-1.356.031h-.8c-.2 0-.304 0-.379.005h-.006l-.003.007a6.964 6.964 0 0 0-.16.344l-3.36 7.562a1.822 1.822 0 0 1-1.665 1.082A3.466 3.466 0 0 1 9 20.034V17.1a8.194 8.194 0 0 0-.011-.588l-.014-.002a8.205 8.205 0 0 0-.575-.01h-.85c-.925 0-1.684 0-2.296-.053-.63-.054-1.209-.171-1.734-.47a4 4 0 0 1-1.76-2.052c-.216-.564-.243-1.154-.201-1.785.04-.613.156-1.363.297-2.278l.535-3.481c.107-.69.195-1.264.303-1.73.114-.487.264-.929.53-1.337a4 4 0 0 1 1.699-1.457c.444-.201.903-.283 1.401-.32C6.802 1.5 7.382 1.5 8.081 1.5h10.758z"/></symbol><symbol viewBox="0 0 24 24" id="thumbs-up-2" xmlns="http://www.w3.org/2000/svg"><path fill-rule="evenodd" clip-rule="evenodd" d="M9.87 2.082A1.822 1.822 0 0 1 11.533 1 3.466 3.466 0 0 1 15 4.466V8h3.503a4 4 0 0 1 3.954 4.608l-1.077 7A4 4 0 0 1 17.426 23H4a3 3 0 0 1-3-3v-7a3 3 0 0 1 3-3h2.35l3.52-7.918zM8 21h9.426a2 2 0 0 0 1.977-1.696l1.077-7A2 2 0 0 0 18.503 10H15a2 2 0 0 1-2-2V4.466c0-.771-.596-1.404-1.352-1.462l-3.47 7.808a2 2 0 0 1-.178.319V21zm-2-9v9H4a1 1 0 0 1-1-1v-7a1 1 0 0 1 1-1h2z"/></symbol><symbol viewBox="0 0 24 24" id="user-2" xmlns="http://www.w3.org/2000/svg"><path fill-rule="evenodd" clip-rule="evenodd" d="M12 4a3.5 3.5 0 1 0 0 7 3.5 3.5 0 0 0 0-7zM6.5 7.5a5.5 5.5 0 1 1 11 0 5.5 5.5 0 0 1-11 0zM12 16c-2.84 0-5.37 1.37-6.986 3.509-.1.13-.175.231-.238.32-.048.066-.08.115-.103.152.149.017.36.019.754.019h13.146c.393 0 .605-.002.754-.019a2.61 2.61 0 0 0-.103-.153 16.067 16.067 0 0 0-.238-.32C17.369 17.37 14.839 16 12 16zm-8.582 2.303C5.391 15.692 8.498 14 12 14c3.501 0 6.609 1.692 8.582 4.303l.027.036c.17.224.351.465.481.697.157.28.274.605.267 1a2.022 2.022 0 0 1-.22.85 2.004 2.004 0 0 1-.545.687c-.333.262-.696.355-1.019.393a8.472 8.472 0 0 1-.955.034H5.382c-.337 0-.673 0-.956-.034-.322-.038-.685-.131-1.018-.393a2.023 2.023 0 0 1-.546-.687 2.022 2.022 0 0 1-.22-.85 1.93 1.93 0 0 1 .268-1c.13-.233.311-.473.481-.697l.027-.036z"/></symbol><symbol viewBox="0 0 28 28" id="user-3" xmlns="http://www.w3.org/2000/svg"><path fill-rule="evenodd" clip-rule="evenodd" d="M14 5a3.75 3.75 0 1 0 0 7.5A3.75 3.75 0 0 0 14 5zM7.25 8.75a6.75 6.75 0 1 1 13.5 0 6.75 6.75 0 0 1-13.5 0zm3.597 7.833h6.306c1.397 0 2.424-.001 3.304.266a6.166 6.166 0 0 1 4.11 4.11c.268.881.267 1.908.266 3.305v.236a1.5 1.5 0 1 1-3 0c0-1.737-.016-2.273-.136-2.67a3.167 3.167 0 0 0-2.111-2.11c-.396-.12-.932-.137-2.67-.137h-5.833c-1.737 0-2.273.017-2.669.137a3.167 3.167 0 0 0-2.111 2.11c-.12.397-.136.933-.136 2.67a1.5 1.5 0 0 1-3 0v-.236c-.001-1.397-.002-2.424.265-3.304a6.166 6.166 0 0 1 4.111-4.111c.88-.267 1.907-.267 3.304-.266z"/></symbol><symbol viewBox="0 0 24 24" id="user-circle" xmlns="http://www.w3.org/2000/svg"><path fill-rule="evenodd" clip-rule="evenodd" d="M12 3a9 9 0 0 0-6.862 14.824A4.99 4.99 0 0 1 9 16h6a4.99 4.99 0 0 1 3.862 1.824A9 9 0 0 0 12 3zm7.37 17.166A10.972 10.972 0 0 0 23 12c0-6.075-4.925-11-11-11S1 5.925 1 12a10.972 10.972 0 0 0 3.665 8.198A10.96 10.96 0 0 0 12 23a10.96 10.96 0 0 0 7.37-2.834zM17.4 19.2A2.996 2.996 0 0 0 15 18H9c-.98 0-1.853.47-2.4 1.2A8.96 8.96 0 0 0 12 21a8.96 8.96 0 0 0 5.4-1.8zM12 6.5a3 3 0 1 0 0 6 3 3 0 0 0 0-6zm-5 3a5 5 0 1 1 10 0 5 5 0 0 1-10 0z"/></symbol><symbol viewBox="0 0 24 24" id="user-left-2" xmlns="http://www.w3.org/2000/svg"><path fill-rule="evenodd" clip-rule="evenodd" d="M10 4a3.5 3.5 0 1 0 0 7 3.5 3.5 0 0 0 0-7zM4.5 7.5a5.5 5.5 0 1 1 11 0 5.5 5.5 0 0 1-11 0zm15.207 6.793a1 1 0 0 1 0 1.414L18.414 17H22a1 1 0 1 1 0 2h-3.586l1.293 1.293a1 1 0 0 1-1.414 1.414l-3-3a1 1 0 0 1 0-1.414l3-3a1 1 0 0 1 1.414 0zm-12.38.207H12a1 1 0 1 1 0 2H7.5c-1.468 0-1.98.01-2.37.13a3 3 0 0 0-2 2c-.12.39-.13.902-.13 2.37a1 1 0 1 1-2 0v-.174c0-1.227 0-2.065.215-2.777a5 5 0 0 1 3.334-3.334c.712-.216 1.55-.216 2.777-.215z"/></symbol><symbol viewBox="0 0 24 24" id="users-plus-2" xmlns="http://www.w3.org/2000/svg"><path fill-rule="evenodd" clip-rule="evenodd" d="M9.5 4a3 3 0 1 0 0 6 3 3 0 0 0 0-6zm-5 3a5 5 0 1 1 10 0 5 5 0 0 1-10 0zm10.073-4.084a1 1 0 0 1 1.302-.552 5.001 5.001 0 0 1 0 9.272 1 1 0 0 1-.75-1.854 3.001 3.001 0 0 0 0-5.564 1 1 0 0 1-.552-1.302zM7.964 14H12a1 1 0 1 1 0 2H8c-.946 0-1.605 0-2.12.036-.507.034-.803.099-1.028.192a3 3 0 0 0-1.624 1.624c-.093.225-.158.52-.192 1.027C3 19.395 3 20.054 3 21a1 1 0 1 1-2 0v-.035c0-.902 0-1.63.04-2.222.042-.608.13-1.147.34-1.656a5 5 0 0 1 2.707-2.706c.51-.212 1.048-.3 1.656-.34C6.335 14 7.063 14 7.964 14zM19 14a1 1 0 0 1 1 1v2h2a1 1 0 1 1 0 2h-2v2a1 1 0 1 1-2 0v-2h-2a1 1 0 1 1 0-2h2v-2a1 1 0 0 1 1-1z"/></symbol><symbol viewBox="0 0 24 24" id="x-close" xmlns="http://www.w3.org/2000/svg"><path fill-rule="evenodd" clip-rule="evenodd" d="M5.293 5.293a1 1 0 0 1 1.414 0L12 10.586l5.293-5.293a1 1 0 1 1 1.414 1.414L13.414 12l5.293 5.293a1 1 0 0 1-1.414 1.414L12 13.414l-5.293 5.293a1 1 0 0 1-1.414-1.414L10.586 12 5.293 6.707a1 1 0 0 1 0-1.414z"/></symbol></svg>